<svg width="343" height="270" viewBox="0 0 343 270" fill="none" xmlns="http://www.w3.org/2000/svg">
<path d="M54.9864 159.712C44.1439 159.712 33.545 162.926 24.5302 168.947C15.5154 174.969 8.4897 183.527 4.34173 193.54C0.193772 203.553 -0.890099 214.57 1.22718 225.199C3.34446 235.828 8.5678 245.59 16.2365 253.251C23.9052 260.912 33.6748 266.128 44.3096 268.239C54.9444 270.35 65.9667 269.261 75.9822 265.11C85.9978 260.959 94.5567 253.932 100.576 244.919C106.596 235.905 109.806 225.31 109.801 214.472C109.801 207.279 108.383 200.156 105.628 193.51C102.873 186.864 98.8348 180.826 93.7444 175.741C88.654 170.656 82.6111 166.623 75.9609 163.872C69.3106 161.122 62.1834 159.708 54.9864 159.712Z" fill="url(#paint0_linear_1_22)"/>
<path d="M250.963 0.427746C232.773 0.427749 214.991 5.81993 199.866 15.9222C184.742 26.0245 172.955 40.383 165.996 57.1818C159.037 73.9806 157.218 92.4649 160.771 110.297C164.323 128.129 173.086 144.507 185.952 157.36C198.818 170.214 215.209 178.964 233.051 182.506C250.893 186.047 269.385 184.22 286.189 177.256C302.992 170.292 317.351 158.503 327.451 143.381C337.55 128.259 342.936 110.482 342.927 92.3005C342.927 80.2317 340.548 68.2811 335.926 57.1316C331.303 45.982 324.529 35.852 315.988 27.3202C307.448 18.7884 297.31 12.0221 286.153 7.40779C274.995 2.79349 263.038 0.421626 250.963 0.427746Z" fill="url(#paint1_linear_1_22)"/>
<defs>
<linearGradient id="paint0_linear_1_22" x1="185.397" y1="-60.4409" x2="31.3529" y2="264.486" gradientUnits="userSpaceOnUse">
<stop offset="0.521837" stop-color="#420DBD"/>
<stop offset="1" stop-color="#6E46E5"/>
</linearGradient>
<linearGradient id="paint1_linear_1_22" x1="159" y1="92.3471" x2="409.212" y2="95.7858" gradientUnits="userSpaceOnUse">
<stop stop-color="#6E46E5"/>
<stop offset="0.455" stop-color="#194EC4"/>
<stop offset="1" stop-color="#1CF9EF" stop-opacity="0.9"/>
</linearGradient>
</defs>
</svg>
