<svg width="191" height="297" viewBox="0 0 191 297" fill="none" xmlns="http://www.w3.org/2000/svg">
<path d="M42.2918 0.108417C12.9508 0.108421 -15.7312 8.80588 -40.1264 25.1006C-64.5215 41.3954 -83.5339 64.5554 -94.7588 91.6514C-105.984 118.747 -108.917 148.562 -103.187 177.325C-97.4576 206.087 -83.3226 232.505 -62.5701 253.237C-41.8176 273.969 -15.3798 288.084 13.3992 293.796C42.1783 299.509 72.0059 296.562 99.1092 285.329C126.213 274.095 149.374 255.08 165.664 230.688C181.954 206.297 190.641 177.624 190.627 148.297C190.627 128.83 186.789 109.554 179.334 91.5704C171.878 73.5864 160.951 57.2469 147.176 43.4853C133.401 29.7238 117.048 18.8098 99.0514 11.3671C81.055 3.92431 61.7679 0.0985459 42.2918 0.108417Z" fill="url(#paint0_linear_214_1577)"/>
<defs>
<linearGradient id="paint0_linear_214_1577" x1="395.198" y1="-595.652" x2="-21.6633" y2="283.64" gradientUnits="userSpaceOnUse">
<stop stop-color="#F65B00"/>
<stop offset="0.63" stop-color="#420DBD"/>
<stop offset="1" stop-color="#6E46E5"/>
</linearGradient>
</defs>
</svg>
