<svg width="550" height="378" viewBox="0 0 550 378" fill="none" xmlns="http://www.w3.org/2000/svg">
<path d="M496.723 227.825C495.204 228.05 493.699 228.354 492.213 228.737C485.275 230.63 478.701 233.666 472.762 237.721L480.299 245.489C486.259 241.431 492.853 238.395 499.811 236.505C501.293 236.123 502.795 235.819 504.309 235.593L496.771 227.825H496.723Z" fill="#9CF5FE"/>
<path style="mix-blend-mode:lighten" opacity="0.2" d="M337.061 204.45C374.604 166.907 374.604 106.037 337.061 68.4931C299.517 30.9496 238.647 30.9496 201.104 68.4931C163.56 106.037 163.56 166.907 201.104 204.45C238.647 241.994 299.517 241.994 337.061 204.45Z" fill="url(#paint0_radial_214_1923)"/>
<path d="M271.129 377.087C270.193 377.087 269.269 377.087 268.333 377.001L268.467 374.242C269.366 374.242 270.278 374.315 271.19 374.339L271.129 377.087ZM276.709 377.087L276.624 374.327C277.536 374.327 278.448 374.266 279.347 374.218L279.493 376.977C278.581 377.014 277.645 377.05 276.721 377.074L276.709 377.087ZM262.777 376.625L259.993 376.321L260.334 373.585C261.233 373.699 262.133 373.796 263.033 373.877L262.777 376.625ZM285.061 376.54L284.769 373.792C285.669 373.707 286.58 373.598 287.48 373.476L287.833 376.211L285.061 376.54ZM254.474 375.494C253.55 375.336 252.639 375.154 251.727 374.971L252.286 372.272C253.161 372.455 254.061 372.625 254.948 372.783L254.474 375.494ZM293.376 375.348L292.89 372.637C293.777 372.479 294.665 372.297 295.552 372.114L296.124 374.801C295.187 374.983 294.227 375.166 293.352 375.336L293.376 375.348ZM246.293 373.707C245.393 373.476 244.494 373.221 243.606 372.953L244.396 370.315C245.247 370.571 246.123 370.814 246.998 371.045L246.293 373.707ZM301.533 373.5L300.804 370.838L303.405 370.084L304.208 372.71C303.32 372.965 302.433 373.221 301.521 373.476L301.533 373.5ZM238.318 371.178C237.43 370.85 236.555 370.51 235.704 370.157L236.75 367.604C237.576 367.945 238.427 368.273 239.266 368.589L238.318 371.178ZM309.533 370.887L308.548 368.309C309.399 367.993 310.238 367.653 311.052 367.3L312.134 369.841C311.247 370.182 310.384 370.522 309.508 370.862L309.533 370.887ZM230.598 367.823C229.747 367.385 228.921 366.948 228.106 366.498L229.456 364.067C230.234 364.504 231.036 364.93 231.887 365.282L230.598 367.823ZM317.216 367.434L315.939 365.003C316.742 364.577 317.532 364.152 318.371 363.702C318.93 363.374 319.489 363.045 320.024 362.705L321.483 365.051C320.911 365.392 320.34 365.744 319.744 366.085C318.857 366.522 318.03 366.984 317.191 367.41L317.216 367.434ZM223.328 363.52C222.526 362.973 221.772 362.413 221.043 361.842L222.733 359.666C223.426 360.201 224.143 360.736 224.885 361.246L223.328 363.52ZM326.066 361.818L324.376 359.642C325.081 359.094 325.774 358.523 326.431 357.94L328.254 360.018C327.525 360.602 326.795 361.21 326.042 361.793L326.066 361.818ZM216.776 358.085C216.095 357.393 215.439 356.687 214.843 355.982L216.934 354.195C217.493 354.852 218.089 355.508 218.733 356.14L216.776 358.085ZM332.266 355.958L330.163 354.171C330.746 353.49 331.293 352.785 331.792 352.092L334.029 353.709C333.469 354.438 332.874 355.192 332.241 355.934L332.266 355.958ZM211.488 351.326C210.995 350.494 210.545 349.638 210.138 348.761L212.643 347.606C213.007 348.401 213.412 349.176 213.858 349.928L211.488 351.326ZM336.946 348.725L334.442 347.582C334.804 346.79 335.121 345.979 335.39 345.151L338.004 346.014C337.693 346.928 337.331 347.825 336.922 348.7L336.946 348.725ZM208.327 343.23C208.132 342.275 207.998 341.308 207.926 340.336L210.673 340.13C210.743 340.991 210.861 341.847 211.026 342.695L208.327 343.23ZM339.147 340.3L336.399 340.106C336.399 339.619 336.399 339.133 336.399 338.647C336.399 338.16 336.399 337.905 336.399 337.528L339.159 337.37C339.159 337.8 339.159 338.225 339.159 338.647C339.207 339.169 339.207 339.729 339.122 340.276L339.147 340.3ZM210.953 335L208.242 334.501C208.417 333.543 208.652 332.597 208.947 331.669L211.573 332.483C211.31 333.301 211.095 334.133 210.929 334.975L210.953 335ZM335.463 332.374C335.205 331.547 334.901 330.735 334.551 329.942L337.08 328.836C337.469 329.736 337.809 330.648 338.101 331.559L335.463 332.374ZM213.627 327.693L211.196 326.332C211.658 325.517 212.181 324.691 212.74 323.9L215.001 325.481C214.527 326.21 214.053 326.952 213.627 327.693ZM331.974 325.444C331.476 324.739 330.929 324.034 330.357 323.353L332.472 321.591C333.092 322.332 333.688 323.098 334.223 323.864L331.974 325.444ZM218.417 321.433L216.423 319.5C217.08 318.819 217.761 318.162 218.478 317.518L220.314 319.573C219.681 320.217 219.025 320.788 218.417 321.433ZM326.613 319.56C325.956 318.977 325.263 318.406 324.571 317.846L326.272 315.682C327.014 316.278 327.756 316.898 328.449 317.506L326.613 319.56ZM224.496 316.266L222.903 314.017C223.657 313.482 224.447 312.959 225.261 312.449L226.72 314.771C225.991 315.257 225.249 315.743 224.532 316.254L224.496 316.266ZM320.194 314.759C319.562 314.357 318.918 313.968 318.249 313.543L317.884 313.336L319.258 310.905L319.623 311.124C320.328 311.525 321.009 311.938 321.665 312.339L320.194 314.759ZM231.449 312.108L230.234 309.677C231.06 309.251 231.899 308.85 232.762 308.461L233.978 310.966C233.054 311.294 232.227 311.707 231.449 312.096V312.108ZM313.119 310.893C312.316 310.516 311.49 310.151 310.687 309.799L311.745 307.258C312.62 307.622 313.471 307.999 314.322 308.388L313.119 310.893ZM238.853 308.814L237.88 306.224C238.755 305.896 239.631 305.592 240.518 305.288L241.406 307.89C240.555 308.194 239.704 308.498 238.853 308.826V308.814ZM305.582 307.878L303.004 307.051L303.807 304.425C304.706 304.693 305.594 304.972 306.469 305.276L305.582 307.878ZM246.597 306.322L245.879 303.659C246.779 303.416 247.679 303.185 248.59 302.966L249.247 305.629C248.347 305.872 247.472 306.091 246.597 306.334V306.322ZM297.765 305.641C296.889 305.434 296.002 305.228 295.115 305.045L295.674 302.346L298.397 302.954L297.765 305.641ZM254.547 304.535L254.061 301.824L256.808 301.362L257.222 304.097C256.322 304.243 255.435 304.413 254.547 304.547V304.535ZM289.802 304.085L287.115 303.708L287.456 300.973C288.38 301.094 289.304 301.216 290.215 301.362L289.802 304.085ZM262.619 303.428L262.352 300.681C263.276 300.584 264.2 300.511 265.124 300.438L265.33 303.185C264.431 303.258 263.519 303.331 262.619 303.428ZM281.645 303.185C280.745 303.112 279.833 303.064 278.934 303.015L279.068 300.268C279.991 300.268 280.928 300.365 281.851 300.438L281.645 303.185ZM270.764 302.918L270.704 300.158C271.628 300.158 272.564 300.158 273.488 300.158V302.918C272.576 302.881 271.676 302.893 270.764 302.918Z" fill="#76D6FD"/>
<path style="mix-blend-mode:lighten" opacity="0.5" d="M337.797 50.7002H209.227V337.686H209.3C208.874 347.497 215.086 357.38 228.057 364.869C253.161 379.36 293.862 379.36 318.966 364.869C331.524 357.575 337.797 348.117 337.797 338.622V50.7002Z" fill="url(#paint1_radial_214_1923)"/>
<path opacity="0.1" d="M273.512 375.737C309.016 375.737 337.797 359.121 337.797 338.623C337.797 318.125 309.016 301.508 273.512 301.508C238.008 301.508 209.227 318.125 209.227 338.623C209.227 359.121 238.008 375.737 273.512 375.737Z" fill="#53A5F8"/>
<path d="M273.562 321.567C256.968 321.567 240.374 317.92 227.731 310.626C215.355 303.478 208.535 293.923 208.535 283.735C208.535 273.548 215.355 263.993 227.731 256.844C253.005 242.256 294.119 242.256 319.393 256.844C331.769 263.993 338.589 273.536 338.589 283.723C338.589 293.911 331.769 303.466 319.393 310.614C306.714 317.92 290.107 321.567 273.562 321.567ZM273.562 247.411C257.235 247.411 240.909 251.058 228.472 258.182C216.571 265.05 210.006 274.144 210.006 283.784C210.006 293.424 216.571 302.518 228.472 309.386C253.333 323.743 293.791 323.743 318.652 309.386C330.553 302.518 337.106 293.424 337.106 283.784C337.106 274.144 330.553 265.05 318.652 258.182C306.167 250.924 289.84 247.362 273.562 247.362V247.411Z" fill="#53A5F8"/>
<path opacity="0.5" d="M273.562 284.452C256.968 284.452 240.374 280.805 227.731 273.511C215.355 266.363 208.535 256.808 208.535 246.62C208.535 236.433 215.355 226.877 227.731 219.729C253.005 205.141 294.119 205.141 319.393 219.729C331.769 226.877 338.589 236.433 338.589 246.62C338.589 256.808 331.769 266.363 319.393 273.511C306.714 280.805 290.107 284.452 273.562 284.452ZM273.562 210.296C257.235 210.296 240.897 213.943 228.472 221.066C216.571 227.935 210.006 237.028 210.006 246.669C210.006 256.309 216.571 265.402 228.472 272.271C253.333 286.628 293.791 286.628 318.652 272.271C330.553 265.402 337.106 256.309 337.106 246.669C337.106 237.028 330.553 227.935 318.652 221.066C306.167 213.833 289.84 210.247 273.562 210.247V210.296Z" fill="#53A5F8"/>
<path opacity="0.3" d="M273.562 247.337C256.968 247.337 240.374 243.69 227.731 236.396C215.355 229.248 208.535 219.705 208.535 209.518C208.535 199.33 215.355 189.775 227.731 182.627C253.005 168.038 294.119 168.038 319.393 182.627C331.769 189.775 338.589 199.33 338.589 209.518C338.589 219.705 331.769 229.248 319.393 236.396C306.714 243.63 290.107 247.337 273.562 247.337ZM273.562 173.181C257.235 173.181 240.897 176.828 228.472 183.94C216.571 190.82 210.006 199.914 210.006 209.554C210.006 219.194 216.571 228.288 228.472 235.156C253.333 249.514 293.791 249.514 318.652 235.156C330.553 228.288 337.106 219.194 337.106 209.554C337.106 199.914 330.553 190.82 318.652 183.952C306.167 176.767 289.84 173.12 273.562 173.12V173.181Z" fill="#53A5F8"/>
<path opacity="0.1" d="M273.562 210.211C256.968 210.211 240.374 206.563 227.731 199.269C215.355 192.121 208.535 182.578 208.535 172.378C208.535 162.179 215.355 152.648 227.731 145.5C253.005 130.912 294.119 130.912 319.393 145.5C331.769 152.648 338.589 162.191 338.589 172.391C338.589 182.59 331.769 192.121 319.393 199.269C306.714 206.563 290.107 210.211 273.562 210.211ZM273.562 136.054C257.235 136.054 240.897 139.701 228.472 146.813C216.571 153.693 210.018 162.787 210.006 172.415C209.994 182.043 216.571 191.149 228.472 198.029C253.333 212.387 293.791 212.374 318.652 198.029C330.553 191.149 337.106 182.055 337.106 172.427C337.106 162.799 330.553 153.693 318.652 146.813C306.167 139.604 289.84 136.017 273.562 136.017V136.054Z" fill="#53A5F8"/>
<path d="M215.026 273.219C215.026 273.849 214.839 274.465 214.489 274.989C214.139 275.513 213.642 275.921 213.06 276.162C212.478 276.403 211.838 276.466 211.22 276.343C210.602 276.22 210.034 275.917 209.589 275.471C209.143 275.026 208.84 274.459 208.717 273.841C208.594 273.223 208.657 272.582 208.898 272C209.14 271.418 209.548 270.921 210.072 270.571C210.595 270.221 211.211 270.034 211.841 270.034C212.26 270.033 212.675 270.114 213.062 270.273C213.449 270.433 213.801 270.667 214.097 270.964C214.393 271.26 214.628 271.611 214.787 271.999C214.947 272.386 215.028 272.801 215.026 273.219Z" fill="#6BD2FE"/>
<path d="M311.294 257.014C313.046 257.014 314.467 255.593 314.467 253.841C314.467 252.089 313.046 250.668 311.294 250.668C309.542 250.668 308.121 252.089 308.121 253.841C308.121 255.593 309.542 257.014 311.294 257.014Z" fill="#6BD2FE"/>
<path d="M281.585 209.505C281.585 210.136 281.398 210.752 281.047 211.276C280.697 211.8 280.199 212.208 279.616 212.449C279.033 212.69 278.392 212.752 277.774 212.628C277.156 212.505 276.588 212.2 276.143 211.753C275.698 211.307 275.396 210.738 275.275 210.119C275.153 209.501 275.218 208.86 275.461 208.278C275.704 207.696 276.114 207.2 276.639 206.851C277.165 206.503 277.782 206.318 278.412 206.32C278.83 206.32 279.243 206.403 279.629 206.563C280.015 206.723 280.365 206.958 280.66 207.254C280.955 207.55 281.188 207.901 281.347 208.287C281.506 208.674 281.587 209.088 281.585 209.505Z" fill="#6BD2FE"/>
<path d="M231.62 183.1C231.62 183.73 231.433 184.346 231.083 184.87C230.733 185.393 230.236 185.802 229.654 186.043C229.072 186.284 228.432 186.347 227.814 186.224C227.196 186.101 226.628 185.798 226.183 185.352C225.737 184.907 225.434 184.339 225.311 183.722C225.188 183.104 225.251 182.463 225.492 181.881C225.734 181.299 226.142 180.802 226.666 180.452C227.189 180.102 227.805 179.915 228.435 179.915C228.854 179.913 229.269 179.995 229.656 180.154C230.043 180.314 230.395 180.548 230.691 180.844C230.987 181.14 231.222 181.492 231.381 181.879C231.54 182.267 231.622 182.681 231.62 183.1Z" fill="#6BD2FE"/>
<path d="M307.247 177.302C307.247 177.933 307.06 178.549 306.709 179.073C306.359 179.597 305.861 180.005 305.278 180.246C304.695 180.487 304.054 180.549 303.436 180.425C302.818 180.301 302.251 179.997 301.806 179.55C301.361 179.104 301.058 178.535 300.937 177.916C300.815 177.298 300.88 176.657 301.123 176.075C301.366 175.493 301.776 174.997 302.301 174.648C302.827 174.3 303.444 174.115 304.074 174.117C304.492 174.117 304.905 174.2 305.291 174.36C305.677 174.52 306.027 174.755 306.322 175.051C306.617 175.347 306.85 175.698 307.009 176.084C307.168 176.471 307.249 176.885 307.247 177.302Z" fill="#6BD2FE"/>
<path d="M334.151 155.833C334.151 156.463 333.965 157.078 333.615 157.602C333.265 158.126 332.767 158.534 332.185 158.775C331.603 159.016 330.963 159.079 330.345 158.956C329.727 158.834 329.16 158.53 328.714 158.085C328.269 157.639 327.965 157.072 327.842 156.454C327.72 155.836 327.783 155.196 328.024 154.614C328.265 154.032 328.673 153.534 329.197 153.184C329.721 152.834 330.336 152.647 330.966 152.647C331.385 152.646 331.8 152.727 332.187 152.887C332.574 153.046 332.926 153.281 333.222 153.577C333.518 153.873 333.753 154.225 333.912 154.612C334.072 154.999 334.153 155.414 334.151 155.833Z" fill="#6BD2FE"/>
<path d="M274.448 135.944C274.45 137.008 274.137 138.048 273.548 138.933C272.959 139.818 272.121 140.509 271.139 140.917C270.158 141.326 269.077 141.434 268.034 141.228C266.991 141.022 266.032 140.511 265.279 139.76C264.527 139.009 264.014 138.052 263.805 137.009C263.597 135.967 263.703 134.886 264.109 133.903C264.515 132.921 265.204 132.081 266.088 131.49C266.972 130.899 268.011 130.583 269.074 130.583C270.497 130.583 271.862 131.148 272.87 132.153C273.877 133.158 274.445 134.521 274.448 135.944Z" fill="#FE55FE"/>
<path d="M267.958 63.7079C269.173 63.2338 275.252 59.6718 273.428 53.3989C271.605 47.126 264.323 49.7519 262.219 50.7123C260.116 51.6726 260.797 52.013 256.141 53.1436C251.485 54.2742 250.209 53.5813 243.814 54.8577C240.439 55.6113 236.987 55.9623 233.529 55.9032C239.158 51.855 242.574 44.3421 241.346 40.8531C240.118 37.3641 233.858 37.9962 231.451 40.2695C229.043 42.5429 223.257 47.5636 220.509 48.1958C217.533 49.0499 214.607 50.0686 211.744 51.2472C211.592 50.2552 211.136 49.3348 210.439 48.6122C209.743 47.8895 208.84 47.4001 207.854 47.2111C204.438 46.5911 201.533 49.0103 200.378 50.8581C199.223 52.706 194.688 54.2985 194.688 54.2985C192.488 56.4624 191.6 58.0428 187.771 59.4895C185.85 60.2189 182.908 60.2067 179.261 61.6291C168.32 65.8961 170.922 69.5553 167.506 71.5977C164.09 73.64 158.741 77.2506 158.741 77.2506C146.17 94.8537 126.683 112.7 111.414 125.379C128.324 136.941 142.779 162.263 145.088 185.896C145.234 187.355 145.307 188.765 145.356 190.139C158.984 185.191 171.505 186.103 180.671 183.586C193.667 180.024 211.684 162.555 211.684 162.555C219.853 160.537 220.801 159.881 225.056 157.571C229.311 155.261 248.154 150.277 253.296 149.839C258.439 149.401 263.97 148.319 265.781 145.11C268.541 140.247 265.234 134.461 265.234 134.461C265.234 134.461 266.839 134.752 269.623 132.175C272.407 129.598 270.121 123.872 264.76 115.326C259.399 106.78 257.187 91.0121 252.944 88.0216C248.701 85.031 236.155 77.1777 236.155 77.1777C243.328 75.8283 255.169 70.2726 258.67 68.984C262.171 67.6953 266.742 64.1577 267.958 63.7079ZM238.781 107.132C239.839 113.211 245.212 119.556 246.403 120.918C247.57 122.558 248.587 124.299 249.443 126.121C247.764 126.165 246.093 126.352 244.446 126.68C234.806 129.221 230.66 128.54 226.442 127.616C222.224 126.692 214.164 118.997 217.203 115.046C220.242 111.095 220.959 101.674 220.959 101.674C221.968 102.598 227.427 101.674 227.427 101.674C228.898 104.895 238.745 107.096 238.745 107.096L238.781 107.132Z" fill="url(#paint2_radial_214_1923)"/>
<path d="M180.231 179.113C188.073 176.342 205.044 163.808 211.705 162.58C211.705 162.58 193.689 180.049 180.693 183.611C173.752 185.52 164.89 185.459 155.055 187.465L159.066 181.18C159.066 181.18 172.39 181.885 180.231 179.113Z" fill="#4B95FA"/>
<path d="M228.969 103.351C228.31 102.938 227.767 102.365 227.389 101.686L226.574 101.807C231.631 100.275 234.452 94.2334 234.452 94.2334C234.78 98.8165 228.981 103.339 228.969 103.351Z" fill="#67E2E8"/>
<path d="M220.921 101.661C220.921 101.661 220.812 102.962 220.544 104.798C219.17 99.7771 220.97 92.9814 220.97 92.9814C220.605 96.045 222.416 102.038 222.416 102.05C221.89 102.077 221.368 101.941 220.921 101.661Z" fill="#67E2E8"/>
<path d="M239.205 108.968C239.011 108.355 238.857 107.729 238.743 107.096C238.743 107.096 237.892 106.902 236.652 106.561C236.652 106.561 244.907 106.44 250.73 101.613C250.73 101.613 247.302 106.488 239.205 108.968Z" fill="#67E2E8"/>
<g opacity="0.52">
<path d="M247.946 126.122C247.245 126.295 246.528 126.393 245.807 126.414C246.463 126.317 247.253 126.195 247.946 126.122Z" fill="#E28C61"/>
</g>
<path d="M247.387 122.341C247.387 122.341 263.13 127.605 265.282 134.498C263.477 132.084 261.182 130.078 258.549 128.612C255.916 127.146 253.003 126.251 250 125.988H249.356C249.125 125.538 248.262 123.787 247.387 122.341Z" fill="#67E2E8"/>
<path d="M240.653 76.0476C240.653 76.0476 216.059 66.6139 213.227 65.7507L236.203 77.2025L240.653 76.0476Z" fill="#67E2E8"/>
<path d="M238.428 50.9072C237.1 52.8421 235.456 54.5394 233.565 55.928C235.16 55.9708 236.757 55.9018 238.343 55.7213L228.885 56.937C232.659 56.0713 236.025 53.9443 238.428 50.9072Z" fill="#67E2E8"/>
<path d="M210.432 52.1595C211.854 51.4666 211.137 49.7281 210.954 49.2783C211.349 49.8845 211.621 50.5617 211.757 51.272C211.757 51.272 213.033 50.7493 214.674 50.1415C213.386 50.6156 210.432 52.1595 210.432 52.1595Z" fill="#67E2E8"/>
<path d="M265.283 134.485C265.283 134.485 257.235 124.2 243.777 126.814C246.34 126.091 248.959 125.587 251.606 125.307C252.737 125.307 256.153 126.936 258.9 128.565C260.329 129.425 261.69 130.392 262.973 131.458L265.283 134.485Z" fill="#67E2E8"/>
<path d="M150.522 134.291C150.522 134.291 172.003 158.301 164.551 181.933L155.166 181.848L150.522 134.291Z" fill="#4B95FA"/>
<path d="M127.594 111.825C120.3 108.518 113.954 108.883 109.2 112.153L98.709 119.629C100.887 120.09 103.007 120.791 105.031 121.72C124.567 130.595 142.51 159.321 145.148 185.896C145.843 191.878 145.477 197.936 144.066 203.791L154.715 196.169C160.976 191.561 164.307 181.739 163.006 168.451C160.672 145.025 144.832 119.629 127.594 111.825Z" fill="white"/>
<g style="mix-blend-mode:lighten">
<path d="M15.8374 172.245L15.959 172.148L84.1953 122.061C89.5807 118.414 96.7776 117.952 105.02 121.697C124.556 130.571 142.499 159.298 145.137 185.873C146.608 200.923 142.84 212.046 135.74 217.261L68.2698 266.788L68.0996 266.91L67.5039 267.335C62.1306 270.983 54.9824 271.311 46.8373 267.603C27.3013 258.728 9.35783 230.002 6.7198 203.427C5.24882 188.571 8.92019 177.521 15.8374 172.245Z" fill="url(#paint3_linear_214_1923)"/>
</g>
<path d="M449.446 218.355C449.008 217.663 448.583 216.933 448.23 216.143C448.23 216.143 425.679 176.123 424.439 170.202C424.018 168.108 423.044 166.165 421.618 164.574C420.192 162.984 418.367 161.804 416.33 161.158C414.26 159.454 411.711 158.434 409.036 158.24C409.036 158.24 405.158 152.709 391.251 153.791C377.344 154.873 377.647 154.094 377.647 154.094C377.647 154.094 357.893 128.395 353.054 127.155C348.216 125.915 346.781 127.386 341.031 127.009C335.281 126.632 328.23 125.623 323.246 127.568C318.261 129.513 316.705 129.465 316.705 129.465C316.705 129.465 308.609 130.255 310.821 136.175C313.034 142.096 319.708 142.935 320.985 142.667C322.261 142.4 327.124 141.342 328.279 141.719C329.433 142.096 334.953 146.788 342.563 146.071C342.563 146.071 344.824 153.45 349.225 157.924C349.225 157.924 345.043 159.808 345.383 167.114C345.724 174.421 352.592 196.291 353.699 197.336C354.805 198.382 355.315 199.597 361.686 201.202C361.686 201.202 360.932 205.664 352.191 207.451C345.055 207.471 337.938 206.717 330.965 205.202C329.321 203.637 327.254 202.589 325.021 202.187C320.936 201.275 311.952 198.905 306.056 202.722C300.16 206.539 299.977 210.247 304.415 213.493C307.49 215.51 311.108 216.541 314.785 216.447C314.785 216.447 318.808 222.148 321.361 223.875C323.914 225.601 341.384 228.604 352.969 235.728C352.969 235.728 354.61 237.041 362.147 239.995C369.685 242.949 375.678 249.623 375.678 249.623C375.678 249.623 388.698 259.774 402.423 263.542C404.623 264.138 406.702 264.843 408.647 265.573C415.978 245.356 432.657 226.294 449.446 218.355Z" fill="url(#paint4_radial_214_1923)"/>
<path d="M364.738 194.053L364.677 190.722L362.161 181.629L359.012 172.621L356.909 167.32L353.408 162.822L348.788 158.13C347.791 158.774 345.019 161.108 345.299 167.114C345.627 174.408 352.508 196.29 353.614 197.336C354.721 198.381 355.231 199.548 361.273 201.116L361.674 200.654L363.644 197.64L364.738 194.053Z" fill="#67E2E8"/>
<path d="M349.14 157.924C349.14 157.924 355.668 164.075 357.395 167.747C359.121 171.418 364.47 186.699 364.579 188.413C364.689 190.127 367.157 194.637 361.601 201.153L360.774 200.935C360.774 200.935 365.151 196.169 364.239 191.209C362.926 184.122 357.395 168.877 356.422 167.114C355.45 165.352 348.666 158.118 348.666 158.118L349.14 157.924Z" fill="#42D3D3"/>
<path d="M360.676 177.982C360.676 177.982 352.337 172.062 350.793 171.32C350.793 171.32 358.975 177.131 358.926 178.505C358.889 178.922 358.746 179.322 358.51 179.667C358.273 180.012 357.952 180.29 357.576 180.474C357.576 180.474 360.567 179.052 361.515 180.195C362.464 181.338 360.676 177.982 360.676 177.982Z" fill="#42D3D3"/>
<path d="M363.412 186.492C363.412 186.492 355.863 190.443 354.793 192.473C354.793 192.473 361.576 188.559 363.74 189.045L363.412 186.492Z" fill="#42D3D3"/>
<path d="M342.854 147.104C342.337 144.95 341.988 142.76 341.809 140.552L341.894 146.107L342.392 146.326L342.854 147.104Z" fill="#67E2E8"/>
<path d="M397.914 256.783C397.914 256.783 380.895 251.324 373.515 244.529C366.136 237.733 359.292 238.523 353.578 236.177C356.317 237.658 359.161 238.933 362.088 239.994C369.625 242.96 375.752 249.622 375.752 249.622C375.752 249.622 387.775 258.995 400.929 263.068L397.914 256.783Z" fill="#4B95FA"/>
<path d="M438.019 201.664C445.617 199.852 451.634 201.372 455.585 205.396L464.229 214.538C462.053 214.581 459.888 214.863 457.774 215.376C437.411 220.239 414.872 244.419 407.444 269.401C405.666 275.004 404.884 280.876 405.135 286.749L396.345 277.449C391.203 271.869 389.841 261.84 393.549 249.355C400.15 227.302 420.039 205.943 438.019 201.664Z" fill="white"/>
<g style="mix-blend-mode:lighten">
<path d="M533.803 280.319L533.693 280.21L477.711 219.62C473.238 215.061 466.418 213.335 457.823 215.39C437.46 220.252 414.921 244.432 407.493 269.415C403.275 283.553 404.819 294.944 410.654 301.229L466.089 361.235L466.235 361.381L466.722 361.904C471.195 366.365 477.979 368.043 486.489 366.001C506.863 361.138 529.39 336.958 536.83 311.988C541.012 297.947 539.492 286.677 533.803 280.319Z" fill="url(#paint5_linear_214_1923)"/>
</g>
<path opacity="0.4" d="M521.17 260.345C521.352 259.761 521.535 259.129 521.693 258.594C523.759 251.13 523.65 244.663 521.693 239.581L529.242 247.349C531.163 252.431 531.272 258.898 529.242 266.363C529.072 266.946 528.902 267.578 528.719 268.113L521.17 260.345Z" fill="#4B95FA"/>
<path opacity="0.2" d="M501.621 290.336C508.355 283.923 513.92 276.386 518.069 268.064L525.619 275.833C521.461 284.149 515.897 291.684 509.17 298.104L501.621 290.336Z" fill="#4B95FA"/>
<path opacity="0.05" d="M471.012 308.899C479.683 306.285 487.766 302.017 494.815 296.329L502.352 304.109C495.321 309.786 487.259 314.05 478.61 316.667L471.06 308.899H471.012Z" fill="#4B95FA"/>
<g style="mix-blend-mode:lighten" opacity="0.15">
<path d="M544.001 227.206C516.806 202.661 461.468 232.409 435.246 274.022L423.551 261.986C456.739 211.523 511.08 194.091 532.306 215.231L544.001 227.266V227.206Z" fill="url(#paint6_linear_214_1923)"/>
</g>
<g style="mix-blend-mode:lighten" opacity="0.3">
<path d="M549.935 267.456C530.885 324.046 460.886 365.318 431.041 337.552L419.285 325.578C449.933 352.918 519.932 311.646 538.179 255.481L549.935 267.456Z" fill="url(#paint7_linear_214_1923)"/>
</g>
<g style="mix-blend-mode:lighten" opacity="0.15">
<path d="M431.04 337.553C407.152 309.787 438.176 255.167 480.336 229.917L468.569 217.942C417.34 249.939 398.655 303.879 419.285 325.579L431.04 337.553Z" fill="url(#paint8_linear_214_1923)"/>
</g>
<g opacity="0.2">
<path d="M525.328 241.076C521.96 237.611 517.146 235.557 511.213 235.241L503.664 227.473C509.609 227.789 514.423 229.843 517.778 233.308L525.328 241.076Z" fill="#81DAFE"/>
</g>
<g style="mix-blend-mode:lighten">
<path d="M103.012 261.147C131.969 238.718 112.458 178.991 76.1816 145.852L90.0891 136.467C133.854 178.031 141.476 234.609 116.931 251.762L103.012 261.147Z" fill="url(#paint9_linear_214_1923)"/>
</g>
<path opacity="0.4" d="M30.0843 167.527C30.0843 166.919 29.9749 166.312 29.9263 165.704C29.3914 157.972 30.7894 151.663 33.6827 147.067L24.7475 153.146C21.8541 157.729 20.4439 164.087 20.991 171.782C20.991 172.378 21.0761 172.998 21.1491 173.594L30.0843 167.515V167.527Z" fill="#4B95FA"/>
<path opacity="0.2" d="M43.2606 200.813C37.9527 193.18 34.0044 184.687 31.59 175.709L22.6426 181.787C25.0621 190.767 29.0099 199.263 34.3131 206.903L43.2606 200.825V200.813Z" fill="#4B95FA"/>
<path opacity="0.05" d="M69.5694 225.103C61.6078 220.827 54.552 215.047 48.7934 208.083L39.8459 214.161C45.6046 221.126 52.6604 226.906 60.622 231.181L69.5694 225.103Z" fill="#4B95FA"/>
<g style="mix-blend-mode:lighten" opacity="0.15">
<path d="M14.3281 130.498C45.8751 111.873 94.162 152.052 111.583 198.004L125.442 188.534C102.976 132.467 53.1935 104.555 28.1869 121.027L14.3281 130.498Z" fill="url(#paint10_linear_214_1923)"/>
</g>
<g style="mix-blend-mode:lighten" opacity="0.3">
<path d="M0.494141 168.755C7.87333 228.008 68.232 282.409 103.013 261.147L116.932 251.762C81.4465 272.429 21.0756 218.039 14.4016 159.37L0.494141 168.755Z" fill="url(#paint11_linear_214_1923)"/>
</g>
<g style="mix-blend-mode:lighten" opacity="0.15">
<path d="M103.012 261.147C131.969 238.718 112.458 178.991 76.1816 145.852L90.0891 136.467C133.854 178.031 141.476 234.609 116.931 251.762L103.012 261.147Z" fill="url(#paint12_linear_214_1923)"/>
</g>
<g opacity="0.2">
<path d="M29.8535 147.809C33.841 145.086 38.9711 144.041 44.855 144.916L53.8025 138.838C47.9186 137.962 42.7884 139.02 38.8009 141.743L29.8535 147.821V147.809Z" fill="#81DAFE"/>
</g>
<defs>
<radialGradient id="paint0_radial_214_1923" cx="0" cy="0" r="1" gradientUnits="userSpaceOnUse" gradientTransform="translate(269.075 136.471) scale(96.1362)">
<stop stop-color="#FC2FFD"/>
<stop offset="0.28" stop-color="#BE22C6"/>
<stop offset="0.78" stop-color="#560B69"/>
<stop offset="1" stop-color="#2D0244" stop-opacity="0"/>
</radialGradient>
<radialGradient id="paint1_radial_214_1923" cx="0" cy="0" r="1" gradientUnits="userSpaceOnUse" gradientTransform="translate(273.512 395.832) scale(370.382 370.382)">
<stop stop-color="#FE4DFE"/>
<stop offset="0.22" stop-color="#3874DA"/>
<stop offset="0.26" stop-color="#3C7CDF"/>
<stop offset="0.44" stop-color="#53A5F8"/>
<stop offset="0.5" stop-color="#4C88D7"/>
<stop offset="0.58" stop-color="#435FAB"/>
<stop offset="0.67" stop-color="#3B3D86"/>
<stop offset="0.75" stop-color="#352369"/>
<stop offset="0.84" stop-color="#301154"/>
<stop offset="0.92" stop-color="#2E0648" stop-opacity="0"/>
<stop offset="1" stop-color="#2D0244" stop-opacity="0"/>
</radialGradient>
<radialGradient id="paint2_radial_214_1923" cx="0" cy="0" r="1" gradientUnits="userSpaceOnUse" gradientTransform="translate(240.617 91.8023) scale(119.003)">
<stop stop-color="#9CF5FE"/>
<stop offset="0.25" stop-color="#99F2FE"/>
<stop offset="0.44" stop-color="#8FE9FD"/>
<stop offset="0.61" stop-color="#7FD9FD"/>
<stop offset="0.76" stop-color="#69C3FC"/>
<stop offset="0.91" stop-color="#4BA6FA"/>
<stop offset="0.94" stop-color="#449FFA"/>
</radialGradient>
<linearGradient id="paint3_linear_214_1923" x1="163.008" y1="127.532" x2="48.0042" y2="214.676" gradientUnits="userSpaceOnUse">
<stop stop-color="#3874DA"/>
<stop offset="0.807848" stop-color="#2A023F"/>
<stop offset="1" stop-color="#2A023F" stop-opacity="0"/>
</linearGradient>
<radialGradient id="paint4_radial_214_1923" cx="0" cy="0" r="1" gradientUnits="userSpaceOnUse" gradientTransform="translate(325.495 136.832) scale(165.15 165.15)">
<stop stop-color="#9CF5FE"/>
<stop offset="0.36" stop-color="#9AF3FE"/>
<stop offset="0.49" stop-color="#93EDFE"/>
<stop offset="0.59" stop-color="#88E1FD"/>
<stop offset="0.66" stop-color="#77D0FC"/>
<stop offset="0.73" stop-color="#61BBFB"/>
<stop offset="0.78" stop-color="#46A1FA"/>
<stop offset="0.79" stop-color="#449FFA"/>
</radialGradient>
<linearGradient id="paint5_linear_214_1923" x1="401.135" y1="210.122" x2="471.747" y2="290.287" gradientUnits="userSpaceOnUse">
<stop stop-color="#3874DA"/>
<stop offset="0.767213" stop-color="#2A023F"/>
<stop offset="1" stop-color="#2A023F" stop-opacity="0"/>
</linearGradient>
<linearGradient id="paint6_linear_214_1923" x1="510.564" y1="191.592" x2="430.991" y2="268.955" gradientUnits="userSpaceOnUse">
<stop stop-color="#2A023F"/>
<stop offset="0.1" stop-color="#2C0845"/>
<stop offset="0.24" stop-color="#321A54"/>
<stop offset="0.41" stop-color="#3D366E"/>
<stop offset="0.59" stop-color="#4B5E91"/>
<stop offset="0.78" stop-color="#5D91BF"/>
<stop offset="0.98" stop-color="#73CFF6"/>
<stop offset="1" stop-color="#76D6FD"/>
</linearGradient>
<linearGradient id="paint7_linear_214_1923" x1="440.047" y1="332.297" x2="536.582" y2="238.442" gradientUnits="userSpaceOnUse">
<stop stop-color="#2A023F"/>
<stop offset="0.13" stop-color="#2B0745"/>
<stop offset="0.3" stop-color="#2C1357"/>
<stop offset="0.5" stop-color="#2F2873"/>
<stop offset="0.72" stop-color="#32469B"/>
<stop offset="0.95" stop-color="#376BCD"/>
<stop offset="1" stop-color="#3874DA"/>
</linearGradient>
<linearGradient id="paint8_linear_214_1923" x1="408.007" y1="299.343" x2="487.588" y2="221.972" gradientUnits="userSpaceOnUse">
<stop stop-color="#2A023F"/>
<stop offset="0.13" stop-color="#2B0745"/>
<stop offset="0.3" stop-color="#2C1357"/>
<stop offset="0.5" stop-color="#2F2873"/>
<stop offset="0.72" stop-color="#32469B"/>
<stop offset="0.95" stop-color="#376BCD"/>
<stop offset="1" stop-color="#3874DA"/>
</linearGradient>
<linearGradient id="paint9_linear_214_1923" x1="128.863" y1="243.517" x2="66.791" y2="152.077" gradientUnits="userSpaceOnUse">
<stop stop-color="#2A023F"/>
<stop offset="0.06" stop-color="#2D0844"/>
<stop offset="0.14" stop-color="#341A53"/>
<stop offset="0.23" stop-color="#41366B"/>
<stop offset="0.32" stop-color="#525E8D"/>
<stop offset="0.43" stop-color="#6991B9"/>
<stop offset="0.54" stop-color="#84CFED"/>
<stop offset="0.57" stop-color="#8CE2FE"/>
</linearGradient>
<linearGradient id="paint10_linear_214_1923" x1="44.3802" y1="116.813" x2="106.27" y2="208.542" gradientUnits="userSpaceOnUse">
<stop stop-color="#2A023F"/>
<stop offset="0.1" stop-color="#2C0845"/>
<stop offset="0.24" stop-color="#321A54"/>
<stop offset="0.41" stop-color="#3D366E"/>
<stop offset="0.59" stop-color="#4B5E91"/>
<stop offset="0.78" stop-color="#5D91BF"/>
<stop offset="0.98" stop-color="#73CFF6"/>
<stop offset="1" stop-color="#76D6FD"/>
</linearGradient>
<linearGradient id="paint11_linear_214_1923" x1="91.0049" y1="269.217" x2="15.707" y2="158.295" gradientUnits="userSpaceOnUse">
<stop stop-color="#2A023F"/>
<stop offset="0.13" stop-color="#2B0745"/>
<stop offset="0.3" stop-color="#2C1357"/>
<stop offset="0.5" stop-color="#2F2873"/>
<stop offset="0.72" stop-color="#32469B"/>
<stop offset="0.95" stop-color="#376BCD"/>
<stop offset="1" stop-color="#3874DA"/>
</linearGradient>
<linearGradient id="paint12_linear_214_1923" x1="128.863" y1="243.517" x2="66.791" y2="152.077" gradientUnits="userSpaceOnUse">
<stop stop-color="#2A023F"/>
<stop offset="0.13" stop-color="#2B0745"/>
<stop offset="0.3" stop-color="#2C1357"/>
<stop offset="0.5" stop-color="#2F2873"/>
<stop offset="0.72" stop-color="#32469B"/>
<stop offset="0.95" stop-color="#376BCD"/>
<stop offset="1" stop-color="#3874DA"/>
</linearGradient>
</defs>
</svg>
