<svg width="443" height="392" viewBox="0 0 443 392" fill="none" xmlns="http://www.w3.org/2000/svg">
<g opacity="0.7">
<path style="mix-blend-mode:screen" d="M435.633 44.4502H203.633C199.767 44.4502 196.633 47.5842 196.633 51.4502V384.45C196.633 388.316 199.767 391.45 203.633 391.45H435.633C439.499 391.45 442.633 388.316 442.633 384.45V51.4502C442.633 47.5842 439.499 44.4502 435.633 44.4502Z" fill="url(#paint0_linear_1_110)"/>
<g style="mix-blend-mode:overlay">
<path d="M402.718 66.7128H236.535C232.669 66.7128 229.535 69.8468 229.535 73.7128V84.7543C229.535 88.6203 232.669 91.7543 236.535 91.7543H402.718C406.584 91.7543 409.718 88.6203 409.718 84.7543V73.7128C409.718 69.8468 406.584 66.7128 402.718 66.7128Z" fill="#01FFFF"/>
</g>
<g style="mix-blend-mode:overlay">
<path d="M403.458 356.667H235.796C232.338 356.667 229.535 359.47 229.535 362.927C229.535 366.385 232.338 369.188 235.796 369.188H403.458C406.915 369.188 409.718 366.385 409.718 362.927C409.718 359.47 406.915 356.667 403.458 356.667Z" fill="#01FFFF"/>
</g>
<g style="mix-blend-mode:overlay">
<path d="M272.659 116.812H236.535C232.669 116.812 229.535 119.946 229.535 123.812V137.246C229.535 141.112 232.669 144.246 236.535 144.246H272.659C276.525 144.246 279.659 141.112 279.659 137.246V123.812C279.659 119.946 276.525 116.812 272.659 116.812Z" fill="#01FFFF"/>
</g>
<g style="mix-blend-mode:overlay">
<path d="M337.085 116.812H300.961C297.095 116.812 293.961 119.946 293.961 123.812V137.246C293.961 141.112 297.095 144.246 300.961 144.246H337.085C340.951 144.246 344.085 141.112 344.085 137.246V123.812C344.085 119.946 340.951 116.812 337.085 116.812Z" fill="#01FFFF"/>
</g>
<g style="mix-blend-mode:overlay">
<path d="M401.512 116.812H365.389C361.523 116.812 358.389 119.946 358.389 123.812V137.246C358.389 141.112 361.523 144.246 365.389 144.246H401.512C405.378 144.246 408.512 141.112 408.512 137.246V123.812C408.512 119.946 405.378 116.812 401.512 116.812Z" fill="#01FFFF"/>
</g>
<g style="mix-blend-mode:overlay">
<path d="M405.286 158.496H232.762C230.98 158.496 229.535 159.94 229.535 161.722C229.535 163.504 230.98 164.949 232.762 164.949H405.286C407.068 164.949 408.513 163.504 408.513 161.722C408.513 159.94 407.068 158.496 405.286 158.496Z" fill="#01FFFF"/>
</g>
<g style="mix-blend-mode:overlay">
<path d="M386.673 172.869H232.762C230.98 172.869 229.535 174.314 229.535 176.096C229.535 177.878 230.98 179.323 232.762 179.323H386.674C388.456 179.323 389.9 177.878 389.9 176.096C389.9 174.314 388.456 172.869 386.673 172.869Z" fill="#01FFFF"/>
</g>
<g style="mix-blend-mode:overlay">
<path d="M308.484 187.243H232.762C230.98 187.243 229.535 188.687 229.535 190.469C229.535 192.251 230.98 193.696 232.762 193.696H308.484C310.266 193.696 311.71 192.251 311.71 190.469C311.71 188.687 310.266 187.243 308.484 187.243Z" fill="#01FFFF"/>
</g>
<g style="mix-blend-mode:overlay">
<path d="M361.697 201.616H232.762C230.98 201.616 229.535 203.061 229.535 204.843C229.535 206.625 230.98 208.069 232.762 208.069H361.697C363.479 208.069 364.923 206.625 364.923 204.843C364.923 203.061 363.479 201.616 361.697 201.616Z" fill="#01FFFF"/>
</g>
<g style="mix-blend-mode:overlay">
<path d="M333.182 215.989H232.762C230.98 215.989 229.535 217.434 229.535 219.216C229.535 220.998 230.98 222.443 232.762 222.443H333.182C334.965 222.443 336.409 220.998 336.409 219.216C336.409 217.434 334.965 215.989 333.182 215.989Z" fill="#01FFFF"/>
</g>
<g style="mix-blend-mode:overlay">
<path d="M379.244 230.378H232.762C230.98 230.378 229.535 231.823 229.535 233.605C229.535 235.387 230.98 236.832 232.762 236.832H379.244C381.026 236.832 382.47 235.387 382.47 233.605C382.47 231.823 381.026 230.378 379.244 230.378Z" fill="#01FFFF"/>
</g>
<g style="mix-blend-mode:overlay">
<path d="M397.671 244.752H232.762C230.98 244.752 229.535 246.197 229.535 247.979C229.535 249.761 230.98 251.205 232.762 251.205H397.671C399.453 251.205 400.898 249.761 400.898 247.979C400.898 246.197 399.453 244.752 397.671 244.752Z" fill="#01FFFF"/>
</g>
<g style="mix-blend-mode:overlay">
<path d="M308.484 259.125H232.762C230.98 259.125 229.535 260.57 229.535 262.352C229.535 264.134 230.98 265.578 232.762 265.578H308.484C310.266 265.578 311.71 264.134 311.71 262.352C311.71 260.57 310.266 259.125 308.484 259.125Z" fill="#01FFFF"/>
</g>
<g style="mix-blend-mode:overlay">
<path d="M234.802 283.278V283.188C234.802 281.733 233.623 280.554 232.169 280.554C230.714 280.554 229.535 281.733 229.535 283.188V283.278C229.535 284.732 230.714 285.911 232.169 285.911C233.623 285.911 234.802 284.732 234.802 283.278Z" fill="#01FFFF"/>
</g>
<g style="mix-blend-mode:overlay">
<path d="M284.917 280.554H241.417C239.938 280.554 238.738 281.753 238.738 283.233C238.738 284.712 239.938 285.911 241.417 285.911H284.917C286.396 285.911 287.595 284.712 287.595 283.233C287.595 281.753 286.396 280.554 284.917 280.554Z" fill="#01FFFF"/>
</g>
<g style="mix-blend-mode:overlay">
<path d="M308.614 280.554H293.628C292.149 280.554 290.949 281.753 290.949 283.233C290.949 284.712 292.149 285.911 293.628 285.911H308.614C310.093 285.911 311.292 284.712 311.292 283.233C311.292 281.753 310.093 280.554 308.614 280.554Z" fill="#01FFFF"/>
</g>
<g style="mix-blend-mode:overlay">
<path d="M262.013 288.505H232.214C230.734 288.505 229.535 289.704 229.535 291.183C229.535 292.663 230.734 293.862 232.214 293.862H262.013C263.492 293.862 264.691 292.663 264.691 291.183C264.691 289.704 263.492 288.505 262.013 288.505Z" fill="#01FFFF"/>
</g>
<g style="mix-blend-mode:overlay">
<path d="M271.739 293.862H292.425C293.904 293.862 295.103 292.663 295.103 291.184C295.103 289.704 293.904 288.505 292.425 288.505H271.739C270.26 288.505 269.061 289.704 269.061 291.184C269.061 292.663 270.26 293.862 271.739 293.862Z" fill="#01FFFF"/>
</g>
<g style="mix-blend-mode:overlay">
<path d="M240.573 296.456H232.214C230.734 296.456 229.535 297.655 229.535 299.135C229.535 300.614 230.734 301.813 232.214 301.813H240.573C242.052 301.813 243.252 300.614 243.252 299.135C243.252 297.655 242.052 296.456 240.573 296.456Z" fill="#01FFFF"/>
</g>
<g style="mix-blend-mode:overlay">
<path d="M271.804 296.456H249.79C248.311 296.456 247.111 297.655 247.111 299.135C247.111 300.614 248.311 301.813 249.79 301.813H271.804C273.283 301.813 274.482 300.614 274.482 299.135C274.482 297.655 273.283 296.456 271.804 296.456Z" fill="#01FFFF"/>
</g>
<g style="mix-blend-mode:overlay">
<path d="M281.363 301.813H286.864C288.344 301.813 289.543 300.614 289.543 299.134C289.543 297.655 288.344 296.456 286.864 296.456H281.363C279.883 296.456 278.684 297.655 278.684 299.134C278.684 300.614 279.883 301.813 281.363 301.813Z" fill="#01FFFF"/>
</g>
<g style="mix-blend-mode:overlay">
<path d="M234.802 307.13V307.04C234.802 305.586 233.623 304.407 232.169 304.407C230.714 304.407 229.535 305.586 229.535 307.04V307.13C229.535 308.585 230.714 309.764 232.169 309.764C233.623 309.764 234.802 308.585 234.802 307.13Z" fill="#01FFFF"/>
</g>
<g style="mix-blend-mode:overlay">
<path d="M266.937 304.407H241.417C239.938 304.407 238.738 305.606 238.738 307.085C238.738 308.565 239.938 309.764 241.417 309.764H266.937C268.416 309.764 269.616 308.565 269.616 307.085C269.616 305.606 268.416 304.407 266.937 304.407Z" fill="#01FFFF"/>
</g>
<g style="mix-blend-mode:overlay">
<path d="M276.73 309.749H304.722C306.201 309.749 307.4 308.549 307.4 307.07C307.4 305.591 306.201 304.391 304.722 304.391H276.73C275.251 304.391 274.052 305.591 274.052 307.07C274.052 308.549 275.251 309.749 276.73 309.749Z" fill="#01FFFF"/>
</g>
<g style="mix-blend-mode:overlay">
<path d="M251.185 312.357H232.214C230.734 312.357 229.535 313.557 229.535 315.036C229.535 316.515 230.734 317.715 232.214 317.715H251.185C252.664 317.715 253.863 316.515 253.863 315.036C253.863 313.557 252.664 312.357 251.185 312.357Z" fill="#01FFFF"/>
</g>
<g style="mix-blend-mode:overlay">
<path d="M264.001 312.357H259.581C258.102 312.357 256.902 313.557 256.902 315.036C256.902 316.515 258.102 317.715 259.581 317.715H264.001C265.481 317.715 266.68 316.515 266.68 315.036C266.68 313.557 265.481 312.357 264.001 312.357Z" fill="#01FFFF"/>
</g>
<g style="mix-blend-mode:overlay">
<path d="M285.752 312.357H272.28C270.801 312.357 269.602 313.557 269.602 315.036C269.602 316.515 270.801 317.715 272.28 317.715H285.752C287.232 317.715 288.431 316.515 288.431 315.036C288.431 313.557 287.232 312.357 285.752 312.357Z" fill="#01FFFF"/>
</g>
<g style="mix-blend-mode:overlay">
<path d="M259.649 320.309H232.214C230.734 320.309 229.535 321.508 229.535 322.987C229.535 324.467 230.734 325.666 232.214 325.666H259.649C261.129 325.666 262.328 324.467 262.328 322.987C262.328 321.508 261.129 320.309 259.649 320.309Z" fill="#01FFFF"/>
</g>
<g style="mix-blend-mode:overlay">
<path d="M295.81 320.309H268.374C266.895 320.309 265.695 321.508 265.695 322.987C265.695 324.467 266.895 325.666 268.374 325.666H295.81C297.289 325.666 298.488 324.467 298.488 322.987C298.488 321.508 297.289 320.309 295.81 320.309Z" fill="#01FFFF"/>
</g>
<g style="mix-blend-mode:overlay">
<path d="M236.063 328.244H232.214C230.734 328.244 229.535 329.443 229.535 330.923C229.535 332.402 230.734 333.601 232.214 333.601H236.063C237.542 333.601 238.741 332.402 238.741 330.923C238.741 329.443 237.542 328.244 236.063 328.244Z" fill="#01FFFF"/>
</g>
<g style="mix-blend-mode:overlay">
<path d="M258.133 328.244H244.013C242.533 328.244 241.334 329.443 241.334 330.923C241.334 332.402 242.533 333.601 244.013 333.601H258.133C259.613 333.601 260.812 332.402 260.812 330.923C260.812 329.443 259.613 328.244 258.133 328.244Z" fill="#01FFFF"/>
</g>
<g style="mix-blend-mode:overlay">
<path d="M263.176 330.923C263.176 332.402 264.376 333.601 265.856 333.601C267.335 333.601 268.536 332.402 268.536 330.923C268.536 329.443 267.335 328.244 265.856 328.244C264.376 328.244 263.176 329.443 263.176 330.923Z" fill="#01FFFF"/>
</g>
<g style="mix-blend-mode:overlay">
<path d="M329.318 283.278V283.188C329.318 281.733 328.139 280.554 326.684 280.554C325.23 280.554 324.051 281.733 324.051 283.188V283.278C324.051 284.732 325.23 285.911 326.684 285.911C328.139 285.911 329.318 284.732 329.318 283.278Z" fill="#01FFFF"/>
</g>
<g style="mix-blend-mode:overlay">
<path d="M379.434 280.554H335.934C334.455 280.554 333.256 281.753 333.256 283.233C333.256 284.712 334.455 285.911 335.934 285.911H379.434C380.914 285.911 382.113 284.712 382.113 283.233C382.113 281.753 380.914 280.554 379.434 280.554Z" fill="#01FFFF"/>
</g>
<g style="mix-blend-mode:overlay">
<path d="M403.131 280.554H388.145C386.666 280.554 385.467 281.753 385.467 283.233C385.467 284.712 386.666 285.911 388.145 285.911H403.131C404.611 285.911 405.81 284.712 405.81 283.233C405.81 281.753 404.611 280.554 403.131 280.554Z" fill="#01FFFF"/>
</g>
<g style="mix-blend-mode:overlay">
<path d="M356.528 288.505H326.729C325.25 288.505 324.051 289.704 324.051 291.183C324.051 292.663 325.25 293.862 326.729 293.862H356.528C358.008 293.862 359.207 292.663 359.207 291.183C359.207 289.704 358.008 288.505 356.528 288.505Z" fill="#01FFFF"/>
</g>
<g style="mix-blend-mode:overlay">
<path d="M366.257 293.862H386.942C388.422 293.862 389.621 292.663 389.621 291.184C389.621 289.704 388.422 288.505 386.942 288.505H366.257C364.778 288.505 363.578 289.704 363.578 291.184C363.578 292.663 364.778 293.862 366.257 293.862Z" fill="#01FFFF"/>
</g>
<g style="mix-blend-mode:overlay">
<path d="M335.089 296.456H326.729C325.25 296.456 324.051 297.655 324.051 299.135C324.051 300.614 325.25 301.813 326.729 301.813H335.089C336.568 301.813 337.767 300.614 337.767 299.135C337.767 297.655 336.568 296.456 335.089 296.456Z" fill="#01FFFF"/>
</g>
<g style="mix-blend-mode:overlay">
<path d="M366.319 296.456H344.306C342.826 296.456 341.627 297.655 341.627 299.135C341.627 300.614 342.826 301.813 344.306 301.813H366.319C367.799 301.813 368.998 300.614 368.998 299.135C368.998 297.655 367.799 296.456 366.319 296.456Z" fill="#01FFFF"/>
</g>
<g style="mix-blend-mode:overlay">
<path d="M375.863 301.813H381.364C382.844 301.813 384.043 300.614 384.043 299.134C384.043 297.655 382.844 296.456 381.364 296.456H375.863C374.383 296.456 373.184 297.655 373.184 299.134C373.184 300.614 374.383 301.813 375.863 301.813Z" fill="#01FFFF"/>
</g>
<g style="mix-blend-mode:overlay">
<path d="M329.318 307.13V307.04C329.318 305.586 328.139 304.407 326.684 304.407C325.23 304.407 324.051 305.586 324.051 307.04V307.13C324.051 308.585 325.23 309.764 326.684 309.764C328.139 309.764 329.318 308.585 329.318 307.13Z" fill="#01FFFF"/>
</g>
<g style="mix-blend-mode:overlay">
<path d="M361.455 304.407H335.934C334.455 304.407 333.256 305.606 333.256 307.085C333.256 308.565 334.455 309.764 335.934 309.764H361.455C362.934 309.764 364.133 308.565 364.133 307.085C364.133 305.606 362.934 304.407 361.455 304.407Z" fill="#01FFFF"/>
</g>
<g style="mix-blend-mode:overlay">
<path d="M371.261 309.749H399.253C400.732 309.749 401.932 308.549 401.932 307.07C401.932 305.591 400.732 304.391 399.253 304.391H371.261C369.782 304.391 368.583 305.591 368.583 307.07C368.583 308.549 369.782 309.749 371.261 309.749Z" fill="#01FFFF"/>
</g>
<g style="mix-blend-mode:overlay">
<path d="M345.7 312.357H326.729C325.25 312.357 324.051 313.557 324.051 315.036C324.051 316.515 325.25 317.715 326.729 317.715H345.7C347.18 317.715 348.379 316.515 348.379 315.036C348.379 313.557 347.18 312.357 345.7 312.357Z" fill="#01FFFF"/>
</g>
<g style="mix-blend-mode:overlay">
<path d="M358.521 312.357H354.1C352.621 312.357 351.422 313.557 351.422 315.036C351.422 316.515 352.621 317.715 354.1 317.715H358.521C360 317.715 361.199 316.515 361.199 315.036C361.199 313.557 360 312.357 358.521 312.357Z" fill="#01FFFF"/>
</g>
<g style="mix-blend-mode:overlay">
<path d="M380.254 312.357H366.782C365.303 312.357 364.104 313.557 364.104 315.036C364.104 316.515 365.303 317.715 366.782 317.715H380.254C381.733 317.715 382.933 316.515 382.933 315.036C382.933 313.557 381.733 312.357 380.254 312.357Z" fill="#01FFFF"/>
</g>
<g style="mix-blend-mode:overlay">
<path d="M354.165 320.309H326.729C325.25 320.309 324.051 321.508 324.051 322.987C324.051 324.467 325.25 325.666 326.729 325.666H354.165C355.644 325.666 356.844 324.467 356.844 322.987C356.844 321.508 355.644 320.309 354.165 320.309Z" fill="#01FFFF"/>
</g>
<g style="mix-blend-mode:overlay">
<path d="M390.325 320.309H362.89C361.41 320.309 360.211 321.508 360.211 322.987C360.211 324.467 361.41 325.666 362.89 325.666H390.325C391.804 325.666 393.004 324.467 393.004 322.987C393.004 321.508 391.804 320.309 390.325 320.309Z" fill="#01FFFF"/>
</g>
<g style="mix-blend-mode:overlay">
<path d="M330.578 328.244H326.729C325.25 328.244 324.051 329.443 324.051 330.923C324.051 332.402 325.25 333.601 326.729 333.601H330.578C332.058 333.601 333.257 332.402 333.257 330.923C333.257 329.443 332.058 328.244 330.578 328.244Z" fill="#01FFFF"/>
</g>
<g style="mix-blend-mode:overlay">
<path d="M352.635 328.244H338.515C337.035 328.244 335.836 329.443 335.836 330.923C335.836 332.402 337.035 333.601 338.515 333.601H352.635C354.115 333.601 355.314 332.402 355.314 330.923C355.314 329.443 354.115 328.244 352.635 328.244Z" fill="#01FFFF"/>
</g>
<g style="mix-blend-mode:overlay">
<path d="M357.678 330.923C357.678 332.402 358.878 333.601 360.358 333.601C361.837 333.601 363.038 332.402 363.038 330.923C363.038 329.443 361.837 328.244 360.358 328.244C358.878 328.244 357.678 329.443 357.678 330.923Z" fill="#01FFFF"/>
</g>
</g>
<g opacity="0.7">
<path style="mix-blend-mode:screen" d="M173.365 0.703613H9.36523C4.39467 0.703613 0.365234 4.73306 0.365234 9.70362V173.704C0.365234 178.674 4.39468 182.704 9.36524 182.704H173.365C178.336 182.704 182.365 178.674 182.365 173.704V9.70361C182.365 4.73305 178.336 0.703613 173.365 0.703613Z" fill="url(#paint1_linear_1_110)"/>
<path style="mix-blend-mode:color-dodge" d="M136.942 70.7525C136.941 63.0742 135.001 55.5203 131.302 48.7921C127.602 42.0639 122.262 36.3795 115.778 32.2665C109.294 28.1535 101.876 25.7453 94.213 25.2654C86.5496 24.7855 78.8892 26.2494 71.9429 29.5213C64.9965 32.7932 58.9894 37.7671 54.4791 43.9811C49.9687 50.1952 47.1014 57.448 46.1433 65.0664C45.1852 72.6847 46.1674 80.4216 48.9986 87.559C50.2965 90.8309 51.9636 93.9281 53.9591 96.7944C57.4558 101.817 64.6969 99.935 68.7158 95.3195C74.4701 88.7108 82.4868 84.6017 91.3643 84.6017C100.243 84.6017 108.269 88.7122 114.028 95.323C118.047 99.9369 125.288 101.819 128.784 96.7968C130.238 94.7066 131.519 92.4922 132.61 90.1747C135.469 84.0994 136.948 77.4669 136.942 70.7525ZM91.3334 79.8464C88.1241 79.8464 84.9868 78.8947 82.3183 77.1116C79.6498 75.3286 77.57 72.7943 76.3418 69.8293C75.1136 66.8642 74.7923 63.6015 75.4184 60.4538C76.0445 57.3061 77.59 54.4148 79.8593 52.1454C82.1287 49.8761 85.02 48.3306 88.1677 47.7045C91.3154 47.0784 94.5781 47.3997 97.5432 48.6279C100.508 49.8561 103.043 51.9359 104.826 54.6044C106.609 57.2729 107.56 60.4102 107.56 63.6195C107.56 67.9231 105.851 72.0505 102.808 75.0936C99.7644 78.1368 95.6371 79.8464 91.3334 79.8464Z" fill="url(#paint2_radial_1_110)"/>
<g style="mix-blend-mode:overlay">
<path d="M153.077 121.749H29.6545C26.6103 121.749 24.1426 124.217 24.1426 127.261C24.1426 130.305 26.6103 132.773 29.6545 132.773H153.077C156.121 132.773 158.589 130.305 158.589 127.261C158.589 124.217 156.121 121.749 153.077 121.749Z" fill="#01FFFF"/>
</g>
<g style="mix-blend-mode:overlay">
<path d="M153.077 142.562H29.6545C26.6103 142.562 24.1426 145.029 24.1426 148.073C24.1426 151.118 26.6103 153.585 29.6545 153.585H153.077C156.121 153.585 158.589 151.118 158.589 148.073C158.589 145.029 156.121 142.562 153.077 142.562Z" fill="#01FFFF"/>
</g>
</g>
<path opacity="0.7" d="M153.356 218.415H161.434V210.338H153.356V218.415Z" fill="#00FFE6"/>
<path opacity="0.5" d="M153.356 235.107H161.434V227.03H153.356V235.107Z" fill="#00FFE6"/>
<path opacity="0.4" d="M153.356 251.8H161.434V243.723H153.356V251.8Z" fill="#00FFE6"/>
<path opacity="0.3" d="M153.356 268.483H161.434V260.406H153.356V268.483Z" fill="#00FFE6"/>
<path opacity="0.1" d="M153.356 285.175H161.434V277.098H153.356V285.175Z" fill="#00FFE6"/>
<path opacity="0.7" d="M136.993 218.415H145.07V210.338H136.993V218.415Z" fill="#00FFE6"/>
<path opacity="0.5" d="M136.993 235.107H145.07V227.03H136.993V235.107Z" fill="#00FFE6"/>
<path opacity="0.4" d="M136.993 251.8H145.07V243.723H136.993V251.8Z" fill="#00FFE6"/>
<path opacity="0.3" d="M136.993 268.483H145.07V260.406H136.993V268.483Z" fill="#00FFE6"/>
<path opacity="0.1" d="M136.993 285.175H145.07V277.098H136.993V285.175Z" fill="#00FFE6"/>
<path opacity="0.7" d="M120.637 218.415H128.715V210.338H120.637V218.415Z" fill="#00FFE6"/>
<path opacity="0.5" d="M120.637 235.107H128.715V227.03H120.637V235.107Z" fill="#00FFE6"/>
<path opacity="0.4" d="M120.637 251.8H128.715V243.723H120.637V251.8Z" fill="#00FFE6"/>
<path opacity="0.3" d="M120.637 268.483H128.715V260.406H120.637V268.483Z" fill="#00FFE6"/>
<path opacity="0.1" d="M120.637 285.175H128.715V277.097H120.637V285.175Z" fill="#00FFE6"/>
<path opacity="0.7" d="M104.286 218.415H112.363V210.338H104.286V218.415Z" fill="#00FFE6"/>
<path opacity="0.5" d="M104.286 235.107H112.363V227.03H104.286V235.107Z" fill="#00FFE6"/>
<path opacity="0.4" d="M104.286 251.8H112.363V243.723H104.286V251.8Z" fill="#00FFE6"/>
<path opacity="0.3" d="M104.286 268.483H112.363V260.406H104.286V268.483Z" fill="#00FFE6"/>
<path opacity="0.1" d="M104.286 285.175H112.363V277.098H104.286V285.175Z" fill="#00FFE6"/>
<path opacity="0.05" d="M153.356 304.338H161.434V296.26H153.356V304.338Z" fill="#00FFE6"/>
<path opacity="0.05" d="M136.993 304.338H145.07V296.26H136.993V304.338Z" fill="#00FFE6"/>
<path opacity="0.05" d="M120.637 304.338H128.715V296.26H120.637V304.338Z" fill="#00FFE6"/>
<path opacity="0.05" d="M104.286 304.338H112.363V296.26H104.286V304.338Z" fill="#00FFE6"/>
<defs>
<linearGradient id="paint0_linear_1_110" x1="447.159" y1="38.4445" x2="186.087" y2="406.302" gradientUnits="userSpaceOnUse">
<stop stop-color="#01FFFF"/>
<stop offset="0.29" stop-color="#00518B"/>
<stop offset="0.48" stop-color="#012060"/>
<stop offset="0.71" stop-color="#010333"/>
<stop offset="1" stop-color="#00447F"/>
</linearGradient>
<linearGradient id="paint1_linear_1_110" x1="183.971" y1="-31.3795" x2="12.2536" y2="196.862" gradientUnits="userSpaceOnUse">
<stop stop-color="#01FFFF"/>
<stop offset="0.29" stop-color="#00518B"/>
<stop offset="0.48" stop-color="#012060"/>
<stop offset="0.71" stop-color="#010333"/>
<stop offset="1" stop-color="#00447F"/>
</linearGradient>
<radialGradient id="paint2_radial_1_110" cx="0" cy="0" r="1" gradientUnits="userSpaceOnUse" gradientTransform="translate(87.1802 105.321) scale(221.062 221.062)">
<stop stop-color="#D3FFE6"/>
<stop offset="0.85" stop-opacity="0"/>
</radialGradient>
</defs>
</svg>
