<svg width="337" height="298" viewBox="0 0 337 298" fill="none" xmlns="http://www.w3.org/2000/svg">
<g opacity="0.7">
<path style="mix-blend-mode:screen" d="M329.058 33.7488H156.42C152.554 33.7488 149.42 36.8828 149.42 40.7488V290.015C149.42 293.881 152.554 297.015 156.42 297.015H329.058C332.924 297.015 336.058 293.881 336.058 290.015V40.7488C336.058 36.8828 332.924 33.7488 329.058 33.7488Z" fill="url(#paint0_linear_1_85)"/>
<g style="mix-blend-mode:overlay">
<path d="M304.084 50.6394H181.381C177.515 50.6394 174.381 53.7734 174.381 57.6394V62.6382C174.381 66.5042 177.515 69.6382 181.381 69.6382H304.084C307.95 69.6382 311.084 66.5042 311.084 62.6382V57.6394C311.084 53.7734 307.95 50.6394 304.084 50.6394Z" fill="#01FFFF"/>
</g>
<g style="mix-blend-mode:overlay">
<path d="M306.334 270.625H179.131C176.507 270.625 174.381 272.751 174.381 275.374C174.381 277.998 176.507 280.124 179.131 280.124H306.334C308.957 280.124 311.084 277.998 311.084 275.374C311.084 272.751 308.957 270.625 306.334 270.625Z" fill="#01FFFF"/>
</g>
<g style="mix-blend-mode:overlay">
<path d="M205.409 88.6487H181.381C177.515 88.6487 174.381 91.7827 174.381 95.6487V102.463C174.381 106.329 177.515 109.463 181.381 109.463H205.409C209.275 109.463 212.409 106.329 212.409 102.463V95.6487C212.409 91.7827 209.275 88.6487 205.409 88.6487Z" fill="#01FFFF"/>
</g>
<g style="mix-blend-mode:overlay">
<path d="M254.292 88.6487H230.264C226.398 88.6487 223.264 91.7827 223.264 95.6487V102.463C223.264 106.329 226.398 109.463 230.264 109.463H254.292C258.158 109.463 261.292 106.329 261.292 102.463V95.6487C261.292 91.7827 258.158 88.6487 254.292 88.6487Z" fill="#01FFFF"/>
</g>
<g style="mix-blend-mode:overlay">
<path d="M303.171 88.6487H279.143C275.277 88.6487 272.143 91.7827 272.143 95.6487V102.463C272.143 106.329 275.277 109.463 279.143 109.463H303.171C307.037 109.463 310.171 106.329 310.171 102.463V95.6487C310.171 91.7827 307.037 88.6487 303.171 88.6487Z" fill="#01FFFF"/>
</g>
<g style="mix-blend-mode:overlay">
<path d="M307.722 120.274H176.829C175.477 120.274 174.381 121.37 174.381 122.722C174.381 124.074 175.477 125.17 176.829 125.17H307.722C309.074 125.17 310.17 124.074 310.17 122.722C310.17 121.37 309.074 120.274 307.722 120.274Z" fill="#01FFFF"/>
</g>
<g style="mix-blend-mode:overlay">
<path d="M293.6 131.179H176.829C175.477 131.179 174.381 132.275 174.381 133.627C174.381 134.979 175.477 136.075 176.829 136.075H293.6C294.952 136.075 296.048 134.979 296.048 133.627C296.048 132.275 294.952 131.179 293.6 131.179Z" fill="#01FFFF"/>
</g>
<g style="mix-blend-mode:overlay">
<path d="M234.278 142.084H176.829C175.477 142.084 174.381 143.18 174.381 144.532C174.381 145.884 175.477 146.98 176.829 146.98H234.278C235.63 146.98 236.726 145.884 236.726 144.532C236.726 143.18 235.63 142.084 234.278 142.084Z" fill="#01FFFF"/>
</g>
<g style="mix-blend-mode:overlay">
<path d="M274.651 152.989H176.829C175.477 152.989 174.381 154.085 174.381 155.437C174.381 156.789 175.477 157.885 176.829 157.885H274.651C276.003 157.885 277.099 156.789 277.099 155.437C277.099 154.085 276.003 152.989 274.651 152.989Z" fill="#01FFFF"/>
</g>
<g style="mix-blend-mode:overlay">
<path d="M253.017 163.894H176.829C175.477 163.894 174.381 164.99 174.381 166.342C174.381 167.694 175.477 168.79 176.829 168.79H253.017C254.369 168.79 255.465 167.694 255.465 166.342C255.465 164.99 254.369 163.894 253.017 163.894Z" fill="#01FFFF"/>
</g>
<g style="mix-blend-mode:overlay">
<path d="M287.963 174.811H176.829C175.477 174.811 174.381 175.907 174.381 177.259C174.381 178.611 175.477 179.707 176.829 179.707H287.963C289.315 179.707 290.411 178.611 290.411 177.259C290.411 175.907 289.315 174.811 287.963 174.811Z" fill="#01FFFF"/>
</g>
<g style="mix-blend-mode:overlay">
<path d="M301.944 185.716H176.829C175.477 185.716 174.381 186.812 174.381 188.164C174.381 189.516 175.477 190.612 176.829 190.612H301.944C303.296 190.612 304.392 189.516 304.392 188.164C304.392 186.812 303.296 185.716 301.944 185.716Z" fill="#01FFFF"/>
</g>
<g style="mix-blend-mode:overlay">
<path d="M234.278 196.621H176.829C175.477 196.621 174.381 197.717 174.381 199.069C174.381 200.421 175.477 201.517 176.829 201.517H234.278C235.63 201.517 236.726 200.421 236.726 199.069C236.726 197.717 235.63 196.621 234.278 196.621Z" fill="#01FFFF"/>
</g>
<g style="mix-blend-mode:overlay">
<path d="M178.377 214.945V214.877C178.377 213.773 177.482 212.879 176.379 212.879C175.275 212.879 174.381 213.773 174.381 214.877V214.945C174.381 216.049 175.275 216.943 176.379 216.943C177.482 216.943 178.377 216.049 178.377 214.945Z" fill="#01FFFF"/>
</g>
<g style="mix-blend-mode:overlay">
<path d="M216.4 212.879H183.397C182.275 212.879 181.365 213.789 181.365 214.911C181.365 216.033 182.275 216.943 183.397 216.943H216.4C217.523 216.943 218.433 216.033 218.433 214.911C218.433 213.789 217.523 212.879 216.4 212.879Z" fill="#01FFFF"/>
</g>
<g style="mix-blend-mode:overlay">
<path d="M234.38 212.879H223.011C221.888 212.879 220.979 213.789 220.979 214.911C220.979 216.033 221.888 216.943 223.011 216.943H234.38C235.503 216.943 236.413 216.033 236.413 214.911C236.413 213.789 235.503 212.879 234.38 212.879Z" fill="#01FFFF"/>
</g>
<g style="mix-blend-mode:overlay">
<path d="M199.021 218.911H176.413C175.291 218.911 174.381 219.821 174.381 220.943C174.381 222.066 175.291 222.975 176.413 222.975H199.021C200.144 222.975 201.053 222.066 201.053 220.943C201.053 219.821 200.144 218.911 199.021 218.911Z" fill="#01FFFF"/>
</g>
<g style="mix-blend-mode:overlay">
<path d="M206.401 222.975H222.095C223.217 222.975 224.127 222.065 224.127 220.943C224.127 219.821 223.217 218.911 222.095 218.911H206.401C205.278 218.911 204.369 219.821 204.369 220.943C204.369 222.065 205.278 222.975 206.401 222.975Z" fill="#01FFFF"/>
</g>
<g style="mix-blend-mode:overlay">
<path d="M182.755 224.944H176.413C175.291 224.944 174.381 225.853 174.381 226.976C174.381 228.098 175.291 229.008 176.413 229.008H182.755C183.878 229.008 184.787 228.098 184.787 226.976C184.787 225.853 183.878 224.944 182.755 224.944Z" fill="#01FFFF"/>
</g>
<g style="mix-blend-mode:overlay">
<path d="M206.451 224.944H189.749C188.627 224.944 187.717 225.853 187.717 226.976C187.717 228.098 188.627 229.008 189.749 229.008H206.451C207.573 229.008 208.483 228.098 208.483 226.976C208.483 225.853 207.573 224.944 206.451 224.944Z" fill="#01FFFF"/>
</g>
<g style="mix-blend-mode:overlay">
<path d="M213.702 229.008H217.876C218.998 229.008 219.908 228.098 219.908 226.975C219.908 225.853 218.998 224.943 217.876 224.943H213.702C212.58 224.943 211.67 225.853 211.67 226.975C211.67 228.098 212.58 229.008 213.702 229.008Z" fill="#01FFFF"/>
</g>
<g style="mix-blend-mode:overlay">
<path d="M178.377 233.042V232.973C178.377 231.87 177.482 230.975 176.379 230.975C175.275 230.975 174.381 231.87 174.381 232.973V233.042C174.381 234.145 175.275 235.04 176.379 235.04C177.482 235.04 178.377 234.145 178.377 233.042Z" fill="#01FFFF"/>
</g>
<g style="mix-blend-mode:overlay">
<path d="M202.759 230.975H183.397C182.275 230.975 181.365 231.885 181.365 233.008C181.365 234.13 182.275 235.04 183.397 235.04H202.759C203.882 235.04 204.792 234.13 204.792 233.008C204.792 231.885 203.882 230.975 202.759 230.975Z" fill="#01FFFF"/>
</g>
<g style="mix-blend-mode:overlay">
<path d="M210.186 235.028H231.423C232.545 235.028 233.455 234.118 233.455 232.996C233.455 231.873 232.545 230.964 231.423 230.964H210.186C209.063 230.964 208.154 231.873 208.154 232.996C208.154 234.118 209.063 235.028 210.186 235.028Z" fill="#01FFFF"/>
</g>
<g style="mix-blend-mode:overlay">
<path d="M190.806 237.008H176.413C175.291 237.008 174.381 237.917 174.381 239.04C174.381 240.162 175.291 241.072 176.413 241.072H190.806C191.929 241.072 192.838 240.162 192.838 239.04C192.838 237.917 191.929 237.008 190.806 237.008Z" fill="#01FFFF"/>
</g>
<g style="mix-blend-mode:overlay">
<path d="M200.532 237.008H197.179C196.056 237.008 195.146 237.917 195.146 239.04C195.146 240.162 196.056 241.072 197.179 241.072H200.532C201.655 241.072 202.565 240.162 202.565 239.04C202.565 237.917 201.655 237.008 200.532 237.008Z" fill="#01FFFF"/>
</g>
<g style="mix-blend-mode:overlay">
<path d="M217.033 237.008H206.812C205.689 237.008 204.779 237.917 204.779 239.04C204.779 240.162 205.689 241.072 206.812 241.072H217.033C218.155 241.072 219.065 240.162 219.065 239.04C219.065 237.917 218.155 237.008 217.033 237.008Z" fill="#01FFFF"/>
</g>
<g style="mix-blend-mode:overlay">
<path d="M197.228 243.04H176.413C175.291 243.04 174.381 243.95 174.381 245.073C174.381 246.195 175.291 247.105 176.413 247.105H197.228C198.351 247.105 199.26 246.195 199.26 245.073C199.26 243.95 198.351 243.04 197.228 243.04Z" fill="#01FFFF"/>
</g>
<g style="mix-blend-mode:overlay">
<path d="M224.666 243.04H203.851C202.728 243.04 201.818 243.95 201.818 245.073C201.818 246.195 202.728 247.105 203.851 247.105H224.666C225.788 247.105 226.698 246.195 226.698 245.073C226.698 243.95 225.788 243.04 224.666 243.04Z" fill="#01FFFF"/>
</g>
<g style="mix-blend-mode:overlay">
<path d="M179.333 249.061H176.413C175.291 249.061 174.381 249.971 174.381 251.093C174.381 252.215 175.291 253.125 176.413 253.125H179.333C180.456 253.125 181.365 252.215 181.365 251.093C181.365 249.971 180.456 249.061 179.333 249.061Z" fill="#01FFFF"/>
</g>
<g style="mix-blend-mode:overlay">
<path d="M196.079 249.061H185.366C184.244 249.061 183.334 249.971 183.334 251.093C183.334 252.215 184.244 253.125 185.366 253.125H196.079C197.202 253.125 198.112 252.215 198.112 251.093C198.112 249.971 197.202 249.061 196.079 249.061Z" fill="#01FFFF"/>
</g>
<g style="mix-blend-mode:overlay">
<path d="M199.904 251.093C199.904 252.215 200.815 253.125 201.938 253.125C203.06 253.125 203.971 252.215 203.971 251.093C203.971 249.971 203.06 249.061 201.938 249.061C200.815 249.061 199.904 249.971 199.904 251.093Z" fill="#01FFFF"/>
</g>
<g style="mix-blend-mode:overlay">
<path d="M250.088 214.945V214.877C250.088 213.773 249.193 212.879 248.09 212.879C246.986 212.879 246.092 213.773 246.092 214.877V214.945C246.092 216.049 246.986 216.943 248.09 216.943C249.193 216.943 250.088 216.049 250.088 214.945Z" fill="#01FFFF"/>
</g>
<g style="mix-blend-mode:overlay">
<path d="M288.111 212.879H255.108C253.986 212.879 253.076 213.789 253.076 214.911C253.076 216.033 253.986 216.943 255.108 216.943H288.111C289.234 216.943 290.144 216.033 290.144 214.911C290.144 213.789 289.234 212.879 288.111 212.879Z" fill="#01FFFF"/>
</g>
<g style="mix-blend-mode:overlay">
<path d="M306.091 212.879H294.722C293.599 212.879 292.689 213.789 292.689 214.911C292.689 216.033 293.599 216.943 294.722 216.943H306.091C307.214 216.943 308.124 216.033 308.124 214.911C308.124 213.789 307.214 212.879 306.091 212.879Z" fill="#01FFFF"/>
</g>
<g style="mix-blend-mode:overlay">
<path d="M270.732 218.911H248.124C247.002 218.911 246.092 219.821 246.092 220.943C246.092 222.066 247.002 222.975 248.124 222.975H270.732C271.854 222.975 272.764 222.066 272.764 220.943C272.764 219.821 271.854 218.911 270.732 218.911Z" fill="#01FFFF"/>
</g>
<g style="mix-blend-mode:overlay">
<path d="M278.112 222.975H293.806C294.928 222.975 295.838 222.065 295.838 220.943C295.838 219.821 294.928 218.911 293.806 218.911H278.112C276.989 218.911 276.08 219.821 276.08 220.943C276.08 222.065 276.989 222.975 278.112 222.975Z" fill="#01FFFF"/>
</g>
<g style="mix-blend-mode:overlay">
<path d="M254.466 224.944H248.124C247.002 224.944 246.092 225.853 246.092 226.976C246.092 228.098 247.002 229.008 248.124 229.008H254.466C255.588 229.008 256.498 228.098 256.498 226.976C256.498 225.853 255.588 224.944 254.466 224.944Z" fill="#01FFFF"/>
</g>
<g style="mix-blend-mode:overlay">
<path d="M278.158 224.944H261.456C260.334 224.944 259.424 225.853 259.424 226.976C259.424 228.098 260.334 229.008 261.456 229.008H278.158C279.28 229.008 280.19 228.098 280.19 226.976C280.19 225.853 279.28 224.944 278.158 224.944Z" fill="#01FFFF"/>
</g>
<g style="mix-blend-mode:overlay">
<path d="M285.401 229.008H289.575C290.698 229.008 291.607 228.098 291.607 226.975C291.607 225.853 290.698 224.943 289.575 224.943H285.401C284.279 224.943 283.369 225.853 283.369 226.975C283.369 228.098 284.279 229.008 285.401 229.008Z" fill="#01FFFF"/>
</g>
<g style="mix-blend-mode:overlay">
<path d="M250.088 233.042V232.973C250.088 231.87 249.193 230.975 248.09 230.975C246.986 230.975 246.092 231.87 246.092 232.973V233.042C246.092 234.145 246.986 235.04 248.09 235.04C249.193 235.04 250.088 234.145 250.088 233.042Z" fill="#01FFFF"/>
</g>
<g style="mix-blend-mode:overlay">
<path d="M274.47 230.975H255.108C253.986 230.975 253.076 231.885 253.076 233.008C253.076 234.13 253.986 235.04 255.108 235.04H274.47C275.593 235.04 276.503 234.13 276.503 233.008C276.503 231.885 275.593 230.975 274.47 230.975Z" fill="#01FFFF"/>
</g>
<g style="mix-blend-mode:overlay">
<path d="M281.908 235.028H303.145C304.268 235.028 305.178 234.118 305.178 232.996C305.178 231.873 304.268 230.964 303.145 230.964H281.908C280.786 230.964 279.876 231.873 279.876 232.996C279.876 234.118 280.786 235.028 281.908 235.028Z" fill="#01FFFF"/>
</g>
<g style="mix-blend-mode:overlay">
<path d="M262.517 237.008H248.124C247.002 237.008 246.092 237.917 246.092 239.04C246.092 240.162 247.002 241.072 248.124 241.072H262.517C263.639 241.072 264.549 240.162 264.549 239.04C264.549 237.917 263.639 237.008 262.517 237.008Z" fill="#01FFFF"/>
</g>
<g style="mix-blend-mode:overlay">
<path d="M272.243 237.008H268.89C267.767 237.008 266.857 237.917 266.857 239.04C266.857 240.162 267.767 241.072 268.89 241.072H272.243C273.366 241.072 274.276 240.162 274.276 239.04C274.276 237.917 273.366 237.008 272.243 237.008Z" fill="#01FFFF"/>
</g>
<g style="mix-blend-mode:overlay">
<path d="M288.732 237.008H278.511C277.388 237.008 276.479 237.917 276.479 239.04C276.479 240.162 277.388 241.072 278.511 241.072H288.732C289.854 241.072 290.764 240.162 290.764 239.04C290.764 237.917 289.854 237.008 288.732 237.008Z" fill="#01FFFF"/>
</g>
<g style="mix-blend-mode:overlay">
<path d="M268.939 243.04H248.124C247.002 243.04 246.092 243.95 246.092 245.073C246.092 246.195 247.002 247.105 248.124 247.105H268.939C270.062 247.105 270.971 246.195 270.971 245.073C270.971 243.95 270.062 243.04 268.939 243.04Z" fill="#01FFFF"/>
</g>
<g style="mix-blend-mode:overlay">
<path d="M296.373 243.04H275.557C274.435 243.04 273.525 243.95 273.525 245.072C273.525 246.195 274.435 247.105 275.557 247.105H296.373C297.495 247.105 298.405 246.195 298.405 245.072C298.405 243.95 297.495 243.04 296.373 243.04Z" fill="#01FFFF"/>
</g>
<g style="mix-blend-mode:overlay">
<path d="M251.044 249.061H248.124C247.002 249.061 246.092 249.971 246.092 251.093C246.092 252.215 247.002 253.125 248.124 253.125H251.044C252.166 253.125 253.076 252.215 253.076 251.093C253.076 249.971 252.166 249.061 251.044 249.061Z" fill="#01FFFF"/>
</g>
<g style="mix-blend-mode:overlay">
<path d="M267.779 249.061H257.065C255.943 249.061 255.033 249.971 255.033 251.093C255.033 252.215 255.943 253.125 257.065 253.125H267.779C268.901 253.125 269.811 252.215 269.811 251.093C269.811 249.971 268.901 249.061 267.779 249.061Z" fill="#01FFFF"/>
</g>
<g style="mix-blend-mode:overlay">
<path d="M271.604 251.093C271.604 252.215 272.514 253.125 273.637 253.125C274.759 253.125 275.67 252.215 275.67 251.093C275.67 249.971 274.759 249.061 273.637 249.061C272.514 249.061 271.604 249.971 271.604 251.093Z" fill="#01FFFF"/>
</g>
</g>
<g opacity="0.7">
<path style="mix-blend-mode:screen" d="M129.599 0.558838H9.51758C4.54701 0.558838 0.517578 4.58829 0.517578 9.55885V129.641C0.517578 134.611 4.54703 138.641 9.51759 138.641H129.599C134.57 138.641 138.599 134.611 138.599 129.641V9.55884C138.599 4.58827 134.57 0.558838 129.599 0.558838Z" fill="url(#paint1_linear_1_85)"/>
<path style="mix-blend-mode:color-dodge" d="M104.137 53.7044C104.136 47.8789 102.665 42.1478 99.8576 37.0432C97.0506 31.9386 92.9994 27.6259 88.0801 24.5054C83.1609 21.3849 77.533 19.5578 71.7188 19.1937C65.9047 18.8296 60.0928 19.9403 54.8227 22.4226C49.5526 24.905 44.995 28.6786 41.5731 33.3932C38.1511 38.1077 35.9757 43.6104 35.2488 49.3903C34.5219 55.1703 35.267 61.0403 37.4151 66.4553C38.0291 68.0032 38.752 69.4996 39.5764 70.934C42.6257 76.2403 49.9364 74.3183 54.4674 70.2043C58.5932 66.4582 63.84 64.2116 69.5576 64.2116C75.2769 64.2116 80.5293 66.4596 84.659 70.2079C89.1901 74.3205 96.5009 76.2423 99.5486 70.9361C100.015 70.1236 100.45 69.2909 100.85 68.4398C103.019 63.8306 104.141 58.7985 104.137 53.7044ZM69.5341 60.6038C67.0992 60.6038 64.719 59.8817 62.6944 58.529C60.6699 57.1762 59.0919 55.2535 58.1601 53.0039C57.2283 50.7543 56.9845 48.279 57.4595 45.8909C57.9346 43.5027 59.1071 41.3091 60.8288 39.5874C62.5506 37.8656 64.7442 36.6931 67.1324 36.218C69.5205 35.743 71.9959 35.9868 74.2454 36.9186C76.495 37.8504 78.4177 39.4284 79.7705 41.4529C81.1233 43.4775 81.8453 45.8577 81.8453 48.2926C81.8453 51.5578 80.5482 54.6892 78.2395 56.998C75.9307 59.3067 72.7993 60.6038 69.5341 60.6038Z" fill="url(#paint2_radial_1_85)"/>
<g style="mix-blend-mode:overlay">
<path d="M116.378 92.3948H22.7385C20.4289 92.3948 18.5566 94.267 18.5566 96.5766C18.5566 98.8862 20.4289 100.758 22.7385 100.758H116.378C118.688 100.758 120.56 98.8862 120.56 96.5766C120.56 94.267 118.688 92.3948 116.378 92.3948Z" fill="#01FFFF"/>
</g>
<g style="mix-blend-mode:overlay">
<path d="M116.378 108.185H22.7385C20.4289 108.185 18.5566 110.058 18.5566 112.367C18.5566 114.677 20.4289 116.549 22.7385 116.549H116.378C118.688 116.549 120.56 114.677 120.56 112.367C120.56 110.058 118.688 108.185 116.378 108.185Z" fill="#01FFFF"/>
</g>
</g>
<path opacity="0.7" d="M116.588 165.735H122.717V159.607H116.588V165.735Z" fill="#00FFE6"/>
<path opacity="0.5" d="M116.588 178.399H122.717V172.271H116.588V178.399Z" fill="#00FFE6"/>
<path opacity="0.4" d="M116.588 191.064H122.717V184.936H116.588V191.064Z" fill="#00FFE6"/>
<path opacity="0.3" d="M116.588 203.721H122.717V197.593H116.588V203.721Z" fill="#00FFE6"/>
<path opacity="0.1" d="M116.588 216.385H122.717V210.257H116.588V216.385Z" fill="#00FFE6"/>
<path opacity="0.7" d="M104.174 165.735H110.303V159.607H104.174V165.735Z" fill="#00FFE6"/>
<path opacity="0.5" d="M104.174 178.399H110.303V172.271H104.174V178.399Z" fill="#00FFE6"/>
<path opacity="0.4" d="M104.174 191.064H110.303V184.936H104.174V191.064Z" fill="#00FFE6"/>
<path opacity="0.3" d="M104.174 203.721H110.303V197.593H104.174V203.721Z" fill="#00FFE6"/>
<path opacity="0.1" d="M104.174 216.385H110.303V210.257H104.174V216.385Z" fill="#00FFE6"/>
<path opacity="0.7" d="M91.7681 165.735H97.8963V159.607H91.7681V165.735Z" fill="#00FFE6"/>
<path opacity="0.5" d="M91.7681 178.399H97.8963V172.271H91.7681V178.399Z" fill="#00FFE6"/>
<path opacity="0.4" d="M91.7681 191.064H97.8963V184.936H91.7681V191.064Z" fill="#00FFE6"/>
<path opacity="0.3" d="M91.7681 203.721H97.8963V197.593H91.7681V203.721Z" fill="#00FFE6"/>
<path opacity="0.1" d="M91.7681 216.385H97.8963V210.257H91.7681V216.385Z" fill="#00FFE6"/>
<path opacity="0.7" d="M79.3618 165.735H85.49V159.607H79.3618V165.735Z" fill="#00FFE6"/>
<path opacity="0.5" d="M79.3618 178.399H85.49V172.271H79.3618V178.399Z" fill="#00FFE6"/>
<path opacity="0.4" d="M79.3618 191.064H85.49V184.936H79.3618V191.064Z" fill="#00FFE6"/>
<path opacity="0.3" d="M79.3618 203.721H85.49V197.593H79.3618V203.721Z" fill="#00FFE6"/>
<path opacity="0.1" d="M79.3618 216.385H85.49V210.257H79.3618V216.385Z" fill="#00FFE6"/>
<path opacity="0.05" d="M116.588 230.923H122.717V224.795H116.588V230.923Z" fill="#00FFE6"/>
<path opacity="0.05" d="M104.174 230.923H110.303V224.795H104.174V230.923Z" fill="#00FFE6"/>
<path opacity="0.05" d="M91.7681 230.923H97.8963V224.795H91.7681V230.923Z" fill="#00FFE6"/>
<path opacity="0.05" d="M79.3618 230.923H85.49V224.795H79.3618V230.923Z" fill="#00FFE6"/>
<defs>
<linearGradient id="paint0_linear_1_85" x1="339.492" y1="29.1923" x2="141.419" y2="308.283" gradientUnits="userSpaceOnUse">
<stop stop-color="#01FFFF"/>
<stop offset="0.29" stop-color="#00518B"/>
<stop offset="0.48" stop-color="#012060"/>
<stop offset="0.71" stop-color="#010333"/>
<stop offset="1" stop-color="#00447F"/>
</linearGradient>
<linearGradient id="paint1_linear_1_85" x1="139.818" y1="-23.7823" x2="9.53717" y2="149.382" gradientUnits="userSpaceOnUse">
<stop stop-color="#01FFFF"/>
<stop offset="0.29" stop-color="#00518B"/>
<stop offset="0.48" stop-color="#012060"/>
<stop offset="0.71" stop-color="#010333"/>
<stop offset="1" stop-color="#00447F"/>
</linearGradient>
<radialGradient id="paint2_radial_1_85" cx="0" cy="0" r="1" gradientUnits="userSpaceOnUse" gradientTransform="translate(66.3831 79.9315) scale(167.718 167.718)">
<stop stop-color="#D3FFE6"/>
<stop offset="0.85" stop-opacity="0"/>
</radialGradient>
</defs>
</svg>
