<svg width="205" height="205" viewBox="0 0 205 205" fill="none" xmlns="http://www.w3.org/2000/svg">
<path d="M102.429 0.852918C82.2982 0.852921 62.62 6.82011 45.8828 17.9997C29.1457 29.1793 16.1016 45.069 8.40033 63.6592C0.699103 82.2493 -1.31324 102.705 2.61776 122.438C6.54877 142.172 16.2466 160.297 30.4845 174.521C44.7225 188.745 62.861 198.428 82.6059 202.348C102.351 206.267 122.815 204.245 141.41 196.538C160.005 188.831 175.896 175.785 187.073 159.05C198.249 142.316 204.209 122.644 204.199 102.523C204.199 89.167 201.566 75.9421 196.451 63.6035C191.336 51.265 183.839 40.0547 174.388 30.6131C164.937 21.1715 153.718 13.6837 141.37 8.57731C129.023 3.47095 115.791 0.846146 102.429 0.852918Z" fill="url(#paint0_linear_549_564)"/>
<defs>
<linearGradient id="paint0_linear_549_564" x1="344.552" y1="-407.889" x2="58.5501" y2="195.379" gradientUnits="userSpaceOnUse">
<stop offset="0.521837" stop-color="#420DBD"/>
<stop offset="1" stop-color="#6E46E5"/>
</linearGradient>
</defs>
</svg>
