<svg width="255" height="254" viewBox="0 0 255 254" fill="none" xmlns="http://www.w3.org/2000/svg">
<path opacity="0.6" d="M127.438 0.707292C102.385 0.707295 77.8942 8.13372 57.0641 22.0472C36.2341 35.9606 20.0001 55.736 10.4156 78.8723C0.831115 102.009 -1.67334 127.466 3.21897 152.025C8.11127 176.584 20.1806 199.142 37.9003 216.844C55.6201 234.546 78.1942 246.598 102.768 251.476C127.341 256.353 152.809 253.837 175.952 244.246C199.094 234.654 218.871 218.418 232.781 197.591C246.69 176.763 254.108 152.281 254.095 127.24C254.095 110.618 250.819 94.1589 244.453 78.8031C238.087 63.4473 228.756 49.4956 216.994 37.7451C205.232 25.9947 191.269 16.6757 175.903 10.3206C160.536 3.96554 144.068 0.698863 127.438 0.707292Z" fill="url(#paint0_linear_549_565)"/>
<defs>
<linearGradient id="paint0_linear_549_565" x1="0.780518" y1="127.304" x2="345.386" y2="132.04" gradientUnits="userSpaceOnUse">
<stop stop-color="#6E46E5"/>
<stop offset="0.455" stop-color="#194EC4"/>
<stop offset="1" stop-color="#1CF9EF" stop-opacity="0.9"/>
</linearGradient>
</defs>
</svg>
