<svg width="36" height="36" viewBox="0 0 36 36" fill="none" xmlns="http://www.w3.org/2000/svg">
<g clip-path="url(#clip0_214_1699)">
<path d="M0.789062 30.6081C0.789062 33.1008 2.80963 35.1211 5.30201 35.1211H31.276C33.7688 35.1211 35.7891 33.1005 35.7891 30.6081V4.63418C35.7891 2.14139 33.7685 0.121094 31.2761 0.121094H5.30215C2.80936 0.121094 0.789062 2.14166 0.789062 4.63404V30.6081Z" fill="#563D7C"/>
<path d="M15.3043 15.6029V10.6464H19.6671C20.0828 10.6464 20.4834 10.681 20.8692 10.7503C21.255 10.8195 21.5964 10.9431 21.8932 11.1212C22.1899 11.2994 22.4274 11.5467 22.6055 11.8632C22.7835 12.1798 22.8727 12.5855 22.8727 13.08C22.8727 13.9704 22.6055 14.6136 22.0712 15.0092C21.5371 15.405 20.8544 15.6029 20.0233 15.6029H15.3043ZM10.6445 7.02539V28.2168H20.9137C21.8635 28.2168 22.7886 28.0981 23.6889 27.8606C24.5892 27.6232 25.3905 27.2572 26.0929 26.7625C26.7953 26.2679 27.3543 25.6297 27.7698 24.8482C28.1854 24.0666 28.3931 23.1415 28.3931 22.0731C28.3931 20.7473 28.0715 19.6146 27.4285 18.6748C26.7854 17.7348 25.8109 17.077 24.5049 16.701C25.4547 16.246 26.1721 15.6622 26.6569 14.9499C27.1416 14.2376 27.384 13.3473 27.384 12.2787C27.384 11.2894 27.2207 10.4584 26.8942 9.78561C26.5678 9.11295 26.1077 8.57373 25.5141 8.16809C24.9206 7.76244 24.2083 7.47055 23.3771 7.29254C22.5462 7.11439 21.6261 7.02539 20.6169 7.02539H10.6445ZM15.3043 24.5958V18.7786H20.3795C21.3886 18.7786 22.1999 19.011 22.8133 19.4761C23.4266 19.9411 23.7334 20.7176 23.7334 21.8059C23.7334 22.36 23.6394 22.815 23.4514 23.1712C23.2634 23.5273 23.0112 23.8094 22.6945 24.0171C22.378 24.2249 22.0119 24.3732 21.5964 24.4624C21.1808 24.5512 20.7456 24.5958 20.2905 24.5958H15.3043Z" fill="white"/>
</g>
<defs>
<clipPath id="clip0_214_1699">
<rect width="35" height="35" fill="white" transform="translate(0.789062 0.121094)"/>
</clipPath>
</defs>
</svg>
