<svg width="32" height="36" viewBox="0 0 32 36" fill="none" xmlns="http://www.w3.org/2000/svg">
<g clip-path="url(#clip0_214_1705)">
<path d="M2.92275 31.4546L0.34375 0.17981L31.1437 0.242659L28.4167 31.4546L15.86 35.0624L2.92275 31.4546Z" fill="#1B73BA"/>
<path d="M15.8594 32.0418V3.1582L28.543 3.2001L26.2812 29.0422L15.8594 32.0418Z" fill="#1C88C7"/>
<path d="M25.3944 6.8501H5.88281L6.41138 10.6255H15.6703L6.55942 14.5061L7.08774 18.1558H20.5113L20.025 23.2528L15.48 24.1339L11.358 23.0852L11.0408 20.1904H7.25689L7.7641 26.2106L15.8816 28.455L23.6611 26.0009L24.6547 14.2333H16.4311L25.3941 10.5417L25.3944 6.8501Z" fill="white"/>
</g>
<defs>
<clipPath id="clip0_214_1705">
<rect width="30.8" height="35" fill="white" transform="translate(0.34375 0.121094)"/>
</clipPath>
</defs>
</svg>
