<svg width="41" height="17" viewBox="0 0 41 17" fill="none" xmlns="http://www.w3.org/2000/svg">
<path d="M33.4613 16.9469C30.9083 16.9469 28.3323 16.1879 26.9062 15.0839L28.1713 12.2779C29.5283 13.2669 31.5523 13.9569 33.4843 13.9569C35.6923 13.9569 36.5893 13.2209 36.5893 12.2319C36.5893 9.21892 27.2283 11.2889 27.2283 5.30892C27.2283 2.57192 29.4363 0.294922 34.0133 0.294922C36.0373 0.294922 38.1073 0.777921 39.6023 1.72092L38.4523 4.54992C36.9573 3.69892 35.4163 3.28492 33.9903 3.28492C31.7823 3.28492 30.9312 4.11292 30.9312 5.12492C30.9312 8.09192 40.2922 6.04492 40.2922 11.9559C40.2922 14.6469 38.0613 16.9469 33.4613 16.9469Z" fill="white"/>
<path d="M18.6932 16.9468C16.5312 16.9468 14.6222 16.1188 13.4492 14.6008L15.5192 12.1168C16.3932 13.2898 17.3592 13.8878 18.5092 13.8878C20.0042 13.8878 20.7862 12.9908 20.7862 11.2198V3.5608H15.1282V0.570801H24.4892V11.0128C24.4892 14.9918 22.4882 16.9468 18.6932 16.9468Z" fill="white"/>
<path d="M3.99988 13.6809H12.7629V16.6709H0.296875V0.570923H12.4639V3.56092H3.99988V7.05692H11.4749V9.95492H3.99988V13.6809Z" fill="white"/>
</svg>
