<svg width="42" height="19" viewBox="0 0 42 19" fill="none" xmlns="http://www.w3.org/2000/svg">
<path d="M32.7344 18.6543C31.9271 18.6543 31.5072 18.651 31.4746 18.6445V16.0176C31.5072 16.0241 31.709 16.0273 32.0801 16.0273C33.2259 16.0273 33.8574 15.7083 33.9746 15.0703L34.0234 14.7676L30.3125 3.81055H34.1309L36.0742 11.7793H36.2598L38.2031 3.81055H41.8555L38.3594 14.6602C37.8971 16.1055 37.2331 17.1341 36.3672 17.7461C35.5078 18.3516 34.2969 18.6543 32.7344 18.6543Z" fill="white"/>
<path d="M26.709 1.34961V3.95703H28.9258V6.52539H26.709V10.9297C26.709 11.7435 27.1484 12.1504 28.0273 12.1504C28.3268 12.1504 28.6165 12.1341 28.8965 12.1016V14.5625C28.4668 14.6536 27.9167 14.6992 27.2461 14.6992C25.8203 14.6992 24.7982 14.4648 24.1797 13.9961C23.5677 13.5339 23.2617 12.7689 23.2617 11.7012V6.52539H21.582V3.95703H23.2617V1.34961H26.709Z" fill="white"/>
<path d="M15.0684 3.82031H14.8828L11.4844 6.11523V3.0293L15.0684 0.587891H18.6523V14.6797H15.0684V3.82031Z" fill="white"/>
<path d="M4.30664 3.82031H4.12109L0.722656 6.11523V3.0293L4.30664 0.587891H7.89062V14.6797H4.30664V3.82031Z" fill="white"/>
</svg>
