<svg width="40" height="36" viewBox="0 0 40 36" fill="none" xmlns="http://www.w3.org/2000/svg">
<g clip-path="url(#clip0_293_3059)">
<path d="M12.3096 12.7282L19.8649 8.36611C19.9578 8.31244 20.0633 8.28418 20.1706 8.28418C20.2779 8.28418 20.3833 8.31244 20.4762 8.36611L28.0316 12.7282C28.1245 12.7819 28.2016 12.859 28.2553 12.952C28.3089 13.0449 28.3372 13.1503 28.3372 13.2576V21.9817C28.3372 22.2 28.2206 22.4017 28.0316 22.5111L20.4762 26.8732C20.3833 26.9268 20.2779 26.9551 20.1706 26.9551C20.0633 26.9551 19.9578 26.9268 19.8649 26.8732L12.3096 22.5111C12.2167 22.4574 12.1395 22.3803 12.0858 22.2873C12.0322 22.1944 12.0039 22.089 12.0039 21.9817V13.2574C12.0041 13.039 12.1206 12.8376 12.3096 12.7282Z" fill="#8080F2"/>
<path d="M39.7585 16.9047L30.7217 1.18315C30.3935 0.614751 29.7871 0.195374 29.1307 0.195374H11.0568C10.4004 0.195374 9.7937 0.614751 9.46547 1.18315L0.428784 16.87C0.100562 17.4386 0.100562 18.1561 0.428784 18.7247L9.46547 34.3174C9.7937 34.8858 10.4004 35.1764 11.0568 35.1764H29.1305C29.7869 35.1764 30.3935 34.8945 30.7215 34.326L39.7584 18.7079C40.0869 18.1396 40.0869 17.4731 39.7584 16.9047H39.7585ZM32.2755 24.4647C32.2755 24.6957 32.1365 24.9096 31.9361 25.0253L20.4251 31.6664C20.326 31.7232 20.2138 31.7531 20.0996 31.7531C19.9853 31.7531 19.8731 31.7232 19.774 31.6664L8.25416 25.0253C8.05396 24.9096 7.91381 24.6958 7.91381 24.4645V11.182C7.91381 10.9506 8.05194 10.7371 8.2523 10.6213L19.7626 3.98004C19.8617 3.92316 19.9739 3.89323 20.0881 3.89323C20.2024 3.89323 20.3146 3.92316 20.4136 3.98004L31.9341 10.6213C32.1346 10.7371 32.2755 10.9506 32.2755 11.182V24.4647Z" fill="#4B32C3"/>
</g>
<defs>
<clipPath id="clip0_293_3059">
<rect width="39.827" height="35" fill="white" transform="translate(0.179688 0.195374)"/>
</clipPath>
</defs>
</svg>
