<svg width="24" height="36" viewBox="0 0 24 36" fill="none" xmlns="http://www.w3.org/2000/svg">
<path d="M12.283 17.6277C12.283 14.4122 14.8898 11.7922 18.1185 11.7922C21.334 11.7922 23.954 14.399 23.954 17.6277C23.954 20.8432 21.3472 23.4633 18.1185 23.4633C14.903 23.4633 12.283 20.8432 12.283 17.6277Z" fill="#1ABCFE"/>
<path d="M0.625 29.2856C0.625 26.0701 3.23181 23.45 6.46054 23.45H12.2961V29.2856C12.2961 32.5011 9.68927 35.1211 6.46054 35.1211C3.23181 35.1211 0.625 32.5143 0.625 29.2856Z" fill="#0ACF83"/>
<path d="M12.283 0.134326V11.7922H18.1185C21.334 11.7922 23.954 9.18537 23.954 5.95663C23.954 2.74113 21.3472 0.121094 18.1185 0.121094H12.283V0.134326Z" fill="#FF7262"/>
<path d="M0.625 5.96988C0.625 9.18538 3.23181 11.8054 6.46054 11.8054H12.2961V0.134338H6.46054C3.23181 0.134338 0.625 2.74114 0.625 5.96988Z" fill="#F24E1E"/>
<path d="M0.625 17.6277C0.625 20.8432 3.23181 23.4633 6.46054 23.4633H12.2961V11.7922H6.46054C3.23181 11.7922 0.625 14.4122 0.625 17.6277Z" fill="#A259FF"/>
</svg>
