<svg width="36" height="36" viewBox="0 0 36 36" fill="none" xmlns="http://www.w3.org/2000/svg">
<g clip-path="url(#clip0_214_1770)">
<path d="M0.296875 0.121094H35.2969V35.1211H0.296875V0.121094Z" fill="#CF4547"/>
<path d="M12.5255 17.8923C12.5064 17.9202 12.4729 18.0072 12.4234 18.1547C12.374 18.3023 12.3141 18.4866 12.2439 18.7084C12.1737 18.9302 12.0971 19.1791 12.0158 19.4535C11.9336 19.7279 11.849 20.0088 11.7629 20.2944C11.6759 20.5808 11.593 20.8608 11.5132 21.136C11.4334 21.4104 11.3616 21.6593 11.2986 21.8811C11.2356 22.1029 11.1829 22.2888 11.1406 22.4396C11.0983 22.5895 11.0728 22.6781 11.0632 22.706C11.0401 22.7946 11.0026 22.8935 10.9508 23.002C10.8989 23.1105 10.8383 23.2126 10.7681 23.3099C10.6979 23.4072 10.6205 23.4878 10.5359 23.5516C10.4514 23.6155 10.3644 23.6474 10.2758 23.6474C10.1259 23.6474 10.0166 23.5971 9.94876 23.4974C9.88095 23.3977 9.84665 23.2142 9.84665 22.9477V22.8313C9.84665 22.7922 9.84904 22.7507 9.85383 22.7068C9.85861 22.6182 9.89372 22.4515 9.95913 22.2066C10.0245 21.9625 10.1035 21.6865 10.1945 21.3777C10.2854 21.069 10.3843 20.7507 10.4896 20.4196C10.595 20.0893 10.6899 19.7934 10.7745 19.5325C10.5255 19.8101 10.2567 20.0861 9.96551 20.3614C9.67513 20.6366 9.37676 20.8831 9.07281 21.1025C8.76807 21.3219 8.46093 21.5014 8.15139 21.6394C7.84186 21.7782 7.54429 21.8476 7.25869 21.8476C6.93081 21.8476 6.6484 21.775 6.41146 21.6314C6.17453 21.487 5.97907 21.2979 5.82431 21.065C5.66954 20.832 5.55466 20.568 5.47967 20.2736C5.40468 19.9792 5.36719 19.6849 5.36719 19.3905V19.282C5.36719 19.2485 5.36958 19.2158 5.37437 19.1823C5.40229 18.6494 5.47887 18.1021 5.60253 17.5413C5.72698 16.9804 5.88972 16.422 6.09156 15.8675C6.29339 15.3123 6.52634 14.7698 6.7912 14.2393C7.05606 13.7088 7.34405 13.2078 7.65598 12.7363C7.96791 12.2648 8.29898 11.83 8.6508 11.4328C9.00261 11.0355 9.3632 10.694 9.73336 10.4084C10.1035 10.1228 10.4777 9.89945 10.855 9.7383C11.2324 9.57716 11.6065 9.49658 11.9767 9.49658C12.4035 9.49658 12.8159 9.61306 13.214 9.846C13.6121 10.079 13.9847 10.4571 14.3317 10.9788C14.4115 11.0953 14.4617 11.2134 14.4825 11.333C14.5032 11.4527 14.5144 11.5652 14.5144 11.6705C14.5144 11.9202 14.4545 12.1172 14.3349 12.2616C14.2152 12.406 14.0732 12.4778 13.9097 12.4778C13.7597 12.4778 13.6201 12.3989 13.4916 12.2401C13.3624 12.0821 13.2188 11.8556 13.0593 11.5612C12.9093 11.2947 12.7441 11.1017 12.5638 10.982C12.3835 10.8624 12.1873 10.8033 11.9767 10.8033C11.6488 10.8033 11.2978 10.9397 10.9252 11.2118C10.5527 11.4838 10.1833 11.8436 9.81793 12.2904C9.45255 12.7371 9.10153 13.2477 8.76647 13.8229C8.43141 14.3973 8.13464 14.986 7.87696 15.5883C7.61928 16.1906 7.41426 16.785 7.26188 17.3705C7.10951 17.9561 7.03372 18.4826 7.03372 18.9493C7.03372 19.1049 7.04409 19.2644 7.06563 19.428C7.08717 19.5915 7.12626 19.7407 7.1853 19.8739C7.24353 20.0072 7.32331 20.1173 7.42463 20.2026C7.52515 20.2888 7.65279 20.3319 7.80756 20.3319C7.98067 20.3319 8.17772 20.2736 8.3979 20.1571C8.61809 20.0407 8.84705 19.8883 9.08318 19.6992C9.32012 19.5101 9.55786 19.2963 9.79719 19.0578C10.0365 18.8193 10.2591 18.5776 10.4649 18.3334C10.6707 18.0893 10.8542 17.8548 11.013 17.6298C11.1725 17.4048 11.2922 17.2094 11.3712 17.0427L12.0253 15.0857C12.1051 14.8751 12.2096 14.7251 12.3381 14.6358C12.4673 14.5472 12.5997 14.5026 12.7354 14.5026C12.8008 14.5026 12.8662 14.5137 12.9324 14.5361C12.9978 14.5584 13.0569 14.5927 13.1079 14.6406C13.1598 14.6877 13.2005 14.7491 13.2308 14.8241C13.2611 14.8991 13.2762 14.9868 13.2762 15.0865C13.2762 15.353 13.2531 15.6027 13.206 15.8364C13.159 16.0702 13.0991 16.2975 13.0265 16.5193C12.9539 16.7411 12.8734 16.9653 12.784 17.1894C12.6963 17.4128 12.6093 17.6474 12.5255 17.8923ZM21.3919 19.5245C21.1853 19.8021 20.9452 20.0726 20.6715 20.3366C20.3971 20.6007 20.1147 20.8352 19.8243 21.0403C19.5339 21.2453 19.2475 21.4104 18.9667 21.5357C18.6851 21.6609 18.4322 21.7232 18.2072 21.7232C17.9823 21.7232 17.7996 21.6482 17.6584 21.4982C17.518 21.3482 17.4478 21.0929 17.4478 20.7315C17.4478 20.4762 17.4853 20.1787 17.5603 19.8404C17.4382 20.0574 17.2858 20.2768 17.1031 20.4986C16.9204 20.7204 16.7114 20.923 16.4769 21.1065C16.2423 21.29 15.9799 21.4384 15.6895 21.5516C15.3991 21.6657 15.0824 21.7224 14.7401 21.7224C14.5854 21.7224 14.4362 21.7032 14.2934 21.6641C14.1506 21.625 14.0254 21.5588 13.9177 21.4647C13.81 21.3705 13.723 21.2445 13.6576 21.0857C13.5922 20.9278 13.5595 20.7291 13.5595 20.4906C13.5595 20.485 13.569 20.4005 13.5874 20.2369C13.6057 20.0734 13.6656 19.8149 13.7669 19.4623C13.8674 19.1097 14.0238 18.6533 14.2344 18.0925C14.4458 17.5317 14.7433 16.852 15.1271 16.0518C15.2252 15.8412 15.3393 15.6896 15.4677 15.5979C15.597 15.5062 15.7358 15.4607 15.8857 15.4607C15.9512 15.4607 16.019 15.4703 16.09 15.4894C16.1602 15.5093 16.2256 15.5397 16.287 15.5811C16.3476 15.6226 16.3971 15.6753 16.4346 15.7391C16.4721 15.8029 16.4912 15.8763 16.4912 15.9601C16.4912 16.0159 16.4841 16.0686 16.4697 16.118C16.4466 16.213 16.3963 16.3358 16.3181 16.489C16.2407 16.6422 16.1506 16.8169 16.0477 17.0139C15.9448 17.211 15.8355 17.4232 15.7206 17.6514C15.6057 17.8787 15.4988 18.1149 15.4007 18.359C15.3026 18.6031 15.218 18.852 15.1478 19.1041C15.0776 19.357 15.0377 19.6027 15.0281 19.8412C15.0281 19.9409 15.0513 20.0327 15.0983 20.1165C15.1454 20.1994 15.2228 20.2417 15.3305 20.2417C15.6352 20.2417 15.9256 20.142 16.2025 19.9417C16.4793 19.7423 16.7346 19.4934 16.9691 19.1966C17.2037 18.8999 17.4159 18.5808 17.6057 18.2385C17.7956 17.8971 17.9544 17.5851 18.0804 17.3019C18.1697 17.1129 18.2479 16.9102 18.3157 16.694C18.3835 16.4778 18.4577 16.2776 18.5375 16.0941C18.6173 15.9106 18.7082 15.7583 18.812 15.6362C18.9149 15.5141 19.0441 15.4527 19.1989 15.4527C19.3672 15.4527 19.5012 15.5165 19.5993 15.6442C19.6975 15.7718 19.7469 15.925 19.7469 16.1021C19.7469 16.2018 19.7158 16.3398 19.652 16.5145C19.5882 16.6892 19.5092 16.8895 19.4127 17.1145C19.3169 17.3394 19.2124 17.5796 19.0999 17.8348C18.9875 18.0901 18.883 18.3502 18.7872 18.6135C18.6907 18.8775 18.6117 19.1352 18.5479 19.3881C18.4849 19.641 18.453 19.8755 18.453 20.0917C18.453 20.292 18.5559 20.3917 18.7625 20.3917C18.9077 20.3917 19.088 20.3414 19.3042 20.2417C19.5204 20.142 19.7461 20.0016 19.9831 19.8213C20.22 19.641 20.4561 19.4288 20.6931 19.1839C20.93 18.9397 21.1398 18.6757 21.3225 18.3925L21.3919 19.5245Z" fill="white"/>
<path d="M21.6101 19.1081C21.5582 19.2357 21.5079 19.3841 21.4585 19.5541C21.409 19.7232 21.3851 19.8748 21.3851 20.008C21.3851 20.091 21.3994 20.158 21.4274 20.2082C21.4553 20.2585 21.5095 20.2832 21.5893 20.2832C21.6874 20.2832 21.8103 20.2489 21.9587 20.1787C22.1063 20.1093 22.2658 20.0176 22.4365 19.9035C22.6081 19.7902 22.786 19.6594 22.971 19.5118C23.1561 19.365 23.3404 19.2118 23.5231 19.0539C23.7058 18.8951 23.8805 18.7371 24.0472 18.5792C24.214 18.4204 24.3624 18.2752 24.494 18.142C24.5315 18.1029 24.5762 18.075 24.6272 18.059C24.6783 18.0423 24.7229 18.0343 24.7604 18.0343C24.8538 18.0343 24.932 18.0734 24.9926 18.1508C25.0532 18.2282 25.0835 18.3311 25.0835 18.4587C25.0835 18.5752 25.0508 18.706 24.9854 18.8504C24.92 18.9948 24.8051 19.1368 24.6408 19.2748C24.3408 19.6027 24.0385 19.913 23.7337 20.2074C23.429 20.5018 23.1258 20.7611 22.8235 20.986C22.5211 21.211 22.2211 21.3897 21.9236 21.5237C21.626 21.657 21.3364 21.7232 21.0548 21.7232C20.8625 21.7232 20.7022 21.6929 20.573 21.6314C20.4437 21.57 20.3408 21.487 20.2634 21.3817C20.186 21.2764 20.131 21.1512 20.0983 21.0068C20.0656 20.8624 20.0488 20.71 20.0488 20.5489C20.0488 20.2768 20.0831 19.9976 20.1509 19.712C20.2188 19.4264 20.2993 19.1639 20.3935 18.9254C20.5578 18.4922 20.7237 18.0622 20.8929 17.6346C21.0612 17.207 21.216 16.8153 21.3572 16.4603L23.4872 11.0882C23.5718 10.872 23.685 10.7188 23.8286 10.6302C23.9714 10.5417 24.1158 10.497 24.261 10.497C24.4062 10.497 24.5387 10.5441 24.6583 10.6382C24.778 10.7324 24.8378 10.8855 24.8378 11.0961C24.8378 11.1959 24.8179 11.302 24.778 11.4128C24.7381 11.5237 24.6878 11.6434 24.6272 11.771C24.5099 12.0319 24.3703 12.351 24.2092 12.7284C24.0472 13.1057 23.8741 13.5166 23.689 13.9609C23.504 14.4053 23.3141 14.8672 23.1194 15.3474C22.9248 15.8277 22.7349 16.2952 22.5498 16.7507C22.3647 17.2062 22.1916 17.6378 22.0297 18.0455C21.8661 18.4539 21.7265 18.8081 21.6101 19.1081Z" fill="white"/>
<path d="M31.5747 17.6002C31.6401 17.5555 31.7015 17.5196 31.7574 17.4917C31.8132 17.4638 31.8675 17.4502 31.9193 17.4502C32.0222 17.4502 32.0996 17.4965 32.1515 17.5874C32.2033 17.6792 32.2289 17.7917 32.2289 17.9249C32.2289 18.0693 32.1977 18.2161 32.1339 18.366C32.0709 18.516 31.976 18.6405 31.8491 18.741C31.3473 19.1854 30.8998 19.5906 30.5065 19.9568C30.1124 20.323 29.7414 20.6381 29.392 20.9021C29.0426 21.1662 28.7019 21.3696 28.3693 21.514C28.0366 21.6584 27.68 21.7302 27.3003 21.7302C26.9437 21.7302 26.6684 21.652 26.4738 21.4973C26.2791 21.3417 26.1818 21.1279 26.1818 20.8559V20.7937C26.1818 20.7745 26.1842 20.7506 26.189 20.7226C26.2073 20.5559 26.2807 20.3645 26.4068 20.1483C26.5336 19.9321 26.686 19.7071 26.8639 19.4733C27.0418 19.2396 27.2316 19.0043 27.4335 18.7657C27.6353 18.5272 27.8212 18.3006 27.9927 18.0868C28.1634 17.873 28.3054 17.6776 28.4179 17.4997C28.5304 17.3218 28.5871 17.1782 28.5871 17.0665C28.5871 16.9995 28.5631 16.9468 28.5169 16.9085C28.4698 16.8694 28.3924 16.8503 28.2847 16.8503C28.0972 16.8503 27.9042 16.899 27.7047 16.9963C27.5053 17.0936 27.3082 17.2236 27.1144 17.3872C26.9197 17.5507 26.7299 17.7382 26.5448 17.9496C26.3597 18.161 26.1866 18.3796 26.0246 18.6078C25.8627 18.8359 25.7151 19.0641 25.5819 19.2946C25.4486 19.5252 25.3346 19.7374 25.2412 19.9321C25.2133 19.9935 25.1734 20.0797 25.1216 20.1905C25.0697 20.3014 25.0139 20.4267 24.9532 20.5655C24.8918 20.7043 24.828 20.8471 24.7594 20.9939C24.6916 21.1415 24.6293 21.2803 24.5735 21.4103C24.5168 21.5412 24.4666 21.6568 24.4219 21.7605C24.3772 21.8635 24.3453 21.9337 24.327 21.9727C24.303 22.023 24.2648 22.1171 24.2105 22.256C24.1563 22.3948 24.0948 22.5567 24.0238 22.7434C23.9536 22.9293 23.8794 23.1247 23.8028 23.3305C23.7255 23.5364 23.6529 23.7302 23.5851 23.9137C23.5172 24.0972 23.4574 24.2576 23.4056 24.3964C23.3537 24.5352 23.321 24.6293 23.3066 24.6796C23.2596 24.824 23.2045 24.9596 23.1415 25.088C23.0785 25.2157 23.0059 25.3282 22.9237 25.4255C22.8415 25.5228 22.7482 25.6002 22.6421 25.6584C22.5368 25.7167 22.4179 25.7454 22.2871 25.7454C22.118 25.7454 21.9792 25.7047 21.8683 25.6249C21.7582 25.5444 21.7031 25.3904 21.7031 25.163C21.7031 25.0521 21.7175 24.938 21.7454 24.8216C21.7733 24.7051 21.8092 24.5894 21.8507 24.4761C21.893 24.3621 21.9361 24.2512 21.9807 24.1435C22.0254 24.035 22.0661 23.9313 22.1036 23.8307C22.3565 23.2755 22.615 22.7187 22.8774 22.161C23.1399 21.6026 23.392 21.0505 23.6329 20.5033C23.8746 19.9568 24.098 19.4191 24.3046 18.8918C24.5105 18.3645 24.682 17.8587 24.8176 17.376C24.8551 17.2763 24.907 17.1343 24.9724 16.9508C25.0378 16.7673 25.1128 16.587 25.1973 16.4091C25.2819 16.2312 25.3768 16.0773 25.4821 15.9472C25.5875 15.8164 25.7015 15.7518 25.8228 15.7518C26.0103 15.7518 26.1459 15.7948 26.2305 15.881C26.315 15.9672 26.3573 16.0932 26.3573 16.2599C26.3573 16.2934 26.3525 16.3461 26.3429 16.4179C26.3334 16.4897 26.3214 16.5663 26.3078 16.6469C26.2935 16.7274 26.2783 16.804 26.2624 16.8758C26.2456 16.9476 26.2305 17.0003 26.2169 17.0338C26.39 16.8447 26.5775 16.658 26.7793 16.4714C26.9812 16.2855 27.1894 16.1171 27.4056 15.9672C27.621 15.8172 27.8411 15.6951 28.0661 15.6002C28.2911 15.5061 28.5161 15.459 28.741 15.459C28.8958 15.459 29.049 15.4813 29.2013 15.526C29.3537 15.5707 29.4893 15.6353 29.609 15.7215C29.7287 15.8076 29.826 15.9161 29.901 16.0461C29.976 16.177 30.0135 16.3278 30.0135 16.5001C30.0135 16.7282 29.956 16.9708 29.8411 17.2292C29.7263 17.4877 29.5819 17.747 29.4088 18.0078C29.2348 18.2687 29.0474 18.5232 28.8463 18.7697C28.6445 19.017 28.4562 19.242 28.2799 19.4446C28.1044 19.6473 27.9568 19.8196 27.8372 19.9608C27.7175 20.1028 27.6553 20.1985 27.6505 20.248C27.6505 20.315 27.672 20.3684 27.7135 20.4107C27.755 20.453 27.826 20.4729 27.9249 20.4729C28.0047 20.4729 28.122 20.4283 28.2767 20.3397C28.4315 20.2512 28.6485 20.0972 28.9269 19.8778C29.2053 19.6584 29.5595 19.3641 29.9887 18.9947C30.4179 18.6261 30.9469 18.161 31.5747 17.6002Z" fill="white"/>
</g>
<defs>
<clipPath id="clip0_214_1770">
<rect x="0.296875" y="0.121094" width="35" height="35" rx="6" fill="white"/>
</clipPath>
</defs>
</svg>
