<svg width="15" height="12" viewBox="0 0 15 12" fill="none" xmlns="http://www.w3.org/2000/svg">
<path d="M2.43034 1.93559L6.5021 5.01043L6.50345 5.01156C6.95557 5.34311 7.18176 5.50898 7.42951 5.57306C7.64849 5.6297 7.87868 5.6297 8.09766 5.57306C8.34562 5.50893 8.57248 5.34257 9.02539 5.01043C9.02539 5.01043 11.6371 3.00621 13.097 1.93559M1.76367 8.46905V3.40238C1.76367 2.65565 1.76367 2.282 1.909 1.99679C2.03683 1.7459 2.24065 1.54208 2.49154 1.41425C2.77675 1.26892 3.1504 1.26892 3.89714 1.26892H11.6305C12.3772 1.26892 12.7501 1.26892 13.0353 1.41425C13.2862 1.54208 13.4907 1.7459 13.6185 1.99679C13.7637 2.28172 13.7637 2.65492 13.7637 3.40019V8.47131C13.7637 9.21658 13.7637 9.58924 13.6185 9.87418C13.4907 10.1251 13.2862 10.3292 13.0353 10.4571C12.7503 10.6023 12.3777 10.6023 11.6324 10.6023H3.89495C3.14967 10.6023 2.77647 10.6023 2.49154 10.4571C2.24065 10.3292 2.03683 10.1251 1.909 9.87418C1.76367 9.58896 1.76367 9.21579 1.76367 8.46905Z" stroke="#3D64F4" stroke-width="2" stroke-linecap="round" stroke-linejoin="round"/>
</svg>
