<svg width="15" height="15" viewBox="0 0 15 15" fill="none" xmlns="http://www.w3.org/2000/svg">
<path d="M5.46388 2.77369L4.5354 3.14508L4.53551 3.14534L5.46388 2.77369ZM6.16735 4.53094L7.09583 4.15955L7.09572 4.15929L6.16735 4.53094ZM5.95312 5.87975L6.72113 6.52019L6.72135 6.51993L5.95312 5.87975ZM5.57487 6.33334L4.80687 5.69289L4.80665 5.69315L5.57487 6.33334ZM5.65705 8.12958L6.36448 7.4228L6.36416 7.42248L5.65705 8.12958ZM6.93437 9.40807L6.22694 10.1149L6.22726 10.1152L6.93437 9.40807ZM8.73125 9.48933L9.37144 10.2576L9.37175 10.2573L8.73125 9.48933ZM9.18487 9.111L8.54468 8.34278L8.54437 8.34304L9.18487 9.111ZM10.5335 8.8975L10.1621 9.82598L10.1623 9.82603L10.5335 8.8975ZM12.2912 9.6003L12.6625 8.67182L12.6624 8.67177L12.2912 9.6003ZM13.1292 10.8382L14.1292 10.8384V10.8382H13.1292ZM13.1289 12.6723L12.1289 12.6722V12.6723H13.1289ZM4.22591 2.93555C4.36221 2.93555 4.48478 3.01853 4.5354 3.14508L6.39236 2.4023C6.03801 1.51643 5.18002 0.935547 4.22591 0.935547V2.93555ZM4.53551 3.14534L5.23898 4.90259L7.09572 4.15929L6.39225 2.40204L4.53551 3.14534ZM5.23887 4.90233C5.28402 5.01519 5.26385 5.14483 5.1849 5.23956L6.72135 6.51993C7.26945 5.86221 7.41445 4.95611 7.09583 4.15955L5.23887 4.90233ZM5.18512 5.2393L4.80687 5.69289L6.34287 6.97378L6.72113 6.52019L5.18512 5.2393ZM4.80665 5.69315C4.03344 6.621 4.0973 7.98405 4.94995 8.83669L6.36416 7.42248C6.24156 7.29987 6.23335 7.1052 6.34309 6.97352L4.80665 5.69315ZM4.94962 8.83637L6.22694 10.1149L7.6418 8.70129L6.36448 7.4228L4.94962 8.83637ZM6.22726 10.1152C7.08085 10.9688 8.44461 11.0299 9.37144 10.2576L8.09107 8.72111C7.95836 8.8317 7.76314 8.82262 7.64148 8.70096L6.22726 10.1152ZM9.37175 10.2573L9.82537 9.87896L8.54437 8.34304L8.09075 8.72137L9.37175 10.2573ZM9.82505 9.87922C9.91891 9.80101 10.0482 9.78041 10.1621 9.82598L10.9049 7.96903C10.1094 7.65083 9.20328 7.79395 8.54468 8.34278L9.82505 9.87922ZM10.1623 9.82603L11.9199 10.5288L12.6624 8.67177L10.9048 7.96898L10.1623 9.82603ZM11.9198 10.5288C12.0463 10.5794 12.1292 10.7018 12.1292 10.8382H14.1292C14.1292 9.88411 13.5485 9.02618 12.6625 8.67182L11.9198 10.5288ZM12.1292 10.838L12.1289 12.6722L14.1289 12.6725L14.1292 10.8384L12.1292 10.838ZM12.1289 12.6723C12.1289 12.8179 12.011 12.9355 11.8659 12.9355V14.9355C13.116 14.9355 14.1289 13.9221 14.1289 12.6723H12.1289ZM11.8659 12.9355C6.48838 12.9355 2.12891 8.57608 2.12891 3.19857H0.128906C0.128906 9.68065 5.38381 14.9355 11.8659 14.9355V12.9355ZM2.12891 3.19857C2.12891 3.05337 2.24658 2.93555 2.39206 2.93555V0.935547C1.1423 0.935547 0.128906 1.94852 0.128906 3.19857H2.12891ZM2.39206 2.93555H4.22591V0.935547H2.39206V2.93555Z" fill="#3D64F4"/>
</svg>
