<svg width="32" height="36" viewBox="0 0 32 36" fill="none" xmlns="http://www.w3.org/2000/svg">
<g clip-path="url(#clip0_214_1717)">
<path d="M2.82314 31.4548L0.244141 0.179565L31.0441 0.242415L28.3171 31.4548L15.7604 35.0626L2.82314 31.4548Z" fill="#E9CA32"/>
<path d="M15.7617 32.0422V3.1582L28.4454 3.2001L26.1835 29.0425L15.7617 32.0422Z" fill="#FFDE25"/>
<path d="M14.4023 6.58771H11.0491V25.8122L8.44102 25.3193V22.7313L5.33618 22.2384V28.0304L14.4023 30.3718V6.58771ZM16.9177 6.58771H26.2007L25.5797 10.2724H20.4615V16.319H25.5797L24.9588 28.5233L16.9177 30.3718V26.5516L22.3507 24.7031L22.6644 19.6505L16.9177 20.4762V6.58771Z" fill="white"/>
</g>
<defs>
<clipPath id="clip0_214_1717">
<rect width="30.8" height="35" fill="white" transform="translate(0.244141 0.121094)"/>
</clipPath>
</defs>
</svg>
