<svg width="36" height="36" viewBox="0 0 36 36" fill="none" xmlns="http://www.w3.org/2000/svg">
<g clip-path="url(#clip0_293_3034)">
<circle cx="19.3203" cy="17.6685" r="16.5" fill="white"/>
<path d="M17.1752 0.195872C17.1 0.202708 16.8607 0.226631 16.6454 0.243719C11.6796 0.691429 7.0282 3.37086 4.0822 7.48911C2.44174 9.77892 1.39252 12.3763 0.996078 15.1275C0.855955 16.0879 0.838867 16.3715 0.838867 17.6737C0.838867 18.9758 0.855955 19.2594 0.996078 20.2198C1.94618 26.7851 6.61809 32.3011 12.9544 34.3449C14.089 34.7106 15.2852 34.9601 16.6454 35.1104C17.1752 35.1685 19.465 35.1685 19.9947 35.1104C22.3426 34.8507 24.3317 34.2697 26.2934 33.2683C26.5942 33.1145 26.6523 33.0735 26.6113 33.0393C26.5839 33.0188 25.3023 31.2998 23.7644 29.2218L20.9687 25.4454L17.4657 20.2608C15.5381 17.4105 13.9523 15.0797 13.9387 15.0797C13.925 15.0763 13.9113 17.3797 13.9045 20.1925C13.8942 25.1173 13.8908 25.3155 13.8293 25.4317C13.7404 25.5992 13.6721 25.6675 13.5285 25.7427C13.4192 25.7974 13.3235 25.8076 12.8074 25.8076H12.2162L12.059 25.7085C11.9564 25.6436 11.8812 25.5581 11.83 25.459L11.7582 25.3052L11.765 18.4529L11.7753 11.5971L11.8812 11.4638C11.9359 11.392 12.0521 11.2998 12.1342 11.2553C12.2743 11.187 12.329 11.1802 12.9202 11.1802C13.6174 11.1802 13.7336 11.2075 13.9147 11.4057C13.966 11.4604 15.8628 14.3175 18.1321 17.7591C20.4014 21.2007 23.5046 25.8999 25.0289 28.2068L27.7972 32.4002L27.9373 32.308C29.1779 31.5014 30.4903 30.3531 31.5292 29.1569C33.7404 26.6176 35.1656 23.5212 35.6441 20.2198C35.7842 19.2594 35.8013 18.9758 35.8013 17.6737C35.8013 16.3715 35.7842 16.0879 35.6441 15.1275C34.694 8.56224 30.0221 3.04618 23.6858 1.00243C22.5682 0.640165 21.3789 0.390677 20.046 0.240302C19.7179 0.206125 17.4588 0.168531 17.1752 0.195872ZM24.3317 10.77C24.4957 10.8521 24.629 11.0093 24.6769 11.1733C24.7042 11.2622 24.711 13.1624 24.7042 17.4447L24.694 23.5896L23.6106 21.9286L22.5238 20.2676V15.8008C22.5238 12.9129 22.5374 11.2895 22.5579 11.2109C22.6126 11.0195 22.7322 10.8691 22.8963 10.7803C23.0364 10.7085 23.0877 10.7017 23.6242 10.7017C24.1301 10.7017 24.2189 10.7085 24.3317 10.77Z" fill="black"/>
<path d="M27.6267 32.4754C27.5071 32.5506 27.4695 32.6018 27.5754 32.5437C27.6506 32.4993 27.7736 32.407 27.7531 32.4036C27.7429 32.4036 27.6848 32.4378 27.6267 32.4754ZM27.3909 32.6292C27.3294 32.677 27.3294 32.6805 27.4045 32.6429C27.4456 32.6224 27.4797 32.5984 27.4797 32.5916C27.4797 32.5643 27.4626 32.5711 27.3909 32.6292ZM27.22 32.7317C27.1585 32.7796 27.1585 32.783 27.2337 32.7454C27.2747 32.7249 27.3088 32.701 27.3088 32.6941C27.3088 32.6668 27.2918 32.6736 27.22 32.7317ZM27.0491 32.8342C26.9876 32.8821 26.9876 32.8855 27.0628 32.8479C27.1038 32.8274 27.138 32.8035 27.138 32.7967C27.138 32.7693 27.1209 32.7761 27.0491 32.8342ZM26.7894 32.971C26.6595 33.0393 26.6663 33.0666 26.7962 33.0017C26.8543 32.971 26.8987 32.9402 26.8987 32.9334C26.8987 32.9094 26.8953 32.9129 26.7894 32.971Z" fill="black"/>
</g>
<defs>
<clipPath id="clip0_293_3034">
<rect width="35" height="35" fill="white" transform="translate(0.820312 0.168518)"/>
</clipPath>
</defs>
</svg>
