<svg width="37" height="36" viewBox="0 0 37 36" fill="none" xmlns="http://www.w3.org/2000/svg">
<g clip-path="url(#clip0_214_1682)">
<path d="M7.10333 0.124695H30.4737C34.017 0.124695 36.8818 2.96599 36.8818 6.48023V28.762C36.8818 32.2762 34.017 35.1175 30.4737 35.1175H7.10333C3.56007 35.1175 0.695312 32.2762 0.695312 28.762V6.48023C0.695312 2.96599 3.56007 0.124695 7.10333 0.124695Z" fill="#001E36"/>
<path d="M8.83594 24.6646V9.27668C8.83594 9.172 8.88117 9.11219 8.98671 9.11219C9.24303 9.11219 9.48428 9.11219 9.83106 9.09723C10.1929 9.08228 10.5699 9.08228 10.977 9.06732C11.3841 9.05237 11.8213 9.05237 12.2887 9.03741C12.7561 9.02246 13.2085 9.02246 13.6608 9.02246C14.8972 9.02246 15.9224 9.172 16.7668 9.48604C17.5207 9.74026 18.2143 10.159 18.7872 10.7123C19.2697 11.1908 19.6466 11.774 19.8879 12.4171C20.114 13.0451 20.2347 13.6882 20.2347 14.3611C20.2347 15.6472 19.9331 16.7089 19.33 17.5464C18.7269 18.3838 17.8825 19.0119 16.9025 19.3708C15.8772 19.7446 14.7464 19.8792 13.51 19.8792C13.1482 19.8792 12.9069 19.8792 12.7561 19.8643C12.6054 19.8493 12.3943 19.8493 12.1078 19.8493V24.6496C12.1229 24.7543 12.0475 24.844 11.9419 24.859H9.01687C8.89625 24.859 8.83594 24.7991 8.83594 24.6646ZM12.1229 11.9983V17.023C12.334 17.0379 12.53 17.0529 12.7109 17.0529H13.51C14.098 17.0529 14.6861 16.9631 15.244 16.7837C15.7264 16.6491 16.1486 16.365 16.4803 15.9911C16.797 15.6173 16.9477 15.1088 16.9477 14.4508C16.9628 13.9873 16.8422 13.5237 16.6009 13.1199C16.3446 12.7311 15.9828 12.432 15.5455 12.2675C14.9876 12.0432 14.3845 11.9535 13.7663 11.9684C13.3743 11.9684 13.0275 11.9684 12.7411 11.9834C12.4395 11.9684 12.2284 11.9834 12.1229 11.9983ZM29.6431 16.1108C29.1908 15.8715 28.7083 15.707 28.1957 15.6023C27.6378 15.4827 27.0799 15.4079 26.507 15.4079C26.2054 15.3929 25.8888 15.4378 25.6023 15.5126C25.4063 15.5574 25.2405 15.6621 25.1349 15.8117C25.0595 15.9313 25.0143 16.0808 25.0143 16.2154C25.0143 16.35 25.0746 16.4846 25.1651 16.6042C25.3008 16.7687 25.4817 16.9033 25.6777 17.008C26.0245 17.1875 26.3864 17.3519 26.7482 17.5015C27.5624 17.7707 28.3465 18.1445 29.0702 18.5931C29.5678 18.9072 29.9749 19.3259 30.2613 19.8343C30.5026 20.3129 30.6232 20.8363 30.6081 21.3746C30.6232 22.0775 30.4121 22.7803 30.0201 23.3635C29.5979 23.9617 29.0099 24.4253 28.3314 24.6945C27.5926 25.0085 26.6879 25.173 25.6023 25.173C24.9087 25.173 24.2303 25.1132 23.5518 24.9786C23.024 24.8889 22.4963 24.7244 22.0138 24.5001C21.9083 24.4402 21.8329 24.3356 21.848 24.2159V21.6139C21.848 21.569 21.8631 21.5092 21.9083 21.4793C21.9535 21.4494 21.9988 21.4644 22.044 21.4943C22.632 21.8382 23.2502 22.0775 23.9136 22.227C24.4866 22.3766 25.0897 22.4513 25.6928 22.4513C26.2657 22.4513 26.6728 22.3766 26.9442 22.242C27.1855 22.1373 27.3513 21.8831 27.3513 21.6139C27.3513 21.4045 27.2307 21.2101 26.9895 21.0157C26.7482 20.8213 26.2507 20.597 25.5119 20.3129C24.7429 20.0437 24.0342 19.6848 23.3708 19.2362C22.9034 18.9072 22.5114 18.4735 22.2249 17.9651C21.9837 17.4865 21.8631 16.9631 21.8781 16.4397C21.8781 15.7967 22.0591 15.1836 22.3908 14.6303C22.7677 14.0321 23.3256 13.5536 23.9739 13.2545C24.6826 12.8956 25.5722 12.7311 26.6427 12.7311C27.2609 12.7311 27.8941 12.776 28.5123 12.8657C28.9646 12.9255 29.4019 13.0451 29.809 13.2096C29.8693 13.2246 29.9296 13.2844 29.9598 13.3442C29.9749 13.404 29.9899 13.4639 29.9899 13.5237V15.9612C29.9899 16.021 29.9598 16.0808 29.9145 16.1108C29.7788 16.1407 29.7035 16.1407 29.6431 16.1108Z" fill="#31A8FF"/>
</g>
<defs>
<clipPath id="clip0_214_1682">
<rect width="36.1864" height="35" fill="white" transform="translate(0.695312 0.121094)"/>
</clipPath>
</defs>
</svg>
