<svg width="36" height="36" viewBox="0 0 36 36" fill="none" xmlns="http://www.w3.org/2000/svg">
<g clip-path="url(#clip0_293_3064)">
<path d="M26.179 7.36206H27.8457C28.3124 7.36206 28.679 7.72873 28.679 8.19539C28.679 8.66206 28.3124 9.02873 27.8457 9.02873H26.179C25.7124 9.02873 25.3457 8.66206 25.3457 8.19539C25.3457 7.72873 25.7124 7.36206 26.179 7.36206Z" fill="#56B3B4"/>
<path d="M1.17904 34.0287H9.51237C9.97904 34.0287 10.3457 34.3954 10.3457 34.862C10.3457 35.3287 9.97904 35.6954 9.51237 35.6954H1.17904C0.71237 35.6954 0.345703 35.3287 0.345703 34.862C0.345703 34.3954 0.71237 34.0287 1.17904 34.0287Z" fill="#EA5E5E"/>
<path d="M21.179 20.6954H26.179C26.6457 20.6954 27.0124 21.062 27.0124 21.5287C27.0124 21.9954 26.6457 22.362 26.179 22.362H21.179C20.7124 22.362 20.3457 21.9954 20.3457 21.5287C20.3457 21.062 20.7124 20.6954 21.179 20.6954Z" fill="#BF85BF"/>
<path d="M11.179 20.6954H17.8457C18.3124 20.6954 18.679 21.062 18.679 21.5287C18.679 21.9954 18.3124 22.362 17.8457 22.362H11.179C10.7124 22.362 10.3457 21.9954 10.3457 21.5287C10.3457 21.062 10.7124 20.6954 11.179 20.6954Z" fill="#EA5E5E"/>
<path d="M1.17904 20.6954H7.8457C8.31237 20.6954 8.67904 21.062 8.67904 21.5287C8.67904 21.9954 8.31237 22.362 7.8457 22.362H1.17904C0.71237 22.362 0.345703 21.9954 0.345703 21.5287C0.345703 21.062 0.71237 20.6954 1.17904 20.6954Z" fill="#56B3B4"/>
<path d="M1.17904 27.3621H9.51237C9.97904 27.3621 10.3457 27.7287 10.3457 28.1954C10.3457 28.6621 9.97904 29.0287 9.51237 29.0287H1.17904C0.71237 29.0287 0.345703 28.6621 0.345703 28.1954C0.345703 27.7287 0.71237 27.3621 1.17904 27.3621Z" fill="#BF85BF"/>
<path d="M1.17904 14.0287H9.51237C9.97904 14.0287 10.3457 14.3954 10.3457 14.862C10.3457 15.3287 9.97904 15.6954 9.51237 15.6954H1.17904C0.71237 15.6954 0.345703 15.3287 0.345703 14.862C0.345703 14.3954 0.71237 14.0287 1.17904 14.0287Z" fill="#BF85BF"/>
<path d="M9.51204 4.02869H26.1787C26.6454 4.02869 27.012 4.39535 27.012 4.86202C27.012 5.32869 26.6454 5.69535 26.1787 5.69535H9.51204C9.04538 5.69535 8.67871 5.32869 8.67871 4.86202C8.67871 4.39535 9.04538 4.02869 9.51204 4.02869Z" fill="#F7BA3E"/>
<path d="M1.17904 4.02869H6.17904C6.6457 4.02869 7.01237 4.39535 7.01237 4.86202C7.01237 5.32869 6.6457 5.69535 6.17904 5.69535H1.17904C0.71237 5.69535 0.345703 5.32869 0.345703 4.86202C0.345703 4.39535 0.71237 4.02869 1.17904 4.02869Z" fill="#EA5E5E"/>
<path d="M7.84603 30.6954H9.5127C9.97936 30.6954 10.346 31.062 10.346 31.5287C10.346 31.9954 9.97936 32.362 9.5127 32.362H7.84603C7.37936 32.362 7.0127 31.9954 7.0127 31.5287C7.0127 31.062 7.37936 30.6954 7.84603 30.6954Z" fill="#F7BA3E"/>
<path d="M7.84603 10.6954H9.5127C9.97936 10.6954 10.346 11.062 10.346 11.5287C10.346 11.9954 9.97936 12.362 9.5127 12.362H7.84603C7.37936 12.362 7.0127 11.9954 7.0127 11.5287C7.0127 11.062 7.37936 10.6954 7.84603 10.6954Z" fill="#56B3B4"/>
<path d="M1.17904 30.6954H4.51237C4.97904 30.6954 5.3457 31.062 5.3457 31.5287C5.3457 31.9954 4.97904 32.362 4.51237 32.362H1.17904C0.71237 32.362 0.345703 31.9954 0.345703 31.5287C0.345703 31.062 0.71237 30.6954 1.17904 30.6954Z" fill="#56B3B4"/>
<path d="M1.17904 10.6954H4.51237C4.97904 10.6954 5.3457 11.062 5.3457 11.5287C5.3457 11.9954 4.97904 12.362 4.51237 12.362H1.17904C0.71237 12.362 0.345703 11.9954 0.345703 11.5287C0.345703 11.062 0.71237 10.6954 1.17904 10.6954Z" fill="#F7BA3E"/>
<path opacity="0.5" d="M22.846 30.6954H24.5127C24.9794 30.6954 25.346 31.062 25.346 31.5287C25.346 31.9954 24.9794 32.362 24.5127 32.362H22.846C22.3794 32.362 22.0127 31.9954 22.0127 31.5287C22.0127 31.062 22.3794 30.6954 22.846 30.6954Z" fill="#D0D4D8"/>
<path opacity="0.5" d="M12.846 30.6954H19.5127C19.9794 30.6954 20.346 31.062 20.346 31.5287C20.346 31.9954 19.9794 32.362 19.5127 32.362H12.846C12.3794 32.362 12.0127 31.9954 12.0127 31.5287C12.0127 31.062 12.3794 30.6954 12.846 30.6954Z" fill="#D0D4D8"/>
<path opacity="0.5" d="M27.846 30.6954H34.5127C34.9794 30.6954 35.346 31.062 35.346 31.5287C35.346 31.9954 34.9794 32.362 34.5127 32.362H27.846C27.3794 32.362 27.0127 31.9954 27.0127 31.5287C27.0127 31.062 27.3794 30.6954 27.846 30.6954Z" fill="#D0D4D8"/>
<path d="M14.512 17.3621H27.8454C28.312 17.3621 28.6787 17.7287 28.6787 18.1954C28.6787 18.6621 28.312 19.0287 27.8454 19.0287H14.512C14.0454 19.0287 13.6787 18.6621 13.6787 18.1954C13.6787 17.7287 14.0454 17.3621 14.512 17.3621Z" fill="#56B3B4"/>
<path d="M6.17904 17.3621H11.179C11.6457 17.3621 12.0124 17.7287 12.0124 18.1954C12.0124 18.6621 11.6457 19.0287 11.179 19.0287H6.17904C5.71237 19.0287 5.3457 18.6621 5.3457 18.1954C5.3457 17.7287 5.71237 17.3621 6.17904 17.3621Z" fill="#F7BA3E"/>
<path d="M1.17904 17.3621H2.8457C3.31237 17.3621 3.67904 17.7287 3.67904 18.1954C3.67904 18.6621 3.31237 19.0287 2.8457 19.0287H1.17904C0.71237 19.0287 0.345703 18.6621 0.345703 18.1954C0.345703 17.7287 0.71237 17.3621 1.17904 17.3621Z" fill="#EA5E5E"/>
<path d="M16.179 7.36206H22.8457C23.3124 7.36206 23.679 7.72873 23.679 8.19539C23.679 8.66206 23.3124 9.02873 22.8457 9.02873H16.179C15.7124 9.02873 15.3457 8.66206 15.3457 8.19539C15.3457 7.72873 15.7124 7.36206 16.179 7.36206Z" fill="#BF85BF"/>
<path d="M1.17904 7.36206H12.8457C13.3124 7.36206 13.679 7.72873 13.679 8.19539C13.679 8.66206 13.3124 9.02873 12.8457 9.02873H1.17904C0.71237 9.02873 0.345703 8.66206 0.345703 8.19539C0.345703 7.72873 0.71237 7.36206 1.17904 7.36206Z" fill="#56B3B4"/>
<path d="M6.17904 24.0287H21.179C21.6457 24.0287 22.0124 24.3954 22.0124 24.862C22.0124 25.3287 21.6457 25.6954 21.179 25.6954H6.17904C5.71237 25.6954 5.3457 25.3287 5.3457 24.862C5.3457 24.3954 5.71237 24.0287 6.17904 24.0287Z" fill="#F7BA3E"/>
<path d="M1.17904 24.0287H2.8457C3.31237 24.0287 3.67904 24.3954 3.67904 24.862C3.67904 25.3287 3.31237 25.6954 2.8457 25.6954H1.17904C0.71237 25.6954 0.345703 25.3287 0.345703 24.862C0.345703 24.3954 0.71237 24.0287 1.17904 24.0287Z" fill="#BF85BF"/>
<path d="M21.179 10.6954H29.5124C29.979 10.6954 30.3457 11.062 30.3457 11.5287C30.3457 11.9954 29.979 12.362 29.5124 12.362H21.179C20.7124 12.362 20.3457 11.9954 20.3457 11.5287C20.3457 11.062 20.7124 10.6954 21.179 10.6954Z" fill="#EA5E5E"/>
<path d="M21.179 14.0287H29.5124C29.979 14.0287 30.3457 14.3954 30.3457 14.862C30.3457 15.3287 29.979 15.6954 29.5124 15.6954H21.179C20.7124 15.6954 20.3457 15.3287 20.3457 14.862C20.3457 14.3954 20.7124 14.0287 21.179 14.0287Z" fill="#F7BA3E"/>
<path d="M1.17904 0.695374H21.179C21.6457 0.695374 22.0124 1.06204 22.0124 1.52871C22.0124 1.99537 21.6457 2.36204 21.179 2.36204H1.17904C0.71237 2.36204 0.345703 1.99537 0.345703 1.52871C0.345703 1.06204 0.71237 0.695374 1.17904 0.695374Z" fill="#56B3B4"/>
<path opacity="0.5" d="M24.512 0.695374H34.512C34.9787 0.695374 35.3454 1.06204 35.3454 1.52871C35.3454 1.99537 34.9787 2.36204 34.512 2.36204H24.512C24.0454 2.36204 23.6787 1.99537 23.6787 1.52871C23.6787 1.06204 24.0454 0.695374 24.512 0.695374Z" fill="#D0D4D8"/>
<path opacity="0.5" d="M24.512 24.0287H27.8454C28.312 24.0287 28.6787 24.3954 28.6787 24.862C28.6787 25.3287 28.312 25.6954 27.8454 25.6954H24.512C24.0454 25.6954 23.6787 25.3287 23.6787 24.862C23.6787 24.3954 24.0454 24.0287 24.512 24.0287Z" fill="#D0D4D8"/>
<path opacity="0.5" d="M31.179 24.0287H34.5124C34.979 24.0287 35.3457 24.3954 35.3457 24.862C35.3457 25.3287 34.979 25.6954 34.5124 25.6954H31.179C30.7124 25.6954 30.3457 25.3287 30.3457 24.862C30.3457 24.3954 30.7124 24.0287 31.179 24.0287Z" fill="#D0D4D8"/>
<path opacity="0.5" d="M29.512 20.6954H34.512C34.9787 20.6954 35.3454 21.062 35.3454 21.5287C35.3454 21.9954 34.9787 22.362 34.512 22.362H29.512C29.0454 22.362 28.6787 21.9954 28.6787 21.5287C28.6787 21.062 29.0454 20.6954 29.512 20.6954Z" fill="#D0D4D8"/>
<path opacity="0.5" d="M29.512 4.02869H34.512C34.9787 4.02869 35.3454 4.39535 35.3454 4.86202C35.3454 5.32869 34.9787 5.69535 34.512 5.69535H29.512C29.0454 5.69535 28.6787 5.32869 28.6787 4.86202C28.6787 4.39535 29.0454 4.02869 29.512 4.02869Z" fill="#D0D4D8"/>
<path opacity="0.5" d="M31.179 17.3621H34.5124C34.979 17.3621 35.3457 17.7287 35.3457 18.1954C35.3457 18.6621 34.979 19.0287 34.5124 19.0287H31.179C30.7124 19.0287 30.3457 18.6621 30.3457 18.1954C30.3457 17.7287 30.7124 17.3621 31.179 17.3621Z" fill="#D0D4D8"/>
<path opacity="0.5" d="M31.179 7.36206H34.5124C34.979 7.36206 35.3457 7.72873 35.3457 8.19539C35.3457 8.66206 34.979 9.02873 34.5124 9.02873H31.179C30.7124 9.02873 30.3457 8.66206 30.3457 8.19539C30.3457 7.72873 30.7124 7.36206 31.179 7.36206Z" fill="#D0D4D8"/>
<path opacity="0.5" d="M32.846 10.6954H34.5127C34.9794 10.6954 35.346 11.062 35.346 11.5287C35.346 11.9954 34.9794 12.362 34.5127 12.362H32.846C32.3794 12.362 32.0127 11.9954 32.0127 11.5287C32.0127 11.062 32.3794 10.6954 32.846 10.6954Z" fill="#D0D4D8"/>
<path opacity="0.5" d="M32.846 14.0287H34.5127C34.9794 14.0287 35.346 14.3954 35.346 14.862C35.346 15.3287 34.9794 15.6954 34.5127 15.6954H32.846C32.3794 15.6954 32.0127 15.3287 32.0127 14.862C32.0127 14.3954 32.3794 14.0287 32.846 14.0287Z" fill="#D0D4D8"/>
<path opacity="0.5" d="M19.512 27.3621H34.512C34.9787 27.3621 35.3454 27.7287 35.3454 28.1954C35.3454 28.6621 34.9787 29.0287 34.512 29.0287H19.512C19.0454 29.0287 18.6787 28.6621 18.6787 28.1954C18.6787 27.7287 19.0454 27.3621 19.512 27.3621Z" fill="#D0D4D8"/>
<path opacity="0.5" d="M12.846 27.3621H16.1794C16.646 27.3621 17.0127 27.7287 17.0127 28.1954C17.0127 28.6621 16.646 29.0287 16.1794 29.0287H12.846C12.3794 29.0287 12.0127 28.6621 12.0127 28.1954C12.0127 27.7287 12.3794 27.3621 12.846 27.3621Z" fill="#D0D4D8"/>
<path opacity="0.5" d="M26.179 34.0287H34.5124C34.979 34.0287 35.3457 34.3954 35.3457 34.862C35.3457 35.3287 34.979 35.6954 34.5124 35.6954H26.179C25.7124 35.6954 25.3457 35.3287 25.3457 34.862C25.3457 34.3954 25.7124 34.0287 26.179 34.0287Z" fill="#D0D4D8"/>
<path opacity="0.5" d="M12.846 34.0287H22.846C23.3127 34.0287 23.6794 34.3954 23.6794 34.862C23.6794 35.3287 23.3127 35.6954 22.846 35.6954H12.846C12.3794 35.6954 12.0127 35.3287 12.0127 34.862C12.0127 34.3954 12.3794 34.0287 12.846 34.0287Z" fill="#D0D4D8"/>
<path opacity="0.5" d="M12.846 10.6954H17.846C18.3127 10.6954 18.6794 11.062 18.6794 11.5287C18.6794 11.9954 18.3127 12.362 17.846 12.362H12.846C12.3794 12.362 12.0127 11.9954 12.0127 11.5287C12.0127 11.062 12.3794 10.6954 12.846 10.6954Z" fill="#D0D4D8"/>
<path opacity="0.5" d="M12.846 14.0287H17.846C18.3127 14.0287 18.6794 14.3954 18.6794 14.862C18.6794 15.3287 18.3127 15.6954 17.846 15.6954H12.846C12.3794 15.6954 12.0127 15.3287 12.0127 14.862C12.0127 14.3954 12.3794 14.0287 12.846 14.0287Z" fill="#D0D4D8"/>
</g>
<defs>
<clipPath id="clip0_293_3064">
<rect width="35" height="35" fill="white" transform="translate(0.345703 0.695374)"/>
</clipPath>
</defs>
</svg>
