<svg width="63" height="36" viewBox="0 0 63 36" fill="none" xmlns="http://www.w3.org/2000/svg">
<path d="M52.1657 11.0445C52.0689 9.09069 52.3595 7.35893 51.3907 5.8936C49.0657 2.25248 43.2532 0.121094 31.6282 0.121094C20.0032 0.121094 13.9001 2.25248 11.5751 5.93801C10.6548 7.44774 10.7517 9.13509 10.6064 11.0889C10.5095 12.643 9.73449 14.2859 10.0736 16.0621C10.4611 18.3711 10.6064 20.6801 10.9939 22.8115C11.2845 24.5433 13.9001 26.0086 14.1423 27.6515C14.8204 32.1807 19.9548 34.2677 31.5798 34.2677V34.6229H31.2892H31.6282V34.2677C43.2532 34.2677 48.1939 32.1807 48.8236 27.6515C49.0657 25.9642 51.4876 24.5433 51.7782 22.8115C52.1657 20.6801 52.3111 18.3711 52.6986 16.0621C53.0376 14.2859 52.2626 12.5986 52.1657 11.0445Z" fill="#EFCCA3"/>
<path d="M31.4348 12.6431C33.5176 12.6875 34.9707 13.8864 36.327 14.9965C37.9254 16.2842 40.6379 17.1723 41.752 18.2824C42.866 19.3925 44.3191 20.5026 44.852 22.2343C45.3848 23.9661 45.5301 26.1863 45.5301 26.7635C45.5301 27.3408 45.8691 27.2076 46.8379 26.7635C49.1145 25.7422 51.6332 22.9892 51.6332 22.9892C51.3426 24.7209 48.8723 26.2751 48.6301 27.918C48.0488 32.4472 43.2535 34.623 31.3863 34.623H31.3379H31.6285" fill="#CCAC8D"/>
<path d="M39.0875 9.17953C39.5234 10.5561 41.0734 15.2185 38.0703 13.6643C38.0703 13.6643 39.3297 14.3304 40.1047 16.8614C40.9281 19.3924 42.9141 19.7033 42.9141 19.7033C42.9141 19.7033 46.1594 20.2805 48.5812 18.3711C50.6156 16.7726 50.9547 13.9308 50.0828 11.755C49.2109 9.62357 47.6609 8.95751 45.3844 8.51347C43.1078 8.02503 38.5547 7.62539 39.0875 9.17953Z" fill="#CCAC8D"/>
<path d="M44.8504 18.1491C47.2045 18.1491 49.1129 16.3996 49.1129 14.2415C49.1129 12.0835 47.2045 10.334 44.8504 10.334C42.4963 10.334 40.5879 12.0835 40.5879 14.2415C40.5879 16.3996 42.4963 18.1491 44.8504 18.1491Z" fill="black"/>
<path d="M43.7371 13.5311C44.3524 13.5311 44.8512 13.0739 44.8512 12.5098C44.8512 11.9458 44.3524 11.4885 43.7371 11.4885C43.1218 11.4885 42.623 11.9458 42.623 12.5098C42.623 13.0739 43.1218 13.5311 43.7371 13.5311Z" fill="white"/>
<path d="M38.3609 14.064C38.3609 14.064 42.1875 16.4618 44.2703 18.8152C46.3531 21.1686 46.3047 21.6126 46.3047 21.6126L44.8031 22.2343C44.8031 22.2343 42.6719 18.5488 40.0562 17.1722C37.3922 15.7957 37.1016 14.6412 37.1016 14.6412L38.3609 14.064Z" fill="#EFCCA3"/>
<path d="M31.5785 12.6431C29.4957 12.6875 27.9457 13.8864 26.541 14.9965C24.9426 16.2842 22.1332 17.1723 21.0191 18.2824C19.9051 19.3925 18.4035 20.5026 17.8707 22.2343C17.3379 23.9661 17.1441 26.1863 17.1441 26.7635C17.1441 27.3408 17.241 27.3852 15.8363 26.7635C13.5598 25.7866 11.041 22.9892 11.041 22.9892C11.3316 24.7209 13.802 26.2751 14.0441 27.918C14.7223 32.4472 19.5176 34.623 31.3848 34.623H31.627" fill="#CCAC8D"/>
<path d="M42.8158 20.1475C40.4908 17.5277 36.7611 15.0854 31.5783 15.0854H31.5299C26.347 15.0854 22.6174 17.5277 20.2924 20.1475C17.8705 22.8561 18.0642 23.9218 18.0642 26.4973C18.0642 35.8221 21.6486 33.1578 24.022 34.3124C26.4439 35.4224 28.9627 35.0672 31.5299 35.0672H31.5783C34.1939 35.0672 36.6642 35.378 39.0861 34.2679C41.4595 33.1578 45.0439 35.9109 45.0439 26.5861C45.0924 24.0106 45.2377 22.8561 42.8158 20.1475Z" fill="#56332B"/>
<path d="M31.3375 17.3942C31.3375 17.3942 30.9984 21.7014 30.3203 22.5451L31.5797 22.2787L31.3375 17.3942Z" fill="#442823"/>
<path d="M31.6777 17.394C31.6777 17.394 32.0168 21.7012 32.6949 22.5449L31.4355 22.2785L31.6777 17.394Z" fill="#442823"/>
<path d="M27.6079 16.3729C27.1236 15.3517 28.8673 13.7087 31.6283 13.6643C34.3892 13.6643 36.1329 15.3073 35.6486 16.3729C35.1642 17.4386 33.4204 17.7495 31.6283 17.7939C29.8845 17.7495 28.0923 17.4386 27.6079 16.3729Z" fill="#56332B"/>
<path d="M31.6285 17.3942C31.6285 17.2166 33.2754 17.1722 34.1473 16.6394C34.1473 16.6394 32.3551 17.1722 31.9676 16.9502C31.5801 16.7726 31.4832 16.2397 31.4832 16.2397C31.4832 16.2397 31.3379 16.7726 31.0473 16.9502C30.7082 17.1278 28.6738 16.6394 28.6738 16.6394C28.6738 16.6394 31.3863 17.261 31.3863 17.3942C31.3863 17.5275 31.3379 17.9715 31.3379 18.2823C31.3379 19.3924 31.3379 22.1455 31.5316 22.3675C31.8223 22.7671 31.7254 19.3924 31.7254 18.2823C31.677 17.9271 31.677 17.5719 31.6285 17.3942Z" fill="black"/>
<path d="M31.7254 23.3442C32.5488 23.3442 34.002 23.877 35.3098 24.7207C34.0504 23.433 32.5488 22.5449 31.7254 22.5449C30.8535 22.5449 29.0129 23.5218 27.7051 24.9427C29.0613 23.9658 30.8051 23.3442 31.7254 23.3442Z" fill="#7F4A41"/>
<path d="M31.3848 31.2037C29.5441 31.2037 27.752 30.6708 26.1051 30.2712C25.766 30.1824 25.427 30.4044 25.0879 30.3156C22.0363 29.4275 19.566 27.9178 18.0645 26.0084V26.4525C18.0645 35.7773 21.6488 33.1575 24.0223 34.2676C26.4441 35.3777 28.9629 35.0224 31.5301 35.0224H31.5785C34.1941 35.0224 36.6645 35.3333 39.0863 34.2232C41.4598 33.1131 45.0441 35.8217 45.0441 26.4969C45.0441 26.1416 45.0441 25.7864 45.0926 25.4756C43.6879 27.5626 41.1207 29.2055 37.9238 30.1824C37.6332 30.2712 36.9551 30.0492 36.6645 30.0936C34.9207 30.6264 33.3707 31.2037 31.3848 31.2037Z" fill="#442823"/>
<path d="M26.7848 26.186C26.7848 26.186 25.5738 29.5163 26.3973 30.9817L25.2832 30.5376C25.2832 30.5376 26.1066 27.1629 26.7848 26.186ZM36.3754 26.186C36.3754 26.186 37.5863 29.5163 36.7629 30.9817L37.877 30.5376C37.877 30.5376 37.0051 27.1629 36.3754 26.186Z" fill="#442823"/>
<path d="M23.6839 9.17953C23.248 10.5561 21.698 15.2185 24.7011 13.6643C24.7011 13.6643 23.4418 14.3304 22.6668 16.8614C21.8918 19.3924 19.8574 19.7033 19.8574 19.7033C19.8574 19.7033 16.6121 20.2805 14.1902 18.3711C12.1558 16.7726 11.8168 13.9308 12.6886 11.755C13.5605 9.57917 15.1105 8.95751 17.3871 8.51347C19.6636 8.02503 24.1683 7.62539 23.6839 9.17953Z" fill="#CCAC8D"/>
<path d="M31.5793 22.5451C32.8871 22.5451 36.9559 25.1205 37.0043 28.2732V28.0956C37.0043 24.8097 33.7105 22.1899 31.5793 22.1899C29.448 22.1899 26.1543 24.8541 26.1543 28.0956V28.2732C26.2027 25.1205 30.2715 22.5451 31.5793 22.5451Z" fill="black"/>
<path d="M32.6366 16.3971C32.8439 16.3481 32.9306 16.0197 32.8304 15.6635C32.7301 15.3073 32.4809 15.0582 32.2737 15.1073C32.0664 15.1563 31.9797 15.4847 32.0799 15.8409C32.1802 16.1971 32.4294 16.4461 32.6366 16.3971Z" fill="#331712"/>
<path d="M30.1485 16.3903C30.3529 16.4484 30.615 16.2107 30.7339 15.8594C30.8528 15.508 30.7835 15.1761 30.5791 15.1179C30.3747 15.0598 30.1126 15.2975 29.9937 15.6488C29.8748 16.0002 29.9441 16.3321 30.1485 16.3903Z" fill="#331712"/>
<path d="M18.1629 18.1491C20.517 18.1491 22.4254 16.3996 22.4254 14.2415C22.4254 12.0835 20.517 10.334 18.1629 10.334C15.8088 10.334 13.9004 12.0835 13.9004 14.2415C13.9004 16.3996 15.8088 18.1491 18.1629 18.1491Z" fill="black"/>
<path d="M19.2762 13.5311C19.8915 13.5311 20.3902 13.0739 20.3902 12.5098C20.3902 11.9458 19.8915 11.4885 19.2762 11.4885C18.6609 11.4885 18.1621 11.9458 18.1621 12.5098C18.1621 13.0739 18.6609 13.5311 19.2762 13.5311Z" fill="white"/>
<path d="M32.8387 14.2859C32.8387 14.2415 31.7246 14.73 31.434 14.7744C31.1434 14.73 30.0293 14.2415 30.0293 14.2859H32.8387Z" fill="#7F4A41"/>
<path d="M24.3638 14.064C24.3638 14.064 20.5372 16.4618 18.4544 18.8152C16.3716 21.1686 16.42 21.6126 16.42 21.6126L17.9216 22.2343C17.9216 22.2343 20.0528 18.5488 22.6685 17.1722C25.2841 15.7957 25.6231 14.6412 25.6231 14.6412L24.3638 14.064Z" fill="#EFCCA3"/>
<path d="M15.9816 6.95941C15.9816 6.95941 14.6738 10.2453 11.7676 11.6218C11.7676 11.6218 16.3207 11.1334 15.9816 6.95941ZM46.5457 6.95941C46.5457 6.95941 47.8535 10.2453 50.7598 11.6218C50.7598 11.6218 46.2066 11.1334 46.5457 6.95941ZM38.2629 13.0872C38.2629 13.0872 35.4051 10.3341 31.5785 10.2453H31.627H31.6754C27.8004 10.3341 24.991 13.0872 24.991 13.0872C28.3332 10.9558 31.191 11.0002 31.6754 11.0002C31.627 11.0002 34.9207 10.9558 38.2629 13.0872ZM34.9207 7.31464C34.9207 7.31464 33.4676 5.44968 31.5301 5.40527H31.627C30.1738 5.44968 28.2848 7.31464 28.2848 7.31464C29.9316 5.84931 31.627 5.89372 31.627 5.89372C31.627 5.89372 33.2254 5.84931 34.9207 7.31464ZM18.1613 20.9466C18.1613 20.9466 15.8848 21.9679 14.2379 21.3463H14.1895C12.7363 20.5914 12.0098 18.3268 12.0098 18.3268C12.0098 18.3268 13.4629 22.3232 18.1613 20.9466ZM44.7051 20.9466C44.7051 20.9466 46.9816 21.9679 48.6285 21.3463C50.566 20.5914 50.8566 18.3268 50.8566 18.3268C50.8566 18.3268 49.4035 22.3232 44.7051 20.9466Z" fill="#CCAC8D"/>
<path d="M20.777 6.73707C22.0363 6.51505 24.1191 6.47065 25.766 6.95909C27.8488 7.62515 26.1535 10.0674 26.5895 10.2006C27.0254 10.3338 27.6066 8.51323 31.4816 8.69085C35.4051 8.86846 35.841 10.467 36.3738 10.2006C36.9066 9.93416 35.841 5.76019 41.702 6.73707C41.702 6.73707 35.5504 5.22734 35.841 9.3125C35.841 9.3125 32.3051 6.82588 27.3645 9.04608C27.4129 9.04608 28.6723 5.22734 20.777 6.73707ZM42.2348 6.73707C42.3316 6.73707 42.3801 6.78148 42.4285 6.78148C42.477 6.78148 42.3801 6.73707 42.2348 6.73707ZM19.0816 1.27539C19.0816 1.27539 13.8504 7.31432 13.0754 9.62333C12.3004 11.9767 11.7191 21.6124 11.041 22.9889L8.61914 13.4865L13.0754 3.58439L19.0816 1.27539ZM43.6879 1.27539C43.6879 1.27539 48.9191 7.31432 49.6941 9.62333C50.4691 11.9767 51.0504 21.6124 51.7285 22.9889L54.1504 13.4865L49.6941 3.58439L43.6879 1.27539Z" fill="#CCAC8D"/>
<path d="M43.4465 1.2756C43.4465 1.2756 49.0653 5.58278 50.7122 10.556C52.359 15.5293 51.6809 21.5682 52.9403 22.3231C54.7325 23.3888 56.7669 17.039 57.445 16.3729C58.5106 15.3072 62.0465 12.5986 62.2887 12.1102C62.5309 11.6217 55.12 4.20626 51.8747 2.74093C47.9512 1.05358 43.1075 0.920369 43.4465 1.2756Z" fill="#56332B"/>
<path d="M48.2422 3.93988C48.2422 3.93988 54.8781 11.7106 54.7812 21.3906L57.4453 16.4174C57.3969 16.4174 55.0719 10.0676 48.2422 3.93988Z" fill="#442823"/>
<path d="M19.0824 1.2756C19.0824 1.2756 13.4636 5.58278 11.8167 10.556C10.1699 15.5293 10.848 21.5682 9.58861 22.3231C7.79642 23.3888 5.76205 17.039 5.08392 16.3729C4.0183 15.3072 0.482358 12.5986 0.240171 12.1102C-0.00201668 11.6217 7.40892 4.20626 10.6542 2.74093C14.5777 1.05358 19.4214 0.920369 19.0824 1.2756Z" fill="#56332B"/>
<path d="M14.2875 3.93988C14.2875 3.93988 7.65156 11.7106 7.74844 21.3906L5.13281 16.4174C5.13281 16.4174 7.45781 10.0676 14.2875 3.93988Z" fill="#442823"/>
<path d="M10.7031 21.5682C10.7031 21.5682 11.1875 23.966 11.9625 24.7209C12.7375 25.4757 12.2047 24.1436 12.2047 24.1436C12.2047 24.1436 11.3813 23.744 11.5266 20.6801C11.6719 17.6162 10.7031 21.5682 10.7031 21.5682ZM52.0203 21.5682C52.0203 21.5682 51.5359 23.966 50.7609 24.7209C49.9859 25.4757 50.5187 24.1436 50.5187 24.1436C50.5187 24.1436 51.3422 23.744 51.1969 20.6801C51.0516 17.6162 52.0203 21.5682 52.0203 21.5682Z" fill="#CCAC8D"/>
<path d="M26.5437 20.103C26.7578 20.103 26.9312 19.944 26.9312 19.7478C26.9312 19.5516 26.7578 19.3926 26.5437 19.3926C26.3297 19.3926 26.1562 19.5516 26.1562 19.7478C26.1562 19.944 26.3297 20.103 26.5437 20.103Z" fill="#442823"/>
<path d="M24.3152 22.2344C24.5292 22.2344 24.7027 22.0754 24.7027 21.8792C24.7027 21.683 24.5292 21.524 24.3152 21.524C24.1012 21.524 23.9277 21.683 23.9277 21.8792C23.9277 22.0754 24.1012 22.2344 24.3152 22.2344Z" fill="#442823"/>
<path d="M23.5887 20.103C23.8027 20.103 23.9762 19.944 23.9762 19.7478C23.9762 19.5516 23.8027 19.3926 23.5887 19.3926C23.3747 19.3926 23.2012 19.5516 23.2012 19.7478C23.2012 19.944 23.3747 20.103 23.5887 20.103Z" fill="#442823"/>
<path d="M35.9871 20.1029C36.2011 20.1029 36.3746 19.9438 36.3746 19.7476C36.3746 19.5514 36.2011 19.3924 35.9871 19.3924C35.7731 19.3924 35.5996 19.5514 35.5996 19.7476C35.5996 19.9438 35.7731 20.1029 35.9871 20.1029Z" fill="#442823"/>
<path d="M38.2156 22.2343C38.4296 22.2343 38.6031 22.0752 38.6031 21.879C38.6031 21.6828 38.4296 21.5238 38.2156 21.5238C38.0016 21.5238 37.8281 21.6828 37.8281 21.879C37.8281 22.0752 38.0016 22.2343 38.2156 22.2343Z" fill="#442823"/>
<path d="M38.9422 20.1029C39.1562 20.1029 39.3297 19.9438 39.3297 19.7476C39.3297 19.5514 39.1562 19.3924 38.9422 19.3924C38.7282 19.3924 38.5547 19.5514 38.5547 19.7476C38.5547 19.9438 38.7282 20.1029 38.9422 20.1029Z" fill="#442823"/>
</svg>
