<svg width="36" height="36" viewBox="0 0 36 36" fill="none" xmlns="http://www.w3.org/2000/svg">
<g clip-path="url(#clip0_293_3022)">
<path d="M18.1541 35.6324C27.8017 35.6324 35.6226 27.8115 35.6226 18.1639C35.6226 8.5163 27.8017 0.695374 18.1541 0.695374C8.50647 0.695374 0.685547 8.5163 0.685547 18.1639C0.685547 27.8115 8.50647 35.6324 18.1541 35.6324Z" fill="#FAFAFA"/>
<path d="M10.7823 11.902C10.6986 11.92 10.6308 11.964 10.5726 12.0432C10.5126 12.1291 10.4913 12.2706 10.5221 12.364C10.5481 12.4457 10.6902 12.6112 10.846 12.7237C10.691 12.9259 10.393 13.3331 10.249 13.5418C9.20215 15.0582 8.58841 16.4456 8.51047 17.4459C8.46834 17.9866 8.57337 18.3647 8.82228 18.6586C9.0064 18.8753 9.2219 18.9984 9.56908 19.0722C9.8539 19.1328 10.2898 19.13 10.7298 19.0628C10.4532 19.4595 10.0582 20.0678 9.8547 20.4141C9.51859 20.9892 9.17436 21.7241 9.04499 22.1447C8.81716 22.8778 8.78795 23.4799 8.9397 24.0544C9.03241 24.4073 9.18184 24.6906 9.3849 24.9081C9.59168 25.1296 9.8546 25.2843 10.1761 25.3715C10.7028 25.5139 11.4759 25.4735 12.4523 25.2435C12.658 25.1956 12.9738 25.1075 13.2093 25.0376C12.9993 25.7722 13.0227 26.4429 13.2584 26.9242C13.3346 27.0789 13.5476 27.3399 13.675 27.4359C14.4365 28.0044 16.0374 27.9831 18.1857 27.3094C18.3577 27.2557 18.8434 27.0878 19.0854 26.9998C19.2507 27.2207 19.4048 27.3077 19.7621 27.3506C19.9946 27.3759 20.1853 27.3385 20.366 27.2346C20.4485 27.1867 20.4972 27.1397 20.5249 27.0957C20.5699 27.0243 20.5783 26.9507 20.5471 26.8627C20.5172 26.7803 20.474 26.7312 20.3967 26.6964C20.3523 26.6765 20.2871 26.6621 20.1815 26.6542C20.099 26.6486 20.0699 26.6454 20.026 26.6142L20.0397 26.6028C20.4158 26.4437 21.2278 26.0381 21.7289 25.7588C23.5616 24.7364 25.5198 23.2956 26.8239 22.009C28.0057 20.8446 29.1509 19.3913 29.3875 18.7688C29.4592 18.5822 29.4789 18.3882 29.4486 18.2372C29.423 18.1193 29.4089 18.0872 29.2951 17.9516C29.1747 17.8081 29.1496 17.7947 29.0385 17.7507C28.669 17.6053 28.0982 17.7655 26.9733 18.4525C25.5343 19.3311 23.3988 20.9624 21.8941 22.3346C20.412 23.6849 19.4384 24.865 19.0773 25.7307C19.0339 25.8351 19.0351 25.8838 19.0125 25.8961C18.9893 25.909 18.7891 25.987 18.569 26.0736C17.3559 26.5445 16.2989 26.8145 15.5092 26.8492C15.2915 26.8591 14.9438 26.8356 14.772 26.7985C14.628 26.7678 14.451 26.698 14.384 26.6344C14.3005 26.5567 14.2677 26.4263 14.262 26.2623C14.2548 26.0555 14.2965 25.7972 14.3839 25.4969C14.4435 25.294 14.6533 24.7696 14.758 24.5658L15.0036 24.4334C16.327 23.9329 17.8246 23.2082 19.2272 22.39C21.1218 21.2846 23.3024 19.7519 25.2549 18.1493C26.4183 17.1943 27.0439 16.5921 27.6369 15.8593C28.1 15.2873 28.475 14.643 28.5604 14.2839C28.6222 14.0288 28.614 13.8002 28.5464 13.6075C28.4751 13.4045 28.3386 13.2381 28.1381 13.1206C27.6162 12.8147 26.6703 12.9353 25.392 13.5117C24.1831 14.0568 22.6718 14.9964 20.9646 16.2842C19.9444 17.0517 18.5163 18.2397 17.7615 18.9467C15.8354 20.7534 14.5159 22.3246 13.7841 23.6772L13.7345 23.7696C13.0872 24.0131 12.0875 24.2957 11.5868 24.3808C11.1693 24.4507 10.7665 24.4694 10.5298 24.4228C10.3834 24.3943 10.2719 24.3477 10.19 24.2635C10.1051 24.1762 10.0534 24.0524 10.0157 23.8874C9.95799 23.629 9.97517 23.204 10.0522 22.8895C10.2904 21.9197 11.0758 20.5272 12.2745 18.9296L12.5347 18.584L12.8031 18.4801C14.5795 17.7981 16.7848 16.5711 18.7406 15.1748C19.8247 14.4003 20.9903 13.4389 21.7823 12.6645C22.4116 12.0495 22.9146 11.4826 23.3033 10.9526C23.6456 10.4837 23.861 10.0876 23.9579 9.75122C24.066 9.37622 24.0322 9.06857 23.877 8.80851C23.7584 8.60978 23.5783 8.4762 23.3501 8.4139C23.1414 8.35695 22.8893 8.36095 22.6068 8.43654C21.7871 8.65854 20.5652 9.39191 18.8188 10.7232C18.3845 11.056 16.9523 12.2577 16.5246 12.6483C14.7404 14.2844 13.1597 15.9562 11.8208 17.6209L11.5678 17.9361L11.4258 17.9782C11.0136 18.0998 10.5404 18.1895 10.2053 18.2097C10.0092 18.2215 9.74964 18.1942 9.63667 18.1428C9.57698 18.1164 9.56748 18.1092 9.53266 18.0619C9.47143 17.9774 9.45705 17.8965 9.45215 17.7349C9.42692 17.0288 9.91595 15.8344 10.7277 14.5681C11.0372 14.0859 11.3935 13.5915 11.7729 13.1172L11.9565 12.8876C12.5384 12.7072 13.1159 12.3406 13.9855 11.611C14.9842 10.7708 15.9607 9.71322 16.2319 9.34899C16.5487 8.92359 16.67 8.50067 16.6171 8.33396C16.5814 8.22742 16.5116 8.13886 16.4248 8.07895C16.3338 8.01619 16.2252 7.98563 16.1212 7.99655C15.9679 8.01214 15.6164 8.19995 15.1494 8.53956C14.8188 8.77887 13.9013 9.53588 13.4996 9.90044C12.767 10.5637 12.2836 11.0497 11.6797 11.7275L11.489 11.9408C11.3248 11.9751 11.1715 11.9615 11.0384 11.9221C10.9319 11.8912 10.8496 11.8875 10.7823 11.902ZM18.0782 12.8039C18.5864 12.3628 18.8006 12.1851 19.4985 11.6225C20.3415 10.9443 21.2689 10.3009 21.9488 9.92176C22.2819 9.73554 22.5938 9.58833 22.8368 9.53964C22.7808 9.65717 22.6946 9.80485 22.6015 9.94544C22.1489 10.6241 21.4599 11.396 20.4265 12.3836C20.1146 12.6828 18.5579 13.9869 18.1695 14.2774C16.8603 15.2528 15.6529 16.0302 14.4115 16.694C14.2534 16.7782 14.0643 16.8758 13.882 16.9678C15.1692 15.5118 16.6234 14.0687 18.0782 12.8039ZM24.5808 15.2584C25.8925 14.4659 27.0125 14.0022 27.5437 13.9771C27.5315 14.0219 27.5127 14.077 27.4917 14.1257C27.2845 14.6157 26.7022 15.3294 25.8715 16.1247C25.5295 16.4513 24.1938 17.5655 23.5715 18.0439C20.5912 20.3281 18.1449 21.8667 15.7663 22.9451C16.1831 22.3813 16.7687 21.6878 17.3226 21.1066C18.3632 20.0141 19.6392 18.8578 20.9147 17.8523C22.3331 16.7331 23.467 15.9319 24.5808 15.2584ZM25.3724 20.9948C26.3463 20.2328 27.2167 19.6224 27.8594 19.247C27.7983 19.3293 27.7355 19.4118 27.6761 19.4869C26.6507 20.7866 25.4248 21.9521 23.8943 23.0782C22.9961 23.7386 22.0656 24.3415 21.1611 24.8471C21.682 24.2479 22.3417 23.592 23.2398 22.778C23.4736 22.565 25.0624 21.2361 25.3724 20.9948Z" fill="#363645"/>
<path d="M18.2013 23.9133C21.3387 23.9133 23.8821 21.365 23.8821 18.2216C23.8821 15.0782 21.3387 12.5299 18.2013 12.5299C15.0639 12.5299 12.5205 15.0782 12.5205 18.2216C12.5205 21.365 15.0639 23.9133 18.2013 23.9133Z" fill="url(#paint0_radial_293_3022)"/>
<path fill-rule="evenodd" clip-rule="evenodd" d="M8.82183 18.6642C8.57293 18.3703 8.46791 17.9922 8.51003 17.4515L9.45171 17.7405C9.45662 17.9021 9.47099 17.983 9.53223 18.0675C9.56706 18.1148 9.57652 18.122 9.63623 18.1484C9.74921 18.1998 10.0088 18.2271 10.2048 18.2153C10.5399 18.1951 11.4254 17.9838 11.4254 17.9838L13.8816 16.9734C13.8816 16.9734 14.253 16.7838 14.4111 16.6996C15.6524 16.0358 16.8598 15.2584 18.1691 14.2829C18.5574 13.9925 20.1142 12.6884 20.4261 12.3892C21.4595 11.4016 22.1485 10.6297 22.6011 9.95103C22.6941 9.81045 22.7498 9.66471 22.8364 9.54523L23.3497 8.41949C23.5737 8.4774 23.7579 8.61536 23.8765 8.81411C24.0317 9.07417 24.0656 9.38181 23.9575 9.75682C23.8605 10.0932 23.6452 10.4892 23.3029 10.9582C22.9142 11.4882 22.4111 12.0551 21.7819 12.6701C20.9898 13.4445 19.8243 14.4059 18.7402 15.1804C16.7843 16.5767 14.579 17.8037 12.8027 18.4857L12.5342 18.5896L11.5884 18.8752L10.7293 19.0684C10.2894 19.1356 9.85345 19.1384 9.56864 19.0778C9.22146 19.004 9.00595 18.8808 8.82183 18.6642Z" fill="#363645"/>
<path fill-rule="evenodd" clip-rule="evenodd" d="M9.38463 24.9137C9.18158 24.6961 9.03214 24.4128 8.93945 24.0599L10.0154 23.893C10.0532 24.058 10.1048 24.1818 10.1898 24.2691C10.2716 24.3532 10.3831 24.3998 10.5295 24.4283C10.7663 24.4749 11.1691 24.4563 11.5865 24.3864C12.0872 24.3013 13.0869 24.0187 13.7343 23.7752L15.766 22.9507C18.1447 21.8723 20.5909 20.3337 23.5712 18.0494C24.1936 17.5711 25.5292 16.4569 25.8712 16.1303C26.7019 15.335 27.2842 14.6212 27.4914 14.1313C27.5124 14.0825 27.5313 14.0274 27.5434 13.9827L28.1379 13.1262C28.3383 13.2437 28.4749 13.41 28.5461 13.6131C28.6137 13.8058 28.6219 14.0343 28.5601 14.2895C28.4747 14.6486 28.0997 15.2929 27.6367 15.8649C27.0437 16.5977 26.4181 17.1999 25.2547 18.1549C23.3021 19.7575 21.1215 21.2901 19.227 22.3956C17.8243 23.2138 16.3267 23.9384 15.0033 24.439L14.7577 24.5713L13.2091 25.0432C12.9735 25.1131 12.6577 25.2012 12.452 25.2491C11.4756 25.479 10.7025 25.5195 10.1758 25.377C9.85434 25.2899 9.59141 25.1351 9.38463 24.9137Z" fill="#363645"/>
<path fill-rule="evenodd" clip-rule="evenodd" d="M18.1855 27.315C16.0373 27.9887 14.4363 28.01 13.6748 27.4415L14.3838 26.6399C14.4508 26.7036 14.6278 26.7734 14.7718 26.8041C14.9436 26.8412 15.2913 26.8647 15.509 26.8548C16.2987 26.8201 17.3557 26.55 18.5688 26.0792C18.7889 25.9926 18.9891 25.9146 19.0123 25.9017L21.1609 24.8527C22.0654 24.3471 22.9959 23.7442 23.8941 23.0838C25.4246 21.9577 26.6505 20.7922 27.676 19.4925C27.7353 19.4174 27.7982 19.3349 27.8592 19.2526L29.0383 17.7563C29.1494 17.8003 29.1746 17.8137 29.2949 17.9571C29.4087 18.0928 29.4228 18.1249 29.4484 18.2428C29.4787 18.3938 29.459 18.5878 29.3873 18.7744C29.1508 19.3969 28.0055 20.8502 26.8238 22.0147C25.5197 23.3012 23.5614 24.742 21.7287 25.7644C21.2276 26.0437 20.4156 26.4493 20.0395 26.6084L20.0258 26.6198L19.0852 27.0055C18.8432 27.0934 18.3576 27.2613 18.1855 27.315Z" fill="#363645"/>
</g>
<defs>
<radialGradient id="paint0_radial_293_3022" cx="0" cy="0" r="1" gradientUnits="userSpaceOnUse" gradientTransform="translate(-114.591 742.904) rotate(54.6028) scale(1009.67 1012.25)">
<stop stop-color="white" stop-opacity="0.904382"/>
<stop offset="1" stop-color="#FF6D6D"/>
</radialGradient>
<clipPath id="clip0_293_3022">
<rect width="35" height="35" fill="white" transform="translate(0.685547 0.695374)"/>
</clipPath>
</defs>
</svg>
