<svg width="36" height="36" viewBox="0 0 36 36" fill="none" xmlns="http://www.w3.org/2000/svg">
<rect x="1.33984" y="1.19537" width="34" height="34" rx="5.5" fill="#EC5990"/>
<rect x="1.33984" y="1.19537" width="34" height="34" rx="5.5" stroke="white"/>
<path d="M24.2528 8.98781H20.3825C20.2442 8.55489 19.9719 8.17712 19.6049 7.90908C19.2379 7.64104 18.7951 7.49658 18.3407 7.49658C17.8862 7.49658 17.4435 7.64104 17.0765 7.90908C16.7094 8.17712 16.4371 8.55489 16.2988 8.98781H12.426C11.6937 8.98781 10.9915 9.27869 10.4737 9.79647C9.95592 10.3142 9.66504 11.0165 9.66504 11.7487V26.1332C9.66504 26.8655 9.95592 27.5677 10.4737 28.0855C10.9915 28.6033 11.6937 28.8942 12.426 28.8942H24.2528C24.9851 28.8942 25.6873 28.6033 26.2051 28.0855C26.7229 27.5677 27.0138 26.8655 27.0138 26.1332V11.7487C27.0138 11.0165 26.7229 10.3142 26.2051 9.79647C25.6873 9.27869 24.9851 8.98781 24.2528 8.98781ZM16.4921 9.4898C16.5505 9.4911 16.6075 9.47201 16.6533 9.43582C16.6991 9.39963 16.7308 9.3486 16.7431 9.29151C16.8229 8.92547 17.0254 8.59773 17.3172 8.36272C17.6089 8.12771 17.9723 7.99956 18.3469 7.99956C18.7216 7.99956 19.0849 8.12771 19.3767 8.36272C19.6684 8.59773 19.871 8.92547 19.9508 9.29151C19.963 9.3486 19.9948 9.39963 20.0406 9.43582C20.0864 9.47201 20.1434 9.4911 20.2018 9.4898H21.5521V11.1338C21.5521 11.3335 21.4728 11.525 21.3316 11.6663C21.1904 11.8075 20.9989 11.8868 20.7992 11.8868H15.8922C15.6925 11.8868 15.501 11.8075 15.3598 11.6663C15.2186 11.525 15.1392 11.3335 15.1392 11.1338V9.4898H16.4921ZM26.5118 26.1332C26.5118 26.7324 26.2738 27.3069 25.8502 27.7306C25.4265 28.1542 24.852 28.3922 24.2528 28.3922H12.426C11.8269 28.3922 11.2523 28.1542 10.8287 27.7306C10.405 27.3069 10.167 26.7324 10.167 26.1332V11.7487C10.167 11.1496 10.405 10.5751 10.8287 10.1514C11.2523 9.72779 11.8269 9.4898 12.426 9.4898H14.6372V11.1338C14.6372 11.4667 14.7695 11.7859 15.0048 12.0212C15.2402 12.2566 15.5594 12.3888 15.8922 12.3888H20.7866C21.1194 12.3888 21.4387 12.2566 21.674 12.0212C21.9094 11.7859 22.0416 11.4667 22.0416 11.1338V9.4898H24.2528C24.852 9.4898 25.4265 9.72779 25.8502 10.1514C26.2738 10.5751 26.5118 11.1496 26.5118 11.7487V26.1332Z" fill="white" stroke="white" stroke-width="0.5"/>
<path d="M23.689 17.17H19.2715C19.2049 17.17 19.1411 17.1964 19.094 17.2435C19.047 17.2906 19.0205 17.3544 19.0205 17.421C19.0205 17.4875 19.047 17.5514 19.094 17.5985C19.1411 17.6455 19.2049 17.672 19.2715 17.672H23.689C23.7556 17.672 23.8194 17.6455 23.8665 17.5985C23.9136 17.5514 23.94 17.4875 23.94 17.421C23.94 17.3544 23.9136 17.2906 23.8665 17.2435C23.8194 17.1964 23.7556 17.17 23.689 17.17Z" fill="white" stroke="white" stroke-width="0.5"/>
<path d="M17.4898 17.17H13.0723C13.0057 17.17 12.9419 17.1964 12.8948 17.2435C12.8477 17.2906 12.8213 17.3544 12.8213 17.421C12.8213 17.4875 12.8477 17.5514 12.8948 17.5985C12.9419 17.6455 13.0057 17.672 13.0723 17.672H17.4898C17.5564 17.672 17.6202 17.6455 17.6673 17.5985C17.7143 17.5514 17.7408 17.4875 17.7408 17.421C17.7408 17.3544 17.7143 17.2906 17.6673 17.2435C17.6202 17.1964 17.5564 17.17 17.4898 17.17Z" fill="white" stroke="white" stroke-width="0.5"/>
<path d="M23.5619 23.0861H19.1319C19.0653 23.0861 19.0014 23.1126 18.9544 23.1596C18.9073 23.2067 18.8809 23.2705 18.8809 23.3371C18.8809 23.4037 18.9073 23.4675 18.9544 23.5146C19.0014 23.5617 19.0653 23.5881 19.1319 23.5881H23.5619C23.6285 23.5881 23.6923 23.5617 23.7394 23.5146C23.7865 23.4675 23.8129 23.4037 23.8129 23.3371C23.8129 23.2705 23.7865 23.2067 23.7394 23.1596C23.6923 23.1126 23.6285 23.0861 23.5619 23.0861Z" fill="white" stroke="white" stroke-width="0.5"/>
<path d="M17.3637 23.0861H12.9336C12.867 23.0861 12.8032 23.1126 12.7561 23.1596C12.7091 23.2067 12.6826 23.2705 12.6826 23.3371C12.6826 23.4037 12.7091 23.4675 12.7561 23.5146C12.8032 23.5617 12.867 23.5881 12.9336 23.5881H17.3637C17.4302 23.5881 17.4941 23.5617 17.5411 23.5146C17.5882 23.4675 17.6147 23.4037 17.6147 23.3371C17.6147 23.2705 17.5882 23.2067 17.5411 23.1596C17.4941 23.1126 17.4302 23.0861 17.3637 23.0861Z" fill="white" stroke="white" stroke-width="0.5"/>
</svg>
