<svg width="40" height="36" viewBox="0 0 40 36" fill="none" xmlns="http://www.w3.org/2000/svg">
<path d="M39.9796 17.6408C39.9796 15.0372 36.7192 12.5698 31.7203 11.0397C32.8739 5.94475 32.3612 1.89119 30.1021 0.593406C29.5814 0.288988 28.9725 0.144791 28.3076 0.144791V1.93124C28.6761 1.93124 28.9725 2.00334 29.2209 2.13953C30.3104 2.76438 30.783 5.14365 30.4145 8.20384C30.3264 8.95687 30.1822 9.74996 30.006 10.5591C28.4358 10.1745 26.7214 9.87814 24.919 9.68587C23.8375 8.20384 22.716 6.858 21.5864 5.68038C24.198 3.25305 26.6494 1.92323 28.3156 1.92323V0.13678C26.1126 0.13678 23.2287 1.70693 20.3127 4.43067C17.3967 1.72296 14.5127 0.168824 12.3097 0.168824V1.95527C13.968 1.95527 16.4273 3.27709 19.0389 5.68839C17.9174 6.86601 16.7958 8.20384 15.7304 9.68587C13.9199 9.87814 12.2055 10.1745 10.6354 10.5671C10.4511 9.76598 10.3149 8.98892 10.2188 8.2439C9.8423 5.1837 10.3069 2.80444 11.3884 2.17157C11.6288 2.02737 11.9412 1.96328 12.3097 1.96328V0.176835C11.6368 0.176835 11.0279 0.321032 10.4992 0.62545C8.24812 1.92323 7.74342 5.96878 8.90502 11.0477C3.92218 12.5859 0.677734 15.0452 0.677734 17.6408C0.677734 20.2444 3.93821 22.7117 8.93706 24.2418C7.78348 29.3368 8.29618 33.3904 10.5553 34.6882C11.076 34.9926 11.6848 35.1368 12.3578 35.1368C14.5608 35.1368 17.4447 33.5666 20.3607 30.8429C23.2767 33.5506 26.1607 35.1047 28.3637 35.1047C29.0366 35.1047 29.6455 34.9605 30.1742 34.6561C32.4253 33.3583 32.93 29.3128 31.7684 24.2338C36.7352 22.7037 39.9796 20.2363 39.9796 17.6408ZM29.5493 12.2975C29.2529 13.3309 28.8844 14.3963 28.4678 15.4618C28.1394 14.8209 27.7949 14.18 27.4184 13.5392C27.0499 12.8983 26.6574 12.2734 26.2648 11.6646C27.4024 11.8328 28.4999 12.0411 29.5493 12.2975ZM25.8803 20.8292C25.2554 21.9106 24.6146 22.936 23.9496 23.8894C22.756 23.9935 21.5464 24.0496 20.3287 24.0496C19.119 24.0496 17.9094 23.9935 16.7237 23.8974C16.0588 22.9441 15.4099 21.9267 14.7851 20.8532C14.1762 19.8038 13.6235 18.7383 13.1188 17.6648C13.6155 16.5913 14.1762 15.5179 14.7771 14.4684C15.4019 13.3869 16.0428 12.3615 16.7077 11.4082C17.9014 11.3041 19.111 11.248 20.3287 11.248C21.5383 11.248 22.748 11.3041 23.9336 11.4002C24.5985 12.3535 25.2474 13.3709 25.8723 14.4444C26.4811 15.4938 27.0339 16.5593 27.5386 17.6328C27.0339 18.7062 26.4811 19.7797 25.8803 20.8292ZM28.4678 19.7877C28.9004 20.8612 29.2689 21.9347 29.5734 22.9761C28.5239 23.2325 27.4184 23.4487 26.2728 23.617C26.6654 23.0001 27.0579 22.3673 27.4264 21.7184C27.7949 21.0775 28.1394 20.4286 28.4678 19.7877ZM20.3447 28.3354C19.5997 27.5664 18.8547 26.7092 18.1177 25.7719C18.8386 25.804 19.5757 25.828 20.3207 25.828C21.0737 25.828 21.8187 25.812 22.5477 25.7719C21.8267 26.7092 21.0817 27.5664 20.3447 28.3354ZM14.3845 23.617C13.247 23.4487 12.1495 23.2405 11.1 22.9841C11.3964 21.9507 11.7649 20.8852 12.1815 19.8198C12.51 20.4607 12.8544 21.1015 13.231 21.7424C13.6075 22.3833 13.992 23.0081 14.3845 23.617ZM20.3047 6.94612C21.0497 7.71517 21.7947 8.57235 22.5317 9.50963C21.8107 9.47759 21.0737 9.45356 20.3287 9.45356C19.5757 9.45356 18.8306 9.46958 18.1016 9.50963C18.8226 8.57235 19.5676 7.71517 20.3047 6.94612ZM14.3765 11.6646C13.984 12.2814 13.5914 12.9143 13.2229 13.5632C12.8544 14.2041 12.51 14.8449 12.1815 15.4858C11.7489 14.4124 11.3804 13.3389 11.076 12.2975C12.1254 12.0491 13.231 11.8328 14.3765 11.6646ZM7.12658 21.6943C4.29069 20.4847 2.45617 18.8985 2.45617 17.6408C2.45617 16.3831 4.29069 14.7889 7.12658 13.5872C7.81552 13.2908 8.56856 13.0265 9.34562 12.7781C9.80225 14.3483 10.4031 15.9825 11.1481 17.6568C10.4111 19.3231 9.81827 20.9493 9.36966 22.5115C8.57657 22.2631 7.82354 21.9907 7.12658 21.6943ZM11.4365 33.142C10.347 32.5172 9.87435 30.1379 10.2429 27.0777C10.331 26.3247 10.4752 25.5316 10.6514 24.7225C12.2216 25.107 13.9359 25.4034 15.7384 25.5957C16.8199 27.0777 17.9414 28.4236 19.071 29.6012C16.4594 32.0285 14.008 33.3583 12.3417 33.3583C11.9812 33.3503 11.6768 33.2782 11.4365 33.142ZM30.4385 27.0377C30.8151 30.0979 30.3504 32.4771 29.2689 33.11C29.0286 33.2542 28.7162 33.3183 28.3477 33.3183C26.6894 33.3183 24.23 31.9965 21.6185 29.5852C22.74 28.4075 23.8615 27.0697 24.927 25.5877C26.7375 25.3954 28.4518 25.099 30.022 24.7065C30.2062 25.5156 30.3504 26.2926 30.4385 27.0377ZM33.5228 21.6943C32.8338 21.9907 32.0808 22.2551 31.3037 22.5035C30.8471 20.9333 30.2463 19.2991 29.5013 17.6248C30.2383 15.9585 30.8311 14.3322 31.2797 12.7701C32.0728 13.0184 32.8258 13.2908 33.5308 13.5872C36.3667 14.7969 38.2012 16.3831 38.2012 17.6408C38.1932 18.8985 36.3587 20.4927 33.5228 21.6943Z" fill="#61DAFB"/>
<path d="M20.3212 21.3016C22.3431 21.3016 23.9822 19.6625 23.9822 17.6406C23.9822 15.6186 22.3431 13.9796 20.3212 13.9796C18.2992 13.9796 16.6602 15.6186 16.6602 17.6406C16.6602 19.6625 18.2992 21.3016 20.3212 21.3016Z" fill="#61DAFB"/>
</svg>
