<svg width="37" height="36" viewBox="0 0 37 36" fill="none" xmlns="http://www.w3.org/2000/svg">
<g clip-path="url(#clip0_293_3014)">
<path d="M25.5826 25.0418C26.9376 24.9015 27.9656 23.7334 27.9188 22.3315C27.8722 20.9298 26.704 19.8083 25.3022 19.8083H25.2088C23.7602 19.855 22.6388 21.0699 22.6856 22.5184C22.7323 23.2194 23.0126 23.8268 23.4332 24.2473C21.8445 27.3782 19.4148 29.6678 15.7702 31.5836C13.2937 32.8919 10.7238 33.3592 8.15399 33.0322C6.05129 32.7518 4.41588 31.8174 3.38777 30.2752C1.89264 27.9856 1.7525 25.509 3.01413 23.0325C3.90197 21.2568 5.30358 19.9484 6.19142 19.2942C6.00453 18.6868 5.72412 17.6588 5.58399 16.9113C-1.19128 21.8176 -0.490331 28.4529 1.56561 31.5836C3.1075 33.9201 6.23818 35.3686 9.69588 35.3686C10.6303 35.3686 11.5648 35.2751 12.4994 35.0416C18.4803 33.8733 23.0128 30.3219 25.5826 25.0418ZM33.8064 19.2476C30.2552 15.0888 25.0219 12.7992 19.041 12.7992H18.2934C17.8729 11.9581 16.9851 11.3973 16.0038 11.3973H15.9103C14.462 11.4441 13.3406 12.659 13.3872 14.1076C13.434 15.5094 14.6021 16.6309 16.0038 16.6309H16.0972C17.1252 16.5841 18.013 15.9299 18.3868 15.0421H19.2279C22.7791 15.0421 26.1433 16.07 29.1806 18.0794C31.5168 19.6214 33.199 21.6307 34.1334 24.0605C34.9277 26.023 34.881 27.9388 34.0399 29.5744C32.7317 32.0509 30.5356 33.406 27.6386 33.406C25.7695 33.406 23.994 32.8452 23.0594 32.4246C22.5455 32.8919 21.6109 33.6395 20.9567 34.107C22.966 35.0414 25.0219 35.5555 26.9844 35.5555C31.47 35.5555 34.7876 33.0788 36.0492 30.6024C37.4042 27.8921 37.3107 23.2194 33.8064 19.2476ZM10.0697 25.836C10.1164 27.2379 11.2845 28.3592 12.6863 28.3592H12.7798C14.2283 28.3126 15.3497 27.0976 15.3029 25.6491C15.2563 24.2472 14.088 23.1259 12.6863 23.1259H12.5929C12.4994 23.1259 12.3591 23.1259 12.2659 23.1725C10.3501 19.995 9.55574 16.5373 9.83615 12.7991C10.0229 9.99543 10.9575 7.56556 12.5929 5.55623C13.9479 3.82731 16.5645 2.98623 18.3402 2.93961C23.293 2.8461 25.3956 9.01407 25.5359 11.4907C26.1433 11.6308 27.1713 11.958 27.8722 12.1917C27.3114 4.62192 22.6388 0.696777 18.1533 0.696777C13.9479 0.696777 10.0697 3.73408 8.52763 8.21989C6.37831 14.201 7.78006 19.9484 10.3967 24.481C10.1632 24.808 10.0229 25.3219 10.0697 25.836Z" fill="#764ABC"/>
</g>
<defs>
<clipPath id="clip0_293_3014">
<rect width="36.7184" height="35" fill="white" transform="translate(0.140625 0.695374)"/>
</clipPath>
</defs>
</svg>
