<svg width="37" height="36" viewBox="0 0 37 36" fill="none" xmlns="http://www.w3.org/2000/svg">
<g clip-path="url(#clip0_293_3017)">
<path d="M25.608 25.0418C26.963 24.9015 27.991 23.7334 27.9442 22.3315C27.8976 20.9298 26.7294 19.8083 25.3276 19.8083H25.2342C23.7856 19.855 22.6642 21.0699 22.711 22.5184C22.7577 23.2194 23.038 23.8268 23.4585 24.2473C21.8699 27.3782 19.4402 29.6678 15.7956 31.5836C13.3191 32.8919 10.7492 33.3592 8.17938 33.0322C6.07668 32.7518 4.44127 31.8174 3.41316 30.2752C1.91803 27.9856 1.7779 25.509 3.03952 23.0325C3.92736 21.2568 5.32897 19.9484 6.21681 19.2942C6.02992 18.6868 5.74951 17.6588 5.60938 16.9113C-1.16589 21.8176 -0.46494 28.4529 1.591 31.5836C3.13289 33.9201 6.26357 35.3686 9.72127 35.3686C10.6557 35.3686 11.5902 35.2751 12.5248 35.0416C18.5057 33.8733 23.0381 30.3219 25.608 25.0418ZM33.8318 19.2476C30.2806 15.0888 25.0473 12.7992 19.0664 12.7992H18.3188C17.8983 11.9581 17.0104 11.3973 16.0292 11.3973H15.9357C14.4873 11.4441 13.366 12.659 13.4126 14.1076C13.4594 15.5094 14.6275 16.6309 16.0292 16.6309H16.1226C17.1506 16.5841 18.0384 15.9299 18.4122 15.0421H19.2533C22.8045 15.0421 26.1687 16.07 29.206 18.0794C31.5422 19.6214 33.2244 21.6307 34.1588 24.0605C34.9531 26.023 34.9064 27.9388 34.0653 29.5744C32.7571 32.0509 30.561 33.406 27.664 33.406C25.7949 33.406 24.0194 32.8452 23.0848 32.4246C22.5708 32.8919 21.6362 33.6395 20.9821 34.107C22.9914 35.0414 25.0473 35.5555 27.0098 35.5555C31.4954 35.5555 34.813 33.0788 36.0746 30.6024C37.4296 27.8921 37.3361 23.2194 33.8318 19.2476ZM10.095 25.836C10.1418 27.2379 11.3099 28.3592 12.7117 28.3592H12.8052C14.2537 28.3126 15.375 27.0976 15.3283 25.6491C15.2817 24.2472 14.1134 23.1259 12.7117 23.1259H12.6183C12.5248 23.1259 12.3845 23.1259 12.2913 23.1725C10.3755 19.995 9.58113 16.5373 9.86154 12.7991C10.0483 9.99543 10.9829 7.56556 12.6183 5.55623C13.9733 3.82731 16.5899 2.98623 18.3656 2.93961C23.3184 2.8461 25.421 9.01407 25.5612 11.4907C26.1687 11.6308 27.1967 11.958 27.8976 12.1917C27.3368 4.62192 22.6642 0.696777 18.1787 0.696777C13.9733 0.696777 10.095 3.73408 8.55302 8.21989C6.4037 14.201 7.80545 19.9484 10.4221 24.481C10.1886 24.808 10.0483 25.3219 10.095 25.836Z" fill="white"/>
</g>
<defs>
<clipPath id="clip0_293_3017">
<rect width="36.7184" height="35" fill="white" transform="translate(0.166016 0.695374)"/>
</clipPath>
</defs>
</svg>
