<svg width="48" height="36" viewBox="0 0 48 36" fill="none" xmlns="http://www.w3.org/2000/svg">
<g clip-path="url(#clip0_214_1678)">
<path d="M40.847 20.2279C39.1934 20.2371 37.7616 20.6289 36.5607 21.2124C36.1173 20.3465 35.6739 19.5899 35.6 19.0249C35.5169 18.3686 35.4153 17.9675 35.5169 17.1837C35.6184 16.3998 36.0803 15.2878 36.0803 15.1967C36.071 15.1146 35.9786 14.7136 35.0272 14.7045C34.0758 14.6954 33.2536 14.8868 33.1612 15.1329C33.0688 15.3789 32.8841 15.9441 32.764 16.5274C32.5977 17.3842 30.861 20.4193 29.8725 22.0144C29.5492 21.3946 29.2721 20.8477 29.2166 20.4101C29.1335 19.7539 29.0318 19.3528 29.1335 18.5691C29.2351 17.7851 29.697 16.6732 29.697 16.5821C29.6878 16.5 29.5954 16.099 28.644 16.0899C27.6924 16.0808 26.8704 16.2722 26.778 16.5183C26.6856 16.7644 26.584 17.3477 26.3808 17.9128C26.1867 18.4779 23.8772 23.5456 23.2768 24.8672C22.9719 25.5417 22.7041 26.0795 22.5101 26.4441C22.3161 26.8086 22.5008 26.4714 22.4823 26.5079C22.3161 26.8178 22.2237 26.9909 22.2237 26.9909V27.0001C22.0944 27.228 21.9558 27.4467 21.891 27.4467C21.8448 27.4467 21.7525 26.836 21.9095 25.9975C22.2513 24.2383 23.0827 21.4949 23.0736 21.3947C23.0736 21.3491 23.2305 20.8659 22.5377 20.6199C21.8633 20.3738 21.6232 20.784 21.5677 20.784C21.5123 20.784 21.4661 20.9298 21.4661 20.9298C21.4661 20.9298 22.2144 17.8401 20.0342 17.8401C18.6671 17.8401 16.7826 19.3075 15.8495 20.6474C15.2583 20.9664 14.002 21.6408 12.6718 22.3609C12.1637 22.6343 11.6371 22.926 11.1383 23.1903L11.0368 23.0808C8.39476 20.3008 3.50799 18.3321 3.71122 14.5951C3.78513 13.237 4.26549 9.65499 13.0969 5.31645C20.33 1.76176 26.1221 2.73702 27.1289 4.90629C28.5608 8.00525 24.0343 13.7657 16.5148 14.5951C13.6511 14.9141 12.1453 13.8204 11.7666 13.4102C11.3694 12.9818 11.314 12.9636 11.1662 13.0456C10.926 13.1732 11.0738 13.556 11.1662 13.7839C11.3879 14.3581 12.3117 15.3789 13.8821 15.8894C15.2584 16.336 18.6211 16.5821 22.6857 15.0326C27.2399 13.2917 30.7964 8.46098 29.7525 4.42322C28.6902 0.312542 21.7804 -1.03642 15.2493 1.25134C11.3601 2.61853 7.14767 4.75134 4.11768 7.54952C0.514961 10.8672 -0.0577801 13.7657 0.182401 14.9688C1.02313 19.2618 7.01834 22.0599 9.42016 24.129C9.30007 24.1927 9.18921 24.2565 9.0876 24.3112C7.88669 24.8945 3.314 27.2553 2.16852 29.7526C0.875233 32.5781 2.37175 34.6107 3.36943 34.8842C6.45484 35.7318 9.61415 34.2097 11.3231 31.7032C13.0228 29.1967 12.8196 25.9428 12.0344 24.4571L12.0066 24.4024L12.9489 23.8555C13.5587 23.5 14.1591 23.1719 14.6856 22.8893C14.3901 23.6822 14.1775 24.621 14.0667 25.9882C13.9374 27.5925 14.6025 29.6705 15.4801 30.4908C15.8681 30.8462 16.33 30.8554 16.6164 30.8554C17.6325 30.8554 18.0944 30.0259 18.6025 29.0325C19.2307 27.8203 19.7849 26.4166 19.7849 26.4166C19.7849 26.4166 19.0921 30.2174 20.9858 30.2174C21.6787 30.2174 22.3715 29.3333 22.6856 28.8776V28.8867C22.6856 28.8867 22.704 28.8593 22.741 28.7955C22.7798 28.739 22.8167 28.6813 22.8519 28.6224V28.6042C23.129 28.1303 23.7479 27.0456 24.6717 25.25C25.8633 22.9349 27.0088 20.0365 27.0088 20.0365C27.0088 20.0365 27.1197 20.7474 27.4615 21.9141C27.6646 22.6069 28.108 23.3633 28.4498 24.1016C28.1727 24.4844 28.0064 24.7033 28.0064 24.7033L28.0157 24.7124C27.7941 25.004 27.5445 25.314 27.286 25.6238C26.3437 26.7358 25.2167 28.0028 25.0689 28.3674C24.8934 28.7957 24.9303 29.1147 25.2721 29.37C25.5216 29.5523 25.965 29.5887 26.4361 29.5523C27.286 29.4975 27.8772 29.288 28.1728 29.1603C28.6347 28.9962 29.1612 28.7501 29.6693 28.3856C30.5931 27.7112 31.1566 26.7541 31.1012 25.4781C31.0735 24.7763 30.8425 24.0836 30.5561 23.4273C30.6393 23.3088 30.7225 23.1902 30.8056 23.0627C32.2651 20.9572 33.3921 18.6422 33.3921 18.6422C33.3921 18.6422 33.503 19.3531 33.8448 20.5198C34.0202 21.1122 34.3713 21.7594 34.6854 22.3975C33.3182 23.5003 32.4591 24.7764 32.1635 25.6149C31.6185 27.1644 32.0434 27.8662 32.8471 28.0303C33.2073 28.1032 33.7247 27.9391 34.1126 27.7751C34.5929 27.6201 35.1749 27.3557 35.7108 26.9639C36.6346 26.2894 37.5214 25.3506 37.4752 24.0837C37.4475 23.5003 37.2905 22.9261 37.078 22.3792C38.2419 21.9053 39.7476 21.6318 41.6599 21.8597C45.7707 22.3336 46.5836 24.8675 46.4267 25.9248C46.2696 26.9822 45.4105 27.5654 45.1241 27.7477C44.8377 27.9209 44.7453 27.9848 44.773 28.1123C44.81 28.3038 44.9393 28.2946 45.1887 28.2582C45.5305 28.2034 47.3504 27.3923 47.4243 25.4419C47.5351 22.935 45.1241 20.2007 40.847 20.2279ZM9.14302 30.7735C7.78507 32.2409 5.87286 32.7969 5.05994 32.323C4.18235 31.8217 4.52405 29.6615 6.19618 28.1029C7.21233 27.155 8.53333 26.28 9.40168 25.7422C9.59567 25.6237 9.89128 25.4507 10.2423 25.2409C10.2977 25.2046 10.3347 25.1862 10.3347 25.1862C10.3994 25.1498 10.4733 25.1042 10.5472 25.0586C11.1661 27.2826 10.5749 29.2331 9.14302 30.7735ZM19.0736 24.1107C18.6025 25.25 17.6048 28.1758 17.0044 28.0118C16.4869 27.875 16.173 25.6602 16.9026 23.4727C17.2722 22.3697 18.0574 21.0573 18.5193 20.5468C19.2676 19.7265 20.0804 19.4531 20.2838 19.7903C20.5239 20.2279 19.3692 23.3998 19.0736 24.1107ZM27.2675 27.9753C27.0643 28.0757 26.8795 28.1485 26.7964 28.0939C26.7317 28.0574 26.8794 27.9207 26.8794 27.9207C26.8794 27.9207 27.9048 26.8361 28.3113 26.3348C28.5422 26.0432 28.8193 25.706 29.115 25.3231V25.4324C29.115 26.7448 27.8402 27.6198 27.2675 27.9753ZM33.586 26.5534C33.4382 26.4441 33.4568 26.1068 33.9555 25.0495C34.1496 24.6303 34.5929 23.9284 35.3597 23.2631C35.4521 23.5365 35.5076 23.8007 35.4982 24.0469C35.4891 25.6875 34.3067 26.2982 33.586 26.5534Z" fill="#CF649A"/>
</g>
<defs>
<clipPath id="clip0_214_1678">
<rect width="47.2973" height="35" fill="white" transform="translate(0.144531 0.121094)"/>
</clipPath>
</defs>
</svg>
