<svg width="51" height="31" viewBox="0 0 51 31" fill="none" xmlns="http://www.w3.org/2000/svg">
<path fill-rule="evenodd" clip-rule="evenodd" d="M25.3385 0.621094C18.6993 0.621094 14.5498 3.95443 12.89 10.6211C15.3797 7.28776 18.2843 6.03776 21.604 6.87109C23.498 7.34609 24.8516 8.72665 26.3501 10.2535C28.7909 12.7415 31.6163 15.6211 37.7871 15.6211C44.4263 15.6211 48.5758 12.2878 50.2356 5.62109C47.7459 8.95443 44.8413 10.2044 41.5216 9.37109C39.6276 8.89609 38.274 7.51554 36.7755 5.98869C34.3347 3.50072 31.5093 0.621094 25.3385 0.621094ZM12.89 15.6211C6.25073 15.6211 2.10121 18.9544 0.441406 25.6211C2.93112 22.2878 5.83578 21.0378 9.1554 21.8711C11.0494 22.347 12.4031 23.7267 13.9015 25.2535C16.3424 27.7415 19.1677 30.6211 25.3385 30.6211C31.9778 30.6211 36.1273 27.2878 37.7871 20.6211C35.2974 23.9544 32.3927 25.2044 29.0731 24.3711C27.1791 23.8961 25.8254 22.5155 24.327 20.9887C21.8861 18.5007 19.0608 15.6211 12.89 15.6211Z" fill="#38BDF8"/>
</svg>
