<svg width="36" height="36" viewBox="0 0 36 36" fill="none" xmlns="http://www.w3.org/2000/svg">
<path d="M0.660156 18.1954V0.695374H35.6602V35.6954H0.660156" fill="#007ACC"/>
<path d="M8.33398 18.2566V19.6828H12.884V32.6328H16.1127V19.6828H20.6627V18.2828C20.6627 17.4953 20.6627 16.8566 20.6277 16.8391C20.6277 16.8128 17.854 16.8041 14.4852 16.8041L8.36023 16.8303V18.2653L8.33398 18.2566ZM28.7827 16.7953C29.6752 17.0053 30.3577 17.4078 30.9702 18.0466C31.294 18.3966 31.7752 19.0091 31.8102 19.1666C31.8102 19.2191 30.2965 20.2428 29.3777 20.8116C29.3427 20.8378 29.2027 20.6891 29.0627 20.4616C28.6077 19.8141 28.144 19.5341 27.4177 19.4816C26.3677 19.4116 25.6677 19.9628 25.6677 20.8816C25.6677 21.1616 25.7202 21.3191 25.8252 21.5466C26.0615 22.0278 26.499 22.3166 27.8552 22.9116C30.3577 23.9878 31.4427 24.6966 32.099 25.7116C32.8427 26.8491 33.009 28.6341 32.5102 29.9728C31.9502 31.4341 30.5852 32.4228 28.634 32.7466C28.0215 32.8516 26.6215 32.8341 25.9652 32.7203C24.5652 32.4578 23.2265 31.7578 22.404 30.8566C22.0802 30.5066 21.459 29.5703 21.494 29.5091L21.8265 29.2991L23.139 28.5378L24.1277 27.9603L24.3552 28.2666C24.644 28.7216 25.2915 29.3341 25.6677 29.5441C26.8052 30.1303 28.3277 30.0516 29.0802 29.3691C29.404 29.0716 29.544 28.7566 29.544 28.3191C29.544 27.9166 29.4827 27.7328 29.2815 27.4266C29.0015 27.0416 28.4415 26.7266 26.8665 26.0266C25.0552 25.2566 24.2852 24.7666 23.5677 24.0141C23.1565 23.5591 22.7802 22.8503 22.6052 22.2641C22.474 21.7566 22.4302 20.5141 22.5527 20.0153C22.929 18.2653 24.2502 17.0403 26.1402 16.6903C26.7527 16.5678 28.1965 16.6203 28.8002 16.7778L28.7827 16.7953Z" fill="white"/>
</svg>
